<svg xmlns="http://www.w3.org/2000/svg" width="90" viewBox="0 0 90 90" height="90" version="1.0"><defs><clipPath id="a"><path d="M 1 21 L 52 21 L 52 83 L 1 83 Z M 1 21"/></clipPath><clipPath id="b"><path d="M 39.753906 89.832031 L -0.0390625 44.925781 L 50.480469 0.160156 L 90.273438 45.066406 Z M 39.753906 89.832031"/></clipPath><clipPath id="c"><path d="M 39.753906 89.832031 L -0.0390625 44.925781 L 50.480469 0.160156 L 90.273438 45.066406 Z M 39.753906 89.832031"/></clipPath><clipPath id="d"><path d="M 37.722656 87.539062 L -0.015625 44.949219 L 34.058594 14.757812 L 71.796875 57.347656 Z M 37.722656 87.539062"/></clipPath><clipPath id="e"><path d="M 37.722656 87.539062 L 0.0117188 44.980469 L 34.085938 14.789062 L 71.796875 57.347656 Z M 37.722656 87.539062"/></clipPath><clipPath id="f"><path d="M 19 7 L 77 7 L 77 78 L 19 78 Z M 19 7"/></clipPath><clipPath id="g"><path d="M 39.753906 89.832031 L -0.0390625 44.925781 L 50.480469 0.160156 L 90.273438 45.066406 Z M 39.753906 89.832031"/></clipPath><clipPath id="h"><path d="M 39.753906 89.832031 L -0.0390625 44.925781 L 50.480469 0.160156 L 90.273438 45.066406 Z M 39.753906 89.832031"/></clipPath><clipPath id="i"><path d="M 38.222656 81.6875 L 5.148438 44.363281 L 52.59375 2.320312 L 85.671875 39.644531 Z M 38.222656 81.6875"/></clipPath><clipPath id="j"><path d="M 38.222656 81.6875 L 5.148438 44.363281 L 52.484375 2.417969 L 85.558594 39.742188 Z M 38.222656 81.6875"/></clipPath><clipPath id="k"><path d="M 33 12 L 71 12 L 71 78 L 33 78 Z M 33 12"/></clipPath><clipPath id="l"><path d="M 39.753906 89.832031 L -0.0390625 44.925781 L 50.480469 0.160156 L 90.273438 45.066406 Z M 39.753906 89.832031"/></clipPath><clipPath id="m"><path d="M 39.753906 89.832031 L -0.0390625 44.925781 L 50.480469 0.160156 L 90.273438 45.066406 Z M 39.753906 89.832031"/></clipPath><clipPath id="n"><path d="M 38 12 L 90 12 L 90 69 L 38 69 Z M 38 12"/></clipPath><clipPath id="o"><path d="M 39.753906 89.832031 L -0.0390625 44.925781 L 50.480469 0.160156 L 90.273438 45.066406 Z M 39.753906 89.832031"/></clipPath><clipPath id="p"><path d="M 39.753906 89.832031 L -0.0390625 44.925781 L 50.480469 0.160156 L 90.273438 45.066406 Z M 39.753906 89.832031"/></clipPath></defs><g clip-path="url(#a)"><g clip-path="url(#b)"><g clip-path="url(#c)"><g clip-path="url(#d)"><g clip-path="url(#e)"><path fill="#7ED957" d="M 16.550781 63.644531 C 18.710938 66.082031 21.707031 67.332031 24.722656 67.351562 C 25.023438 67.398438 25.546875 67.542969 25.945312 67.992188 L 25.960938 67.976562 L 27.175781 69.351562 L 27.160156 69.363281 C 27.558594 69.8125 27.640625 70.351562 27.648438 70.65625 C 27.304688 73.652344 28.1875 76.777344 30.347656 79.214844 C 34.375 83.757812 41.316406 84.183594 45.855469 80.164062 C 50.394531 76.144531 50.804688 69.199219 46.777344 64.652344 C 46.75 64.621094 46.71875 64.59375 46.691406 64.558594 C 46.664062 64.527344 46.636719 64.496094 46.609375 64.460938 L 46.625 64.449219 L 33.167969 49.261719 L 33.152344 49.277344 C 33.125 49.246094 33.09375 49.214844 33.0625 49.183594 C 33.035156 49.148438 33.011719 49.117188 32.980469 49.085938 C 28.953125 44.539062 22.011719 44.113281 17.472656 48.132812 C 12.9375 52.15625 12.523438 59.097656 16.550781 63.644531 Z M 1.558594 43.613281 L 24.53125 23.253906 C 27.558594 20.574219 32.199219 20.875 34.871094 23.890625 C 37.558594 26.921875 37.28125 31.550781 34.257812 34.230469 L 33.898438 34.546875 C 33.847656 34.609375 33.792969 34.671875 33.730469 34.726562 L 32.710938 35.628906 C 31.007812 37.136719 30.851562 39.753906 32.363281 41.460938 C 33.878906 43.167969 36.492188 43.328125 38.195312 41.816406 L 49.308594 31.96875 L 51.429688 34.363281 L 40.316406 44.210938 C 37.289062 46.890625 32.660156 46.605469 29.976562 43.574219 C 27.289062 40.546875 27.566406 35.917969 30.589844 33.234375 L 31.011719 32.863281 C 31.0625 32.796875 31.121094 32.738281 31.183594 32.683594 L 32.136719 31.835938 C 33.839844 30.328125 33.996094 27.710938 32.484375 26.003906 C 30.972656 24.296875 28.355469 24.136719 26.652344 25.648438 L 3.679688 46.007812 C 3.023438 46.585938 2.003906 46.523438 1.421875 45.867188 C 0.84375 45.214844 0.90625 44.191406 1.558594 43.613281"/></g></g></g></g></g><g clip-path="url(#f)"><g clip-path="url(#g)"><g clip-path="url(#h)"><g clip-path="url(#i)"><g clip-path="url(#j)"><path fill="#49B5FF" d="M 39.9375 76.949219 C 39.09375 76 39.179688 74.546875 40.132812 73.703125 C 41.082031 72.863281 42.53125 72.953125 43.375 73.902344 C 44.21875 74.855469 44.132812 76.308594 43.183594 77.148438 C 42.234375 77.992188 40.78125 77.902344 39.9375 76.949219 Z M 40.296875 70.910156 C 39.453125 69.957031 39.539062 68.503906 40.488281 67.664062 C 41.441406 66.820312 42.894531 66.910156 43.734375 67.863281 C 44.578125 68.8125 44.492188 70.265625 43.542969 71.109375 C 42.59375 71.949219 41.140625 71.859375 40.296875 70.910156 Z M 20.441406 51.484375 C 21.414062 50.625 22.914062 50.714844 23.777344 51.6875 L 25.007812 53.078125 L 26.40625 51.835938 C 27.378906 50.972656 28.882812 51.066406 29.746094 52.039062 C 30.605469 53.011719 30.519531 54.515625 29.546875 55.375 L 28.144531 56.617188 L 29.386719 58.019531 C 30.25 58.996094 30.148438 60.480469 29.175781 61.339844 C 28.203125 62.203125 26.703125 62.109375 25.839844 61.136719 L 24.609375 59.75 L 23.226562 60.976562 C 22.253906 61.839844 20.75 61.746094 19.890625 60.773438 C 19.027344 59.800781 19.117188 58.296875 20.085938 57.433594 L 21.472656 56.207031 L 20.242188 54.820312 C 19.382812 53.847656 19.46875 52.34375 20.441406 51.484375 Z M 50.296875 13.039062 C 51.140625 13.988281 51.054688 15.445312 50.105469 16.285156 C 49.15625 17.128906 47.703125 17.039062 46.859375 16.085938 C 46.015625 15.136719 46.101562 13.679688 47.050781 12.839844 C 48.003906 12 49.457031 12.085938 50.296875 13.039062 Z M 49.941406 19.082031 C 50.78125 20.03125 50.695312 21.484375 49.746094 22.328125 C 48.796875 23.167969 47.34375 23.078125 46.5 22.128906 C 45.65625 21.175781 45.742188 19.722656 46.695312 18.882812 C 47.644531 18.039062 49.097656 18.128906 49.941406 19.082031 Z M 64.394531 28.851562 L 65.625 30.238281 L 67.011719 29.011719 C 68 28.136719 69.484375 28.242188 70.347656 29.214844 C 71.210938 30.191406 71.121094 31.691406 70.148438 32.554688 L 68.765625 33.78125 L 70.007812 35.183594 C 70.871094 36.15625 70.78125 37.660156 69.808594 38.519531 C 68.839844 39.382812 67.335938 39.289062 66.472656 38.316406 L 65.230469 36.914062 L 63.828125 38.15625 C 62.855469 39.015625 61.355469 38.921875 60.492188 37.949219 C 59.628906 36.976562 59.71875 35.472656 60.691406 34.613281 L 62.089844 33.371094 L 60.863281 31.984375 C 59.984375 30.996094 60.089844 29.507812 61.058594 28.648438 C 62.03125 27.785156 63.535156 27.878906 64.394531 28.851562 Z M 43.460938 25.335938 C 43.488281 25.367188 43.519531 25.398438 43.546875 25.429688 C 43.574219 25.460938 43.601562 25.496094 43.628906 25.527344 L 43.613281 25.542969 L 57.070312 40.726562 L 57.085938 40.710938 C 57.113281 40.746094 57.144531 40.773438 57.171875 40.808594 C 57.199219 40.839844 57.226562 40.871094 57.253906 40.902344 C 61.28125 45.449219 68.226562 45.875 72.761719 41.855469 C 77.300781 37.835938 77.714844 30.890625 73.6875 26.34375 C 71.527344 23.90625 68.53125 22.65625 65.515625 22.636719 C 65.210938 22.589844 64.6875 22.445312 64.292969 21.996094 L 64.273438 22.011719 L 63.058594 20.640625 L 63.074219 20.625 C 62.679688 20.175781 62.597656 19.640625 62.585938 19.332031 C 62.929688 16.339844 62.050781 13.210938 59.890625 10.777344 C 55.863281 6.230469 48.917969 5.804688 44.382812 9.824219 C 39.84375 13.84375 39.429688 20.789062 43.460938 25.335938"/></g></g></g></g></g><g clip-path="url(#k)"><g clip-path="url(#l)"><g clip-path="url(#m)"><path fill="#570AB8" d="M 46.859375 16.085938 C 46.015625 15.136719 46.101562 13.679688 47.050781 12.839844 C 48.003906 12 49.457031 12.085938 50.296875 13.039062 C 51.140625 13.988281 51.054688 15.445312 50.105469 16.285156 C 49.15625 17.128906 47.703125 17.039062 46.859375 16.085938 Z M 46.5 22.128906 C 45.65625 21.175781 45.742188 19.722656 46.695312 18.882812 C 47.644531 18.039062 49.097656 18.128906 49.941406 19.082031 C 50.78125 20.03125 50.695312 21.484375 49.746094 22.328125 C 48.796875 23.167969 47.34375 23.078125 46.5 22.128906 Z M 60.863281 31.984375 L 62.089844 33.371094 L 60.691406 34.613281 C 59.71875 35.472656 59.628906 36.976562 60.492188 37.949219 C 61.355469 38.921875 62.855469 39.015625 63.828125 38.15625 L 65.230469 36.914062 L 66.472656 38.316406 C 67.335938 39.289062 68.839844 39.382812 69.808594 38.519531 C 70.78125 37.660156 70.871094 36.15625 70.007812 35.183594 L 68.765625 33.78125 L 70.148438 32.554688 C 71.121094 31.691406 71.210938 30.191406 70.347656 29.214844 C 69.484375 28.242188 68 28.136719 67.011719 29.011719 L 65.625 30.238281 L 64.394531 28.851562 C 63.535156 27.878906 62.03125 27.785156 61.058594 28.648438 C 60.089844 29.507812 59.984375 30.996094 60.863281 31.984375 Z M 34.253906 70.539062 C 33.414062 69.585938 33.5 68.132812 34.449219 67.292969 C 35.398438 66.449219 36.851562 66.539062 37.695312 67.492188 C 38.539062 68.441406 38.449219 69.894531 37.5 70.738281 C 36.550781 71.578125 35.097656 71.488281 34.253906 70.539062 Z M 33.914062 76.566406 C 33.070312 75.613281 33.15625 74.160156 34.105469 73.320312 C 35.054688 72.476562 36.507812 72.566406 37.351562 73.519531 C 38.195312 74.46875 38.109375 75.925781 37.160156 76.765625 C 36.210938 77.605469 34.753906 77.519531 33.914062 76.566406"/></g></g></g><g clip-path="url(#n)"><g clip-path="url(#o)"><g clip-path="url(#p)"><path fill="#FF4F63" d="M 52.902344 16.457031 C 52.058594 15.503906 52.144531 14.050781 53.09375 13.210938 C 54.042969 12.367188 55.496094 12.457031 56.339844 13.410156 C 57.183594 14.359375 57.097656 15.8125 56.148438 16.65625 C 55.195312 17.496094 53.742188 17.40625 52.902344 16.457031 Z M 40.925781 58.019531 L 52.042969 48.171875 C 53.746094 46.664062 56.359375 46.824219 57.871094 48.53125 C 59.382812 50.238281 59.230469 52.851562 57.527344 54.359375 L 56.507812 55.265625 C 56.445312 55.320312 56.386719 55.378906 56.335938 55.441406 L 55.980469 55.757812 C 52.953125 58.441406 52.679688 63.070312 55.363281 66.101562 C 58.050781 69.132812 62.679688 69.414062 65.703125 66.734375 L 88.726562 46.332031 C 89.378906 45.753906 89.441406 44.734375 88.859375 44.078125 C 88.265625 43.410156 87.273438 43.347656 86.605469 43.941406 L 63.582031 64.339844 C 61.878906 65.851562 59.265625 65.691406 57.753906 63.984375 C 56.238281 62.277344 56.394531 59.660156 58.097656 58.152344 L 59.054688 57.304688 C 59.117188 57.25 59.171875 57.191406 59.222656 57.128906 L 59.644531 56.753906 C 62.671875 54.074219 62.945312 49.445312 60.261719 46.414062 C 57.589844 43.398438 52.945312 43.097656 49.921875 45.777344 L 38.808594 55.628906 Z M 52.542969 22.5 C 51.699219 21.546875 51.785156 20.09375 52.734375 19.253906 C 53.683594 18.410156 55.136719 18.5 55.980469 19.449219 C 56.824219 20.402344 56.738281 21.855469 55.789062 22.699219 C 54.839844 23.539062 53.382812 23.449219 52.542969 22.5"/></g></g></g></svg>