<svg xmlns="http://www.w3.org/2000/svg" width="375" viewBox="0 0 375 375" height="375" version="1.0"><defs><clipPath id="a"><path d="M 173 16 L 293 16 L 293 162 L 173 162 Z M 173 16"/></clipPath><clipPath id="b"><path d="M 193.925781 -0.167969 L 295.21875 101.125 L 181.199219 215.148438 L 79.902344 113.855469 Z M 193.925781 -0.167969"/></clipPath><clipPath id="c"><path d="M 193.925781 -0.167969 L 295.21875 101.125 L 181.199219 215.148438 L 79.902344 113.855469 Z M 193.925781 -0.167969"/></clipPath><clipPath id="d"><path d="M 199.09375 5.003906 L 295.15625 101.066406 L 218.257812 177.964844 L 122.195312 81.902344 Z M 199.09375 5.003906"/></clipPath><clipPath id="e"><path d="M 199.09375 5.003906 L 295.085938 100.996094 L 218.1875 177.894531 L 122.195312 81.902344 Z M 199.09375 5.003906"/></clipPath><clipPath id="f"><path d="M 114 28 L 248 28 L 248 199 L 114 199 Z M 114 28"/></clipPath><clipPath id="g"><path d="M 193.925781 -0.167969 L 295.21875 101.125 L 181.199219 215.148438 L 79.902344 113.855469 Z M 193.925781 -0.167969"/></clipPath><clipPath id="h"><path d="M 193.925781 -0.167969 L 295.21875 101.125 L 181.199219 215.148438 L 79.902344 113.855469 Z M 193.925781 -0.167969"/></clipPath><clipPath id="i"><path d="M 198.742188 19.027344 L 282.933594 103.214844 L 175.847656 210.300781 L 91.65625 126.109375 Z M 198.742188 19.027344"/></clipPath><clipPath id="j"><path d="M 198.742188 19.027344 L 282.933594 103.214844 L 176.101562 210.050781 L 91.910156 125.859375 Z M 198.742188 19.027344"/></clipPath><clipPath id="k"><path d="M 127 29 L 212 29 L 212 187 L 127 187 Z M 127 29"/></clipPath><clipPath id="l"><path d="M 193.925781 -0.167969 L 295.21875 101.125 L 181.199219 215.148438 L 79.902344 113.855469 Z M 193.925781 -0.167969"/></clipPath><clipPath id="m"><path d="M 193.925781 -0.167969 L 295.21875 101.125 L 181.199219 215.148438 L 79.902344 113.855469 Z M 193.925781 -0.167969"/></clipPath><clipPath id="n"><path d="M 82 53 L 202 53 L 202 187 L 82 187 Z M 82 53"/></clipPath><clipPath id="o"><path d="M 193.925781 -0.167969 L 295.21875 101.125 L 181.199219 215.148438 L 79.902344 113.855469 Z M 193.925781 -0.167969"/></clipPath><clipPath id="p"><path d="M 193.925781 -0.167969 L 295.21875 101.125 L 181.199219 215.148438 L 79.902344 113.855469 Z M 193.925781 -0.167969"/></clipPath></defs><g clip-path="url(#a)"><g clip-path="url(#b)"><g clip-path="url(#c)"><g clip-path="url(#d)"><g clip-path="url(#e)"><path fill="#F2EE11" d="M 252.992188 58.898438 C 247.496094 53.402344 240.171875 50.855469 232.984375 51.246094 C 232.253906 51.179688 230.984375 50.90625 229.972656 49.894531 L 229.9375 49.933594 L 226.84375 46.835938 L 226.878906 46.800781 C 225.863281 45.789062 225.597656 44.519531 225.53125 43.792969 C 225.917969 36.601562 223.371094 29.28125 217.875 23.78125 C 207.621094 13.53125 191.007812 13.519531 180.765625 23.761719 C 170.527344 34 170.539062 50.613281 180.789062 60.867188 C 180.863281 60.941406 180.9375 61.007812 181.011719 61.078125 C 181.082031 61.152344 181.152344 61.226562 181.222656 61.300781 L 181.1875 61.335938 L 215.4375 95.589844 L 215.476562 95.550781 C 215.546875 95.625 215.621094 95.691406 215.695312 95.761719 C 215.765625 95.835938 215.832031 95.910156 215.90625 95.984375 C 226.160156 106.234375 242.773438 106.246094 253.011719 96.007812 C 263.253906 85.765625 263.242188 69.152344 252.992188 58.898438 Z M 291.601562 104.480469 L 239.746094 156.332031 C 232.917969 163.160156 221.808594 163.117188 215.007812 156.316406 C 208.171875 149.480469 208.164062 138.40625 214.992188 131.582031 L 215.800781 130.773438 C 215.914062 130.617188 216.039062 130.460938 216.179688 130.324219 L 218.476562 128.023438 C 222.324219 124.175781 222.320312 117.921875 218.46875 114.070312 C 214.621094 110.222656 208.363281 110.21875 204.519531 114.0625 L 179.4375 139.144531 L 174.039062 133.75 L 199.121094 108.667969 C 205.949219 101.839844 217.023438 101.84375 223.859375 108.679688 C 230.695312 115.515625 230.703125 126.589844 223.875 133.417969 L 222.921875 134.371094 C 222.808594 134.527344 222.6875 134.679688 222.546875 134.820312 L 220.390625 136.976562 C 216.546875 140.820312 216.550781 147.078125 220.398438 150.925781 C 224.25 154.777344 230.503906 154.78125 234.351562 150.9375 L 286.203125 99.082031 C 287.675781 97.609375 290.121094 97.609375 291.597656 99.085938 C 293.070312 100.5625 293.074219 103.007812 291.601562 104.480469"/></g></g></g></g></g><g clip-path="url(#f)"><g clip-path="url(#g)"><g clip-path="url(#h)"><g clip-path="url(#i)"><g clip-path="url(#j)"><path fill="#7ED957" d="M 195.335938 30.566406 C 197.480469 32.710938 197.480469 36.1875 195.339844 38.332031 C 193.195312 40.472656 189.71875 40.472656 187.574219 38.328125 C 185.425781 36.179688 185.425781 32.703125 187.566406 30.5625 C 189.710938 28.417969 193.1875 28.421875 195.335938 30.566406 Z M 195.34375 45.019531 C 197.488281 47.164062 197.492188 50.644531 195.347656 52.785156 C 193.203125 54.929688 189.726562 54.925781 187.582031 52.78125 C 185.433594 50.636719 185.433594 47.15625 187.578125 45.015625 C 189.71875 42.871094 193.199219 42.871094 195.34375 45.019531 Z M 245.457031 88.449219 C 243.265625 90.640625 239.671875 90.640625 237.476562 88.445312 L 234.347656 85.316406 L 231.183594 88.476562 C 228.992188 90.671875 225.394531 90.667969 223.199219 88.472656 C 221.003906 86.277344 221.003906 82.683594 223.195312 80.488281 L 226.359375 77.328125 L 223.191406 74.164062 C 220.996094 71.96875 221.03125 68.40625 223.222656 66.21875 C 225.414062 64.023438 229.011719 64.027344 231.207031 66.21875 L 234.335938 69.351562 L 237.460938 66.222656 C 239.652344 64.03125 243.25 64.035156 245.445312 66.230469 C 247.640625 68.425781 247.640625 72.019531 245.449219 74.210938 L 242.324219 77.339844 L 245.453125 80.46875 C 247.648438 82.664062 247.648438 86.257812 245.457031 88.449219 Z M 179.789062 184.414062 C 177.640625 182.269531 177.640625 178.792969 179.78125 176.648438 C 181.925781 174.503906 185.402344 174.507812 187.550781 176.652344 C 189.695312 178.796875 189.699219 182.277344 187.554688 184.417969 C 185.410156 186.5625 181.933594 186.5625 179.789062 184.414062 Z M 179.777344 169.960938 C 177.632812 167.816406 177.628906 164.339844 179.773438 162.195312 C 181.917969 160.050781 185.394531 160.054688 187.539062 162.199219 C 189.6875 164.34375 189.6875 167.820312 187.542969 169.964844 C 185.402344 172.109375 181.925781 172.105469 179.777344 169.960938 Z M 143.917969 148.761719 L 140.785156 145.628906 L 137.660156 148.753906 C 135.433594 150.984375 131.871094 150.945312 129.679688 148.753906 C 127.484375 146.558594 127.480469 142.960938 129.671875 140.769531 L 132.800781 137.640625 L 129.632812 134.476562 C 127.4375 132.28125 127.4375 128.6875 129.628906 126.492188 C 131.820312 124.300781 135.414062 124.304688 137.609375 126.5 L 140.777344 129.664062 L 143.9375 126.503906 C 146.132812 124.308594 149.726562 124.3125 151.921875 126.507812 C 154.117188 128.703125 154.117188 132.296875 151.925781 134.488281 L 148.761719 137.652344 L 151.894531 140.785156 C 154.125 143.015625 154.089844 146.574219 151.898438 148.765625 C 149.707031 150.957031 146.109375 150.953125 143.917969 148.761719 Z M 194.332031 154.113281 C 194.257812 154.039062 194.183594 153.972656 194.109375 153.902344 C 194.039062 153.828125 193.972656 153.753906 193.898438 153.679688 L 193.933594 153.644531 L 159.683594 119.390625 L 159.648438 119.429688 C 159.574219 119.355469 159.5 119.289062 159.425781 119.21875 C 159.355469 119.144531 159.289062 119.070312 159.214844 118.996094 C 148.964844 108.746094 132.347656 108.734375 122.109375 118.972656 C 111.867188 129.214844 111.878906 145.828125 122.132812 156.082031 C 127.628906 161.578125 134.949219 164.125 142.140625 163.734375 C 142.867188 163.804688 144.136719 164.070312 145.148438 165.085938 L 145.1875 165.046875 L 148.28125 168.144531 L 148.242188 168.179688 C 149.257812 169.191406 149.523438 170.460938 149.59375 171.1875 C 149.203125 178.378906 151.75 185.703125 157.246094 191.199219 C 167.5 201.449219 184.113281 201.460938 194.355469 191.21875 C 204.59375 180.980469 204.585938 164.367188 194.332031 154.113281"/></g></g></g></g></g><g clip-path="url(#k)"><g clip-path="url(#l)"><g clip-path="url(#m)"><path fill="#570AB8" d="M 187.550781 176.652344 C 189.695312 178.796875 189.699219 182.277344 187.554688 184.417969 C 185.410156 186.5625 181.933594 186.5625 179.789062 184.414062 C 177.640625 182.269531 177.640625 178.792969 179.78125 176.648438 C 181.925781 174.503906 185.402344 174.507812 187.550781 176.652344 Z M 187.539062 162.199219 C 189.6875 164.34375 189.6875 167.820312 187.542969 169.964844 C 185.402344 172.109375 181.925781 172.105469 179.777344 169.960938 C 177.632812 167.816406 177.628906 164.339844 179.773438 162.195312 C 181.917969 160.050781 185.394531 160.054688 187.539062 162.199219 Z M 151.894531 140.785156 L 148.761719 137.652344 L 151.925781 134.488281 C 154.117188 132.296875 154.117188 128.703125 151.921875 126.507812 C 149.726562 124.3125 146.132812 124.308594 143.9375 126.503906 L 140.777344 129.664062 L 137.609375 126.5 C 135.414062 124.304688 131.820312 124.300781 129.628906 126.492188 C 127.4375 128.6875 127.4375 132.28125 129.632812 134.476562 L 132.800781 137.640625 L 129.671875 140.769531 C 127.480469 142.960938 127.484375 146.558594 129.679688 148.753906 C 131.871094 150.945312 135.433594 150.984375 137.660156 148.753906 L 140.785156 145.628906 L 143.917969 148.761719 C 146.109375 150.953125 149.707031 150.957031 151.898438 148.765625 C 154.089844 146.574219 154.125 143.015625 151.894531 140.785156 Z M 209.796875 45.027344 C 211.945312 47.175781 211.945312 50.652344 209.800781 52.796875 C 207.660156 54.9375 204.183594 54.9375 202.035156 52.789062 C 199.890625 50.644531 199.886719 47.167969 202.03125 45.023438 C 204.175781 42.882812 207.652344 42.882812 209.796875 45.027344 Z M 209.753906 30.609375 C 211.898438 32.757812 211.902344 36.234375 209.757812 38.378906 C 207.617188 40.519531 204.136719 40.515625 201.992188 38.371094 C 199.84375 36.226562 199.84375 32.746094 201.984375 30.605469 C 204.128906 28.460938 207.605469 28.464844 209.753906 30.609375"/></g></g></g><g clip-path="url(#n)"><g clip-path="url(#o)"><g clip-path="url(#p)"><path fill="#5CE1E6" d="M 173.09375 176.644531 C 175.242188 178.789062 175.242188 182.265625 173.097656 184.410156 C 170.957031 186.554688 167.476562 186.550781 165.332031 184.40625 C 163.1875 182.261719 163.183594 178.785156 165.328125 176.640625 C 167.472656 174.496094 170.949219 174.5 173.09375 176.644531 Z M 195.683594 75.835938 L 170.601562 100.917969 C 166.757812 104.761719 160.503906 104.757812 156.652344 100.910156 C 152.800781 97.058594 152.796875 90.800781 156.644531 86.957031 L 158.941406 84.65625 C 159.082031 84.515625 159.207031 84.367188 159.320312 84.210938 L 160.128906 83.402344 C 166.957031 76.574219 166.949219 65.496094 160.113281 58.660156 C 153.277344 51.824219 142.203125 51.820312 135.375 58.648438 L 83.414062 110.609375 C 81.941406 112.082031 81.941406 114.527344 83.417969 116 C 84.929688 117.511719 87.300781 117.515625 88.8125 116.003906 L 140.773438 64.042969 C 144.617188 60.199219 150.875 60.203125 154.722656 64.050781 C 158.574219 67.902344 158.578125 74.160156 154.734375 78.003906 L 152.578125 80.160156 C 152.4375 80.300781 152.3125 80.453125 152.199219 80.609375 L 151.246094 81.5625 C 144.417969 88.390625 144.425781 99.464844 151.261719 106.300781 C 158.0625 113.097656 169.171875 113.140625 176 106.316406 L 201.082031 81.230469 Z M 173.085938 162.1875 C 175.234375 164.335938 175.234375 167.8125 173.09375 169.957031 C 170.949219 172.101562 167.472656 172.097656 165.324219 169.953125 C 163.179688 167.804688 163.175781 164.328125 165.320312 162.183594 C 167.464844 160.042969 170.941406 160.042969 173.085938 162.1875"/></g></g></g><g fill="#FFF"><g><g><path d="M 54.503906 -59.328125 L 23.542969 -59.328125 C 20.375 -59.328125 17.640625 -58.894531 15.40625 -58.105469 C 13.175781 -57.238281 11.230469 -55.871094 9.863281 -54.070312 C 8.425781 -52.199219 7.34375 -49.894531 6.695312 -47.015625 C 6.046875 -44.207031 5.761719 -40.753906 5.761719 -36.792969 L 5.761719 -22.535156 C 5.761719 -18.503906 6.046875 -15.046875 6.695312 -12.167969 C 7.34375 -9.359375 8.425781 -6.984375 9.863281 -5.113281 C 11.304688 -3.3125 13.175781 -1.945312 15.40625 -1.152344 C 17.640625 -0.359375 20.375 0.0703125 23.542969 0.0703125 L 48.167969 0.0703125 C 50.832031 0.0703125 52.921875 -1.007812 54.359375 -3.097656 C 55.726562 -5.113281 56.449219 -8.496094 56.449219 -13.320312 L 56.449219 -32.617188 C 56.449219 -35.351562 54.863281 -35.785156 53.929688 -35.785156 L 28.441406 -35.785156 C 27.863281 -35.785156 26.425781 -35.496094 26.425781 -33.191406 L 26.425781 -27.71875 C 26.425781 -25.34375 27.863281 -25.128906 28.441406 -25.128906 L 46.367188 -25.128906 C 46.367188 -25.128906 46.441406 -15.046875 46.441406 -15.046875 C 46.441406 -12.816406 46.078125 -11.878906 45.792969 -11.449219 C 45.433594 -10.871094 44.855469 -10.65625 44.0625 -10.65625 L 23.902344 -10.65625 C 22.390625 -10.65625 21.097656 -10.800781 20.160156 -11.160156 C 19.222656 -11.449219 18.574219 -11.953125 18 -12.742188 C 17.496094 -13.464844 17.0625 -14.542969 16.847656 -15.910156 C 16.558594 -17.351562 16.414062 -19.152344 16.414062 -21.3125 L 16.414062 -38.015625 C 16.414062 -40.175781 16.558594 -41.976562 16.847656 -43.414062 C 17.0625 -44.710938 17.496094 -45.792969 18 -46.585938 C 18.574219 -47.304688 19.222656 -47.808594 20.160156 -48.167969 C 21.097656 -48.457031 22.390625 -48.671875 23.902344 -48.671875 L 54.503906 -48.671875 C 55.078125 -48.671875 56.519531 -48.886719 56.519531 -51.191406 L 56.519531 -56.808594 C 56.519531 -59.039062 55.078125 -59.328125 54.503906 -59.328125 Z M 54.503906 -59.328125" transform="translate(57.757 275.687)"/></g></g></g><g fill="#FFF"><g><g><path d="M 44.351562 -52.632812 C 44.207031 -52.992188 44.0625 -53.425781 43.921875 -53.710938 C 42.769531 -57.457031 39.3125 -60.121094 35.351562 -60.121094 C 33.550781 -60.121094 31.824219 -59.617188 30.382812 -58.609375 C 29.953125 -58.390625 29.59375 -58.105469 29.304688 -57.886719 C 28.222656 -56.953125 27.144531 -55.222656 26.136719 -52.632812 L 6.046875 -2.734375 C 5.832031 -2.089844 5.761719 -1.441406 5.902344 -1.007812 C 5.976562 -0.574219 6.335938 0.0703125 7.488281 0.0703125 L 15.40625 0.0703125 C 16.34375 0.0703125 17.0625 -0.503906 17.425781 -1.441406 L 21.527344 -11.734375 L 37.296875 -11.734375 C 38.089844 -11.734375 38.808594 -12.097656 39.167969 -12.742188 C 39.601562 -13.320312 39.671875 -14.113281 39.457031 -14.832031 L 36.863281 -21.238281 C 36.503906 -22.105469 35.710938 -22.679688 34.777344 -22.679688 L 25.847656 -22.679688 L 35.0625 -46.007812 C 35.136719 -46.152344 35.207031 -46.222656 35.207031 -46.222656 L 35.496094 -46.222656 C 35.496094 -46.222656 35.496094 -46.222656 35.566406 -46.078125 L 53.425781 -1.511719 C 53.785156 -0.503906 54.503906 0.0703125 55.511719 0.0703125 L 63.214844 0.0703125 C 64.367188 0.0703125 64.65625 -0.648438 64.800781 -1.007812 C 64.945312 -1.441406 64.871094 -2.089844 64.585938 -2.734375 Z M 44.351562 -52.632812" transform="translate(116.15 275.687)"/></g></g></g><g fill="#FFF"><g><g><path d="M 65.878906 -59.328125 L 59.398438 -59.328125 C 58.390625 -59.328125 57.601562 -59.257812 56.878906 -59.039062 C 56.160156 -58.824219 55.511719 -58.464844 54.9375 -57.960938 C 54.433594 -57.382812 53.929688 -56.734375 53.496094 -55.871094 C 53.0625 -55.007812 52.703125 -53.929688 52.273438 -52.558594 L 39.527344 -20.734375 C 39.457031 -20.449219 39.382812 -20.449219 39.3125 -20.449219 L 38.59375 -20.449219 C 38.59375 -20.449219 38.449219 -20.449219 38.375 -20.734375 L 25.703125 -52.558594 C 25.273438 -53.929688 24.839844 -55.007812 24.480469 -55.871094 C 24.046875 -56.734375 23.542969 -57.382812 23.039062 -57.960938 C 22.464844 -58.464844 21.742188 -58.824219 21.023438 -59.039062 C 20.304688 -59.257812 19.441406 -59.328125 18.503906 -59.328125 L 11.878906 -59.328125 C 9.433594 -59.328125 7.777344 -58.535156 6.910156 -57.023438 C 6.121094 -55.65625 5.761719 -53.351562 5.761719 -50.039062 L 5.761719 -2.449219 C 5.761719 -0.214844 7.199219 0.0703125 7.847656 0.0703125 L 14.039062 0.0703125 C 14.6875 0.0703125 16.054688 -0.214844 16.054688 -2.449219 L 16.054688 -45.71875 C 16.054688 -45.792969 16.054688 -45.863281 16.054688 -45.863281 L 16.414062 -45.863281 C 16.488281 -45.863281 16.558594 -45.863281 16.632812 -45.648438 L 28.945312 -15.191406 C 29.449219 -13.679688 29.953125 -12.382812 30.457031 -11.304688 C 31.03125 -10.222656 31.609375 -9.359375 32.183594 -8.640625 C 32.902344 -7.921875 33.625 -7.34375 34.488281 -7.054688 C 35.351562 -6.769531 36.289062 -6.625 37.367188 -6.625 L 40.320312 -6.625 C 41.398438 -6.625 42.40625 -6.769531 43.199219 -7.054688 C 44.0625 -7.34375 44.855469 -7.921875 45.503906 -8.640625 C 46.078125 -9.359375 46.726562 -10.222656 47.230469 -11.304688 C 47.734375 -12.382812 48.238281 -13.679688 48.742188 -15.191406 L 61.128906 -45.71875 C 61.128906 -45.863281 61.199219 -45.863281 61.273438 -45.863281 L 61.632812 -45.863281 C 61.632812 -45.863281 61.632812 -45.792969 61.632812 -45.71875 L 61.632812 -2.449219 C 61.632812 -0.214844 63.070312 0.0703125 63.648438 0.0703125 L 69.839844 0.0703125 C 70.488281 0.0703125 71.929688 -0.214844 71.929688 -2.449219 L 71.929688 -50.039062 C 71.929688 -53.351562 71.566406 -55.65625 70.777344 -57.023438 C 69.910156 -58.535156 68.257812 -59.328125 65.878906 -59.328125 Z M 65.878906 -59.328125" transform="translate(182.965 275.687)"/></g></g></g><g fill="#FFF"><g><g><path d="M 49.03125 -12.886719 L 23.6875 -12.886719 C 22.175781 -12.886719 20.953125 -13.105469 19.945312 -13.390625 C 19.007812 -13.753906 18.359375 -14.257812 17.785156 -14.976562 C 17.207031 -15.769531 16.777344 -16.847656 16.558594 -18.214844 C 16.488281 -18.574219 16.488281 -19.078125 16.414062 -19.441406 C 16.414062 -19.441406 16.488281 -24.625 16.558594 -24.625 L 48.742188 -24.625 C 49.320312 -24.625 50.761719 -24.910156 50.761719 -27.144531 L 50.761719 -32.832031 C 50.761719 -35.0625 49.320312 -35.28125 48.742188 -35.28125 L 11.59375 -35.207031 C 9.503906 -35.0625 7.703125 -33.984375 6.695312 -32.183594 C 6.335938 -31.609375 6.046875 -31.03125 5.902344 -30.382812 L 5.761719 -21.3125 L 5.761719 -20.953125 C 5.832031 -17.566406 6.191406 -14.6875 6.695312 -12.3125 C 7.34375 -9.433594 8.425781 -7.054688 9.792969 -5.257812 C 11.230469 -3.382812 13.105469 -2.089844 15.40625 -1.296875 C 17.640625 -0.433594 20.304688 -0.0703125 23.472656 -0.0703125 L 49.03125 -0.0703125 C 49.679688 -0.0703125 51.121094 -0.289062 51.121094 -2.519531 L 51.121094 -10.441406 C 51.121094 -12.671875 49.679688 -12.886719 49.03125 -12.886719 Z M 49.105469 -59.472656 L 7.703125 -59.472656 C 7.128906 -59.472656 5.761719 -59.183594 5.761719 -56.878906 L 5.761719 -51.265625 C 5.761719 -49.03125 7.128906 -48.816406 7.703125 -48.816406 L 49.105469 -48.742188 C 49.679688 -48.742188 51.121094 -49.03125 51.121094 -51.265625 L 51.121094 -56.953125 C 51.121094 -59.183594 49.679688 -59.472656 49.105469 -59.472656 Z M 49.105469 -59.472656" transform="translate(256.765 275.687)"/></g></g></g><g fill="#7ED957"><g><g><path d="M 1.71875 0 L 4.40625 -30.75 L 12.59375 -30.75 L 17.71875 -9.75 L 22.796875 -30.75 L 30.953125 -30.75 L 33.8125 0 L 28.015625 0 L 26 -20.53125 L 21.03125 0 L 14.484375 0 L 9.3125 -20.53125 L 7.515625 0 Z M 1.71875 0" transform="translate(102.28 339.097)"/></g></g></g><g fill="#7ED957"><g><g><path d="M 1.421875 0 L 11.796875 -30.75 L 18.484375 -30.75 L 28.46875 0 L 22.21875 0 L 20.03125 -6.796875 L 9.953125 -6.796875 L 7.734375 0 Z M 11.515625 -12.015625 L 18.640625 -12.015625 L 15.203125 -23.015625 Z M 11.515625 -12.015625" transform="translate(147.346 339.097)"/></g></g></g><g fill="#7ED957"><g><g><path d="M 2.515625 0 L 2.515625 -30.75 L 8.484375 -30.75 L 20.65625 -10.875 L 20.65625 -30.75 L 26.546875 -30.75 L 26.546875 0 L 20.65625 0 L 8.4375 -19.65625 L 8.4375 0 Z M 2.515625 0" transform="translate(185.902 339.097)"/></g></g></g><g fill="#7ED957"><g><g><path d="M 2.515625 0 L 2.515625 -30.75 L 8.390625 -30.75 L 8.390625 0 Z M 2.515625 0" transform="translate(223.87 339.097)"/></g></g></g><g fill="#7ED957"><g><g><path d="M 1.421875 0 L 11.796875 -30.75 L 18.484375 -30.75 L 28.46875 0 L 22.21875 0 L 20.03125 -6.796875 L 9.953125 -6.796875 L 7.734375 0 Z M 11.515625 -12.015625 L 18.640625 -12.015625 L 15.203125 -23.015625 Z M 11.515625 -12.015625" transform="translate(243.652 339.097)"/></g></g></g></svg>