<svg xmlns="http://www.w3.org/2000/svg" width="45" viewBox="0 0 45 45" height="45" version="1.0"><defs><clipPath id="a"><path d="M 0.648438 0.648438 L 44.148438 0.648438 L 44.148438 44.148438 L 0.648438 44.148438 Z M 0.648438 0.648438"/></clipPath></defs><g clip-path="url(#a)"><path fill="#FFF" d="M 22.398438 0.648438 C 10.40625 0.648438 0.648438 10.40625 0.648438 22.398438 C 0.648438 29.164062 3.699219 35.40625 9.011719 39.527344 C 12.066406 41.933594 15.707031 43.464844 19.503906 43.949219 C 20.445312 44.082031 21.421875 44.148438 22.398438 44.148438 C 23.375 44.148438 24.351562 44.082031 25.265625 43.953125 C 29.089844 43.464844 32.730469 41.9375 35.78125 39.535156 C 41.101562 35.40625 44.148438 29.160156 44.148438 22.398438 C 44.148438 10.40625 34.390625 0.648438 22.398438 0.648438 Z M 34.828125 36.25 L 34.828125 34.144531 C 34.828125 31.097656 29.265625 28.613281 22.398438 28.613281 C 15.53125 28.613281 9.96875 31.097656 9.96875 34.144531 L 9.96875 36.25 C 6.019531 32.734375 3.753906 27.769531 3.753906 22.398438 C 3.753906 12.117188 12.117188 3.753906 22.398438 3.753906 C 32.679688 3.753906 41.042969 12.117188 41.042969 22.398438 C 41.042969 27.765625 38.78125 32.726562 34.828125 36.25 Z M 34.828125 36.25"/></g><path fill="#FFF" d="M 30.167969 17.738281 C 30.167969 18.246094 30.117188 18.753906 30.015625 19.253906 C 29.917969 19.753906 29.769531 20.238281 29.574219 20.710938 C 29.378906 21.179688 29.140625 21.628906 28.855469 22.054688 C 28.574219 22.476562 28.25 22.871094 27.890625 23.230469 C 27.53125 23.589844 27.136719 23.914062 26.714844 24.195312 C 26.289062 24.480469 25.84375 24.71875 25.371094 24.914062 C 24.898438 25.109375 24.414062 25.257812 23.914062 25.355469 C 23.414062 25.457031 22.910156 25.503906 22.398438 25.503906 C 21.886719 25.503906 21.382812 25.457031 20.882812 25.355469 C 20.382812 25.257812 19.898438 25.109375 19.425781 24.914062 C 18.953125 24.71875 18.507812 24.480469 18.082031 24.195312 C 17.660156 23.914062 17.265625 23.589844 16.90625 23.230469 C 16.546875 22.871094 16.222656 22.476562 15.941406 22.054688 C 15.65625 21.628906 15.417969 21.179688 15.222656 20.710938 C 15.027344 20.238281 14.878906 19.753906 14.78125 19.253906 C 14.679688 18.753906 14.628906 18.246094 14.628906 17.738281 C 14.628906 17.226562 14.679688 16.722656 14.78125 16.222656 C 14.878906 15.722656 15.027344 15.238281 15.222656 14.765625 C 15.417969 14.292969 15.65625 13.847656 15.941406 13.421875 C 16.222656 13 16.546875 12.605469 16.90625 12.246094 C 17.265625 11.882812 17.660156 11.5625 18.082031 11.277344 C 18.507812 10.996094 18.953125 10.757812 19.425781 10.5625 C 19.898438 10.367188 20.382812 10.21875 20.882812 10.121094 C 21.382812 10.019531 21.886719 9.96875 22.398438 9.96875 C 22.910156 9.96875 23.414062 10.019531 23.914062 10.121094 C 24.414062 10.21875 24.898438 10.367188 25.371094 10.5625 C 25.84375 10.757812 26.289062 10.996094 26.714844 11.277344 C 27.136719 11.5625 27.53125 11.882812 27.890625 12.246094 C 28.25 12.605469 28.574219 13 28.855469 13.421875 C 29.140625 13.847656 29.378906 14.292969 29.574219 14.765625 C 29.769531 15.238281 29.917969 15.722656 30.015625 16.222656 C 30.117188 16.722656 30.167969 17.226562 30.167969 17.738281 Z M 30.167969 17.738281"/></svg>