<svg xmlns="http://www.w3.org/2000/svg" width="600" viewBox="0 0 600 225" height="225" version="1.0"><defs><clipPath id="a"><path d="M 18 72 L 104 72 L 104 178 L 18 178 Z M 18 72"/></clipPath><clipPath id="b"><path d="M 84.015625 188.890625 L 16.367188 112.550781 L 102.253906 36.445312 L 169.898438 112.789062 Z M 84.015625 188.890625"/></clipPath><clipPath id="c"><path d="M 84.015625 188.890625 L 16.367188 112.550781 L 102.253906 36.445312 L 169.898438 112.789062 Z M 84.015625 188.890625"/></clipPath><clipPath id="d"><path d="M 80.566406 184.996094 L 16.40625 112.589844 L 74.328125 61.265625 L 138.488281 133.671875 Z M 80.566406 184.996094"/></clipPath><clipPath id="e"><path d="M 80.566406 184.996094 L 16.453125 112.644531 L 74.378906 61.320312 L 138.488281 133.671875 Z M 80.566406 184.996094"/></clipPath><clipPath id="f"><path d="M 49 48 L 147 48 L 147 169 L 49 169 Z M 49 48"/></clipPath><clipPath id="g"><path d="M 84.015625 188.890625 L 16.367188 112.550781 L 102.253906 36.445312 L 169.898438 112.789062 Z M 84.015625 188.890625"/></clipPath><clipPath id="h"><path d="M 84.015625 188.890625 L 16.367188 112.550781 L 102.253906 36.445312 L 169.898438 112.789062 Z M 84.015625 188.890625"/></clipPath><clipPath id="i"><path d="M 81.414062 175.046875 L 25.183594 111.589844 L 105.84375 40.117188 L 162.074219 103.574219 Z M 81.414062 175.046875"/></clipPath><clipPath id="j"><path d="M 81.414062 175.046875 L 25.183594 111.589844 L 105.652344 40.285156 L 161.882812 103.742188 Z M 81.414062 175.046875"/></clipPath><clipPath id="k"><path d="M 73 57 L 138 57 L 138 168 L 73 168 Z M 73 57"/></clipPath><clipPath id="l"><path d="M 84.015625 188.890625 L 16.367188 112.550781 L 102.253906 36.445312 L 169.898438 112.789062 Z M 84.015625 188.890625"/></clipPath><clipPath id="m"><path d="M 84.015625 188.890625 L 16.367188 112.550781 L 102.253906 36.445312 L 169.898438 112.789062 Z M 84.015625 188.890625"/></clipPath><clipPath id="n"><path d="M 82 57 L 169 57 L 169 153 L 82 153 Z M 82 57"/></clipPath><clipPath id="o"><path d="M 84.015625 188.890625 L 16.367188 112.550781 L 102.253906 36.445312 L 169.898438 112.789062 Z M 84.015625 188.890625"/></clipPath><clipPath id="p"><path d="M 84.015625 188.890625 L 16.367188 112.550781 L 102.253906 36.445312 L 169.898438 112.789062 Z M 84.015625 188.890625"/></clipPath></defs><g clip-path="url(#a)"><g clip-path="url(#b)"><g clip-path="url(#c)"><g clip-path="url(#d)"><g clip-path="url(#e)"><path fill="#7ED957" d="M 44.570312 144.375 C 48.238281 148.515625 53.335938 150.644531 58.460938 150.675781 C 58.972656 150.753906 59.863281 151 60.539062 151.765625 L 60.566406 151.738281 L 62.632812 154.074219 L 62.605469 154.097656 C 63.285156 154.859375 63.421875 155.773438 63.4375 156.292969 C 62.851562 161.386719 64.351562 166.699219 68.023438 170.839844 C 74.871094 178.570312 86.675781 179.292969 94.390625 172.460938 C 102.101562 165.625 102.800781 153.816406 95.957031 146.089844 C 95.90625 146.035156 95.855469 145.984375 95.804688 145.929688 C 95.757812 145.875 95.714844 145.820312 95.667969 145.765625 L 95.695312 145.742188 L 72.816406 119.921875 L 72.789062 119.949219 C 72.742188 119.894531 72.691406 119.84375 72.640625 119.789062 C 72.59375 119.734375 72.550781 119.675781 72.5 119.621094 C 65.652344 111.894531 53.851562 111.171875 46.136719 118.003906 C 38.421875 124.839844 37.722656 136.644531 44.570312 144.375 Z M 19.078125 110.320312 L 58.136719 75.710938 C 63.28125 71.152344 71.171875 71.664062 75.714844 76.789062 C 80.28125 81.941406 79.8125 89.808594 74.667969 94.367188 L 74.0625 94.90625 C 73.972656 95.011719 73.878906 95.117188 73.773438 95.210938 L 72.042969 96.746094 C 69.144531 99.3125 68.882812 103.757812 71.453125 106.660156 C 74.023438 109.558594 78.46875 109.832031 81.363281 107.265625 L 100.257812 90.523438 L 103.863281 94.59375 L 84.96875 111.335938 C 79.824219 115.890625 71.957031 115.410156 67.390625 110.257812 C 62.828125 105.101562 63.292969 97.234375 68.4375 92.675781 L 69.152344 92.042969 C 69.242188 91.933594 69.335938 91.832031 69.441406 91.738281 L 71.066406 90.300781 C 73.960938 87.734375 74.226562 83.289062 71.65625 80.386719 C 69.082031 77.484375 64.636719 77.210938 61.742188 79.777344 L 22.683594 114.386719 C 21.574219 115.371094 19.835938 115.265625 18.851562 114.152344 C 17.867188 113.039062 17.96875 111.300781 19.078125 110.320312"/></g></g></g></g></g><g clip-path="url(#f)"><g clip-path="url(#g)"><g clip-path="url(#h)"><g clip-path="url(#i)"><g clip-path="url(#j)"><path fill="#49B5FF" d="M 84.328125 166.996094 C 82.894531 165.375 83.042969 162.90625 84.65625 161.476562 C 86.269531 160.046875 88.742188 160.195312 90.171875 161.8125 C 91.605469 163.433594 91.460938 165.902344 89.847656 167.332031 C 88.230469 168.761719 85.761719 168.613281 84.328125 166.996094 Z M 84.9375 156.722656 C 83.503906 155.105469 83.652344 152.636719 85.265625 151.203125 C 86.878906 149.773438 89.351562 149.925781 90.785156 151.542969 C 92.21875 153.160156 92.070312 155.632812 90.457031 157.0625 C 88.84375 158.492188 86.371094 158.339844 84.9375 156.722656 Z M 51.183594 123.699219 C 52.832031 122.238281 55.386719 122.394531 56.855469 124.046875 L 58.945312 126.40625 L 61.324219 124.296875 C 62.976562 122.832031 65.53125 122.988281 67 124.644531 C 68.464844 126.296875 68.3125 128.855469 66.660156 130.316406 L 64.28125 132.429688 L 66.394531 134.8125 C 67.859375 136.46875 67.683594 138.996094 66.03125 140.457031 C 64.382812 141.921875 61.828125 141.765625 60.359375 140.109375 L 58.269531 137.753906 L 55.917969 139.839844 C 54.265625 141.300781 51.710938 141.144531 50.242188 139.492188 C 48.777344 137.835938 48.929688 135.28125 50.582031 133.816406 L 52.933594 131.730469 L 50.84375 129.371094 C 49.378906 127.71875 49.53125 125.164062 51.183594 123.699219 Z M 101.9375 58.34375 C 103.371094 59.960938 103.226562 62.429688 101.613281 63.863281 C 99.996094 65.292969 97.527344 65.140625 96.09375 63.523438 C 94.660156 61.90625 94.804688 59.433594 96.421875 58.003906 C 98.035156 56.574219 100.507812 56.722656 101.9375 58.34375 Z M 101.328125 68.613281 C 102.761719 70.230469 102.617188 72.703125 101 74.132812 C 99.386719 75.5625 96.914062 75.410156 95.484375 73.792969 C 94.050781 72.175781 94.195312 69.707031 95.8125 68.273438 C 97.425781 66.84375 99.894531 66.996094 101.328125 68.613281 Z M 125.90625 85.226562 L 127.996094 87.585938 L 130.351562 85.5 C 132.03125 84.011719 134.558594 84.191406 136.023438 85.847656 C 137.488281 87.5 137.339844 90.054688 135.6875 91.519531 L 133.332031 93.605469 L 135.445312 95.992188 C 136.910156 97.644531 136.761719 100.199219 135.109375 101.664062 C 133.457031 103.125 130.902344 102.96875 129.4375 101.316406 L 127.324219 98.929688 L 124.941406 101.039062 C 123.289062 102.503906 120.734375 102.347656 119.269531 100.691406 C 117.804688 99.039062 117.957031 96.484375 119.605469 95.019531 L 121.988281 92.910156 L 119.898438 90.550781 C 118.40625 88.867188 118.585938 86.339844 120.234375 84.878906 C 121.886719 83.414062 124.441406 83.570312 125.90625 85.226562 Z M 90.3125 79.246094 C 90.359375 79.300781 90.410156 79.351562 90.460938 79.40625 C 90.507812 79.460938 90.550781 79.519531 90.601562 79.574219 L 90.574219 79.597656 L 113.449219 105.414062 L 113.476562 105.390625 C 113.527344 105.445312 113.578125 105.496094 113.625 105.550781 C 113.671875 105.605469 113.71875 105.660156 113.765625 105.714844 C 120.613281 113.441406 132.417969 114.167969 140.132812 107.332031 C 147.84375 100.5 148.546875 88.691406 141.699219 80.964844 C 138.027344 76.820312 132.933594 74.695312 127.808594 74.660156 C 127.292969 74.582031 126.402344 74.335938 125.726562 73.570312 L 125.699219 73.597656 L 123.632812 71.265625 L 123.660156 71.238281 C 122.984375 70.476562 122.847656 69.5625 122.832031 69.042969 C 123.414062 63.953125 121.917969 58.636719 118.246094 54.496094 C 111.398438 46.765625 99.59375 46.042969 91.878906 52.878906 C 84.167969 59.714844 83.464844 71.519531 90.3125 79.246094"/></g></g></g></g></g><g clip-path="url(#k)"><g clip-path="url(#l)"><g clip-path="url(#m)"><path fill="#570AB8" d="M 96.09375 63.523438 C 94.660156 61.90625 94.804688 59.433594 96.421875 58.003906 C 98.035156 56.574219 100.507812 56.722656 101.9375 58.34375 C 103.371094 59.960938 103.226562 62.429688 101.613281 63.863281 C 99.996094 65.292969 97.527344 65.140625 96.09375 63.523438 Z M 95.484375 73.792969 C 94.050781 72.175781 94.195312 69.707031 95.8125 68.273438 C 97.425781 66.84375 99.894531 66.996094 101.328125 68.613281 C 102.761719 70.230469 102.617188 72.703125 101 74.132812 C 99.386719 75.5625 96.914062 75.410156 95.484375 73.792969 Z M 119.898438 90.550781 L 121.988281 92.910156 L 119.605469 95.019531 C 117.957031 96.484375 117.804688 99.039062 119.269531 100.691406 C 120.734375 102.347656 123.289062 102.503906 124.941406 101.039062 L 127.324219 98.929688 L 129.4375 101.316406 C 130.902344 102.96875 133.457031 103.125 135.109375 101.664062 C 136.761719 100.199219 136.910156 97.644531 135.445312 95.992188 L 133.332031 93.605469 L 135.6875 91.519531 C 137.339844 90.054688 137.488281 87.5 136.023438 85.847656 C 134.558594 84.191406 132.03125 84.011719 130.351562 85.5 L 127.996094 87.585938 L 125.90625 85.226562 C 124.441406 83.570312 121.886719 83.414062 120.234375 84.878906 C 118.585938 86.339844 118.40625 88.867188 119.898438 90.550781 Z M 74.667969 156.09375 C 73.234375 154.476562 73.382812 152.003906 74.996094 150.574219 C 76.609375 149.144531 79.082031 149.296875 80.515625 150.914062 C 81.945312 152.53125 81.800781 155 80.1875 156.429688 C 78.574219 157.863281 76.101562 157.710938 74.667969 156.09375 Z M 74.085938 166.339844 C 72.652344 164.722656 72.796875 162.253906 74.414062 160.820312 C 76.027344 159.390625 78.496094 159.542969 79.929688 161.160156 C 81.363281 162.777344 81.21875 165.25 79.605469 166.679688 C 77.988281 168.109375 75.519531 167.957031 74.085938 166.339844"/></g></g></g><g clip-path="url(#n)"><g clip-path="url(#o)"><g clip-path="url(#p)"><path fill="#FF4F63" d="M 106.363281 64.152344 C 104.929688 62.535156 105.078125 60.0625 106.691406 58.632812 C 108.304688 57.203125 110.777344 57.355469 112.210938 58.972656 C 113.644531 60.589844 113.496094 63.058594 111.882812 64.492188 C 110.265625 65.921875 107.796875 65.769531 106.363281 64.152344 Z M 86.011719 134.8125 L 104.902344 118.070312 C 107.800781 115.503906 112.246094 115.777344 114.816406 118.679688 C 117.386719 121.582031 117.121094 126.027344 114.226562 128.59375 L 112.492188 130.128906 C 112.386719 130.222656 112.292969 130.324219 112.207031 130.429688 L 111.597656 130.96875 C 106.453125 135.527344 105.988281 143.398438 110.554688 148.550781 C 115.117188 153.703125 122.988281 154.183594 128.128906 149.628906 L 167.269531 114.945312 C 168.378906 113.964844 168.480469 112.226562 167.496094 111.113281 C 166.488281 109.976562 164.800781 109.871094 163.664062 110.878906 L 124.527344 145.558594 C 121.628906 148.125 117.183594 147.855469 114.613281 144.953125 C 112.042969 142.050781 112.304688 137.605469 115.203125 135.039062 L 116.824219 133.597656 C 116.933594 133.503906 117.027344 133.402344 117.113281 133.296875 L 117.832031 132.660156 C 122.972656 128.101562 123.441406 120.234375 118.875 115.082031 C 114.335938 109.957031 106.441406 109.445312 101.296875 114.003906 L 82.40625 130.742188 Z M 105.753906 74.425781 C 104.320312 72.808594 104.464844 70.335938 106.082031 68.90625 C 107.695312 67.472656 110.164062 67.625 111.597656 69.242188 C 113.03125 70.859375 112.886719 73.332031 111.269531 74.761719 C 109.65625 76.195312 107.1875 76.042969 105.753906 74.425781"/></g></g></g><g fill="#FFF"><g><g><path d="M 39.679688 -43.191406 L 17.140625 -43.191406 C 14.835938 -43.191406 12.84375 -42.878906 11.21875 -42.300781 C 9.59375 -41.671875 8.175781 -40.675781 7.179688 -39.367188 C 6.132812 -38.003906 5.347656 -36.324219 4.875 -34.230469 C 4.402344 -32.183594 4.195312 -29.667969 4.195312 -26.785156 L 4.195312 -16.40625 C 4.195312 -13.472656 4.402344 -10.957031 4.875 -8.859375 C 5.347656 -6.8125 6.132812 -5.085938 7.179688 -3.722656 C 8.230469 -2.410156 9.59375 -1.414062 11.21875 -0.839844 C 12.84375 -0.261719 14.835938 0.0507812 17.140625 0.0507812 L 35.066406 0.0507812 C 37.007812 0.0507812 38.527344 -0.734375 39.574219 -2.253906 C 40.570312 -3.722656 41.09375 -6.183594 41.09375 -9.695312 L 41.09375 -23.746094 C 41.09375 -25.738281 39.941406 -26.050781 39.261719 -26.050781 L 20.703125 -26.050781 C 20.285156 -26.050781 19.238281 -25.84375 19.238281 -24.164062 L 19.238281 -20.179688 C 19.238281 -18.449219 20.285156 -18.292969 20.703125 -18.292969 L 33.757812 -18.292969 C 33.757812 -18.292969 33.808594 -10.957031 33.808594 -10.957031 C 33.808594 -9.332031 33.546875 -8.648438 33.335938 -8.335938 C 33.074219 -7.914062 32.65625 -7.757812 32.078125 -7.757812 L 17.402344 -7.757812 C 16.300781 -7.757812 15.359375 -7.863281 14.675781 -8.125 C 13.996094 -8.335938 13.523438 -8.703125 13.105469 -9.277344 C 12.738281 -9.800781 12.421875 -10.589844 12.265625 -11.585938 C 12.054688 -12.632812 11.953125 -13.941406 11.953125 -15.515625 L 11.953125 -27.675781 C 11.953125 -29.25 12.054688 -30.558594 12.265625 -31.609375 C 12.421875 -32.550781 12.738281 -33.335938 13.105469 -33.914062 C 13.523438 -34.4375 13.996094 -34.804688 14.675781 -35.066406 C 15.359375 -35.277344 16.300781 -35.433594 17.402344 -35.433594 L 39.679688 -35.433594 C 40.097656 -35.433594 41.148438 -35.589844 41.148438 -37.269531 L 41.148438 -41.355469 C 41.148438 -42.980469 40.097656 -43.191406 39.679688 -43.191406 Z M 39.679688 -43.191406" transform="translate(182.112 131.099)"/></g></g></g><g fill="#FFF"><g><g><path d="M 32.289062 -38.316406 C 32.183594 -38.578125 32.078125 -38.894531 31.976562 -39.101562 C 31.136719 -41.828125 28.621094 -43.769531 25.738281 -43.769531 C 24.425781 -43.769531 23.167969 -43.402344 22.121094 -42.667969 C 21.804688 -42.511719 21.542969 -42.300781 21.332031 -42.144531 C 20.546875 -41.460938 19.761719 -40.203125 19.027344 -38.316406 L 4.402344 -1.992188 C 4.246094 -1.519531 4.195312 -1.046875 4.296875 -0.734375 C 4.351562 -0.417969 4.613281 0.0507812 5.453125 0.0507812 L 11.21875 0.0507812 C 11.898438 0.0507812 12.421875 -0.367188 12.683594 -1.046875 L 15.671875 -8.542969 L 27.152344 -8.542969 C 27.730469 -8.542969 28.253906 -8.804688 28.515625 -9.277344 C 28.828125 -9.695312 28.882812 -10.273438 28.726562 -10.796875 L 26.835938 -15.464844 C 26.574219 -16.09375 26 -16.511719 25.316406 -16.511719 L 18.816406 -16.511719 L 25.527344 -33.496094 C 25.578125 -33.601562 25.632812 -33.652344 25.632812 -33.652344 L 25.84375 -33.652344 C 25.84375 -33.652344 25.84375 -33.652344 25.894531 -33.546875 L 38.894531 -1.101562 C 39.15625 -0.367188 39.679688 0.0507812 40.414062 0.0507812 L 46.023438 0.0507812 C 46.859375 0.0507812 47.070312 -0.472656 47.175781 -0.734375 C 47.28125 -1.046875 47.226562 -1.519531 47.019531 -1.992188 Z M 32.289062 -38.316406" transform="translate(224.612 131.099)"/></g></g></g><g fill="#FFF"><g><g><path d="M 47.960938 -43.191406 L 43.246094 -43.191406 C 42.511719 -43.191406 41.933594 -43.140625 41.410156 -42.980469 C 40.886719 -42.824219 40.414062 -42.5625 39.996094 -42.195312 C 39.628906 -41.777344 39.261719 -41.304688 38.945312 -40.675781 C 38.632812 -40.046875 38.371094 -39.261719 38.054688 -38.265625 L 28.777344 -15.097656 C 28.726562 -14.886719 28.671875 -14.886719 28.621094 -14.886719 L 28.097656 -14.886719 C 28.097656 -14.886719 27.992188 -14.886719 27.9375 -15.097656 L 18.714844 -38.265625 C 18.398438 -39.261719 18.085938 -40.046875 17.820312 -40.675781 C 17.507812 -41.304688 17.140625 -41.777344 16.773438 -42.195312 C 16.355469 -42.5625 15.832031 -42.824219 15.304688 -42.980469 C 14.78125 -43.140625 14.152344 -43.191406 13.472656 -43.191406 L 8.648438 -43.191406 C 6.867188 -43.191406 5.660156 -42.617188 5.03125 -41.515625 C 4.457031 -40.519531 4.195312 -38.839844 4.195312 -36.429688 L 4.195312 -1.78125 C 4.195312 -0.15625 5.242188 0.0507812 5.714844 0.0507812 L 10.222656 0.0507812 C 10.691406 0.0507812 11.6875 -0.15625 11.6875 -1.78125 L 11.6875 -33.285156 C 11.6875 -33.335938 11.6875 -33.390625 11.6875 -33.390625 L 11.953125 -33.390625 C 12.003906 -33.390625 12.054688 -33.390625 12.109375 -33.234375 L 21.070312 -11.058594 C 21.4375 -9.960938 21.804688 -9.015625 22.171875 -8.230469 C 22.59375 -7.441406 23.011719 -6.8125 23.429688 -6.289062 C 23.953125 -5.765625 24.480469 -5.347656 25.109375 -5.136719 C 25.738281 -4.925781 26.417969 -4.824219 27.203125 -4.824219 L 29.355469 -4.824219 C 30.140625 -4.824219 30.875 -4.925781 31.449219 -5.136719 C 32.078125 -5.347656 32.65625 -5.765625 33.128906 -6.289062 C 33.546875 -6.8125 34.019531 -7.441406 34.386719 -8.230469 C 34.753906 -9.015625 35.121094 -9.960938 35.488281 -11.058594 L 44.503906 -33.285156 C 44.503906 -33.390625 44.554688 -33.390625 44.605469 -33.390625 L 44.871094 -33.390625 C 44.871094 -33.390625 44.871094 -33.335938 44.871094 -33.285156 L 44.871094 -1.78125 C 44.871094 -0.15625 45.917969 0.0507812 46.335938 0.0507812 L 50.84375 0.0507812 C 51.316406 0.0507812 52.363281 -0.15625 52.363281 -1.78125 L 52.363281 -36.429688 C 52.363281 -38.839844 52.101562 -40.519531 51.527344 -41.515625 C 50.898438 -42.617188 49.691406 -43.191406 47.960938 -43.191406 Z M 47.960938 -43.191406" transform="translate(273.244 131.099)"/></g></g></g><g fill="#FFF"><g><g><path d="M 35.695312 -9.382812 L 17.246094 -9.382812 C 16.144531 -9.382812 15.253906 -9.539062 14.519531 -9.75 C 13.839844 -10.011719 13.367188 -10.378906 12.945312 -10.902344 C 12.527344 -11.480469 12.214844 -12.265625 12.054688 -13.261719 C 12.003906 -13.523438 12.003906 -13.890625 11.953125 -14.152344 C 11.953125 -14.152344 12.003906 -17.925781 12.054688 -17.925781 L 35.488281 -17.925781 C 35.90625 -17.925781 36.953125 -18.136719 36.953125 -19.761719 L 36.953125 -23.902344 C 36.953125 -25.527344 35.90625 -25.683594 35.488281 -25.683594 L 8.4375 -25.632812 C 6.917969 -25.527344 5.609375 -24.742188 4.875 -23.429688 C 4.613281 -23.011719 4.402344 -22.59375 4.296875 -22.121094 L 4.195312 -15.515625 L 4.195312 -15.253906 C 4.246094 -12.789062 4.507812 -10.691406 4.875 -8.964844 C 5.347656 -6.867188 6.132812 -5.136719 7.128906 -3.828125 C 8.175781 -2.464844 9.539062 -1.519531 11.21875 -0.945312 C 12.84375 -0.316406 14.78125 -0.0507812 17.089844 -0.0507812 L 35.695312 -0.0507812 C 36.167969 -0.0507812 37.214844 -0.210938 37.214844 -1.835938 L 37.214844 -7.601562 C 37.214844 -9.226562 36.167969 -9.382812 35.695312 -9.382812 Z M 35.75 -43.296875 L 5.609375 -43.296875 C 5.1875 -43.296875 4.195312 -43.085938 4.195312 -41.410156 L 4.195312 -37.320312 C 4.195312 -35.695312 5.1875 -35.539062 5.609375 -35.539062 L 35.75 -35.488281 C 36.167969 -35.488281 37.214844 -35.695312 37.214844 -37.320312 L 37.214844 -41.460938 C 37.214844 -43.085938 36.167969 -43.296875 35.75 -43.296875 Z M 35.75 -43.296875" transform="translate(326.959 131.099)"/></g></g></g><g fill="#7ED957"><g><g><path d="M 47.960938 -43.191406 L 43.246094 -43.191406 C 42.511719 -43.191406 41.933594 -43.140625 41.410156 -42.980469 C 40.886719 -42.824219 40.414062 -42.5625 39.996094 -42.195312 C 39.628906 -41.777344 39.261719 -41.304688 38.945312 -40.675781 C 38.632812 -40.046875 38.371094 -39.261719 38.054688 -38.265625 L 28.777344 -15.097656 C 28.726562 -14.886719 28.671875 -14.886719 28.621094 -14.886719 L 28.097656 -14.886719 C 28.097656 -14.886719 27.992188 -14.886719 27.9375 -15.097656 L 18.714844 -38.265625 C 18.398438 -39.261719 18.085938 -40.046875 17.820312 -40.675781 C 17.507812 -41.304688 17.140625 -41.777344 16.773438 -42.195312 C 16.355469 -42.5625 15.832031 -42.824219 15.304688 -42.980469 C 14.78125 -43.140625 14.152344 -43.191406 13.472656 -43.191406 L 8.648438 -43.191406 C 6.867188 -43.191406 5.660156 -42.617188 5.03125 -41.515625 C 4.457031 -40.519531 4.195312 -38.839844 4.195312 -36.429688 L 4.195312 -1.78125 C 4.195312 -0.15625 5.242188 0.0507812 5.714844 0.0507812 L 10.222656 0.0507812 C 10.691406 0.0507812 11.6875 -0.15625 11.6875 -1.78125 L 11.6875 -33.285156 C 11.6875 -33.335938 11.6875 -33.390625 11.6875 -33.390625 L 11.953125 -33.390625 C 12.003906 -33.390625 12.054688 -33.390625 12.109375 -33.234375 L 21.070312 -11.058594 C 21.4375 -9.960938 21.804688 -9.015625 22.171875 -8.230469 C 22.59375 -7.441406 23.011719 -6.8125 23.429688 -6.289062 C 23.953125 -5.765625 24.480469 -5.347656 25.109375 -5.136719 C 25.738281 -4.925781 26.417969 -4.824219 27.203125 -4.824219 L 29.355469 -4.824219 C 30.140625 -4.824219 30.875 -4.925781 31.449219 -5.136719 C 32.078125 -5.347656 32.65625 -5.765625 33.128906 -6.289062 C 33.546875 -6.8125 34.019531 -7.441406 34.386719 -8.230469 C 34.753906 -9.015625 35.121094 -9.960938 35.488281 -11.058594 L 44.503906 -33.285156 C 44.503906 -33.390625 44.554688 -33.390625 44.605469 -33.390625 L 44.871094 -33.390625 C 44.871094 -33.390625 44.871094 -33.335938 44.871094 -33.285156 L 44.871094 -1.78125 C 44.871094 -0.15625 45.917969 0.0507812 46.335938 0.0507812 L 50.84375 0.0507812 C 51.316406 0.0507812 52.363281 -0.15625 52.363281 -1.78125 L 52.363281 -36.429688 C 52.363281 -38.839844 52.101562 -40.519531 51.527344 -41.515625 C 50.898438 -42.617188 49.691406 -43.191406 47.960938 -43.191406 Z M 47.960938 -43.191406" transform="translate(365.522 131.099)"/></g></g></g><g fill="#7ED957"><g><g><path d="M 32.289062 -38.316406 C 32.183594 -38.578125 32.078125 -38.894531 31.976562 -39.101562 C 31.136719 -41.828125 28.621094 -43.769531 25.738281 -43.769531 C 24.425781 -43.769531 23.167969 -43.402344 22.121094 -42.667969 C 21.804688 -42.511719 21.542969 -42.300781 21.332031 -42.144531 C 20.546875 -41.460938 19.761719 -40.203125 19.027344 -38.316406 L 4.402344 -1.992188 C 4.246094 -1.519531 4.195312 -1.046875 4.296875 -0.734375 C 4.351562 -0.417969 4.613281 0.0507812 5.453125 0.0507812 L 11.21875 0.0507812 C 11.898438 0.0507812 12.421875 -0.367188 12.683594 -1.046875 L 15.671875 -8.542969 L 27.152344 -8.542969 C 27.730469 -8.542969 28.253906 -8.804688 28.515625 -9.277344 C 28.828125 -9.695312 28.882812 -10.273438 28.726562 -10.796875 L 26.835938 -15.464844 C 26.574219 -16.09375 26 -16.511719 25.316406 -16.511719 L 18.816406 -16.511719 L 25.527344 -33.496094 C 25.578125 -33.601562 25.632812 -33.652344 25.632812 -33.652344 L 25.84375 -33.652344 C 25.84375 -33.652344 25.84375 -33.652344 25.894531 -33.546875 L 38.894531 -1.101562 C 39.15625 -0.367188 39.679688 0.0507812 40.414062 0.0507812 L 46.023438 0.0507812 C 46.859375 0.0507812 47.070312 -0.472656 47.175781 -0.734375 C 47.28125 -1.046875 47.226562 -1.519531 47.019531 -1.992188 Z M 32.289062 -38.316406" transform="translate(419.237 131.099)"/></g></g></g><g fill="#7ED957"><g><g><path d="M 41.304688 -43.191406 L 36.640625 -43.191406 C 36.167969 -43.191406 35.171875 -43.035156 35.171875 -41.355469 L 35.171875 -9.855469 C 35.171875 -9.800781 35.171875 -9.800781 35.171875 -9.75 L 34.910156 -9.75 C 34.859375 -9.75 34.804688 -9.75 34.753906 -9.90625 L 18.1875 -39.367188 C 17.769531 -40.152344 17.402344 -40.78125 17.035156 -41.253906 C 16.667969 -41.777344 16.300781 -42.195312 15.933594 -42.457031 C 15.515625 -42.773438 15.042969 -42.980469 14.46875 -43.085938 C 13.941406 -43.140625 13.3125 -43.191406 12.632812 -43.191406 L 8.703125 -43.191406 C 7.179688 -43.191406 6.027344 -42.667969 5.292969 -41.722656 C 4.558594 -40.726562 4.195312 -39 4.195312 -36.429688 L 4.195312 -1.78125 C 4.195312 -0.15625 5.242188 0.0507812 5.714844 0.0507812 L 10.378906 0.0507812 C 10.851562 0.0507812 11.847656 -0.15625 11.847656 -1.78125 L 11.847656 -33.285156 C 11.847656 -33.335938 11.847656 -33.390625 11.847656 -33.390625 L 12.109375 -33.390625 C 12.109375 -33.390625 12.160156 -33.390625 12.265625 -33.234375 L 28.882812 -3.773438 C 29.300781 -2.933594 29.722656 -2.304688 30.085938 -1.835938 C 30.453125 -1.308594 30.820312 -0.945312 31.242188 -0.679688 C 31.660156 -0.367188 32.132812 -0.210938 32.65625 -0.105469 C 33.128906 0 33.703125 0.0507812 34.4375 0.0507812 L 38.265625 0.0507812 C 39.785156 0.0507812 40.9375 -0.472656 41.671875 -1.46875 C 42.40625 -2.410156 42.773438 -4.140625 42.773438 -6.710938 L 42.773438 -41.355469 C 42.773438 -43.035156 41.722656 -43.191406 41.304688 -43.191406 Z M 41.304688 -43.191406" transform="translate(467.869 131.099)"/></g></g></g><g fill="#7ED957"><g><g><path d="M 10.484375 -43.191406 L 5.660156 -43.191406 C 5.242188 -43.191406 4.195312 -42.980469 4.195312 -41.355469 L 4.195312 -1.78125 C 4.195312 -0.15625 5.242188 0.0507812 5.660156 0.0507812 L 10.484375 0.0507812 C 10.902344 0.0507812 11.953125 -0.15625 11.953125 -1.78125 L 11.953125 -41.355469 C 11.953125 -42.980469 10.902344 -43.191406 10.484375 -43.191406 Z M 10.484375 -43.191406" transform="translate(511.994 131.099)"/></g></g></g><g fill="#7ED957"><g><g><path d="M 32.289062 -38.316406 C 32.183594 -38.578125 32.078125 -38.894531 31.976562 -39.101562 C 31.136719 -41.828125 28.621094 -43.769531 25.738281 -43.769531 C 24.425781 -43.769531 23.167969 -43.402344 22.121094 -42.667969 C 21.804688 -42.511719 21.542969 -42.300781 21.332031 -42.144531 C 20.546875 -41.460938 19.761719 -40.203125 19.027344 -38.316406 L 4.402344 -1.992188 C 4.246094 -1.519531 4.195312 -1.046875 4.296875 -0.734375 C 4.351562 -0.417969 4.613281 0.0507812 5.453125 0.0507812 L 11.21875 0.0507812 C 11.898438 0.0507812 12.421875 -0.367188 12.683594 -1.046875 L 15.671875 -8.542969 L 27.152344 -8.542969 C 27.730469 -8.542969 28.253906 -8.804688 28.515625 -9.277344 C 28.828125 -9.695312 28.882812 -10.273438 28.726562 -10.796875 L 26.835938 -15.464844 C 26.574219 -16.09375 26 -16.511719 25.316406 -16.511719 L 18.816406 -16.511719 L 25.527344 -33.496094 C 25.578125 -33.601562 25.632812 -33.652344 25.632812 -33.652344 L 25.84375 -33.652344 C 25.84375 -33.652344 25.84375 -33.652344 25.894531 -33.546875 L 38.894531 -1.101562 C 39.15625 -0.367188 39.679688 0.0507812 40.414062 0.0507812 L 46.023438 0.0507812 C 46.859375 0.0507812 47.070312 -0.472656 47.175781 -0.734375 C 47.28125 -1.046875 47.226562 -1.519531 47.019531 -1.992188 Z M 32.289062 -38.316406" transform="translate(525.304 131.099)"/></g></g></g></svg>