<svg xmlns="http://www.w3.org/2000/svg" width="600" viewBox="0 0 600 150" height="150" version="1.0"><g fill="#FFF"><g><g><path d="M 28.136719 -30.628906 L 12.15625 -30.628906 C 10.519531 -30.628906 9.105469 -30.40625 7.953125 -29.996094 C 6.800781 -29.550781 5.796875 -28.84375 5.09375 -27.914062 C 4.347656 -26.949219 3.792969 -25.757812 3.457031 -24.273438 C 3.121094 -22.824219 2.972656 -21.039062 2.972656 -18.992188 L 2.972656 -11.632812 C 2.972656 -9.554688 3.121094 -7.769531 3.457031 -6.28125 C 3.792969 -4.832031 4.347656 -3.605469 5.09375 -2.640625 C 5.835938 -1.710938 6.800781 -1.003906 7.953125 -0.59375 C 9.105469 -0.1875 10.519531 0.0390625 12.15625 0.0390625 L 24.867188 0.0390625 C 26.242188 0.0390625 27.320312 -0.519531 28.0625 -1.597656 C 28.769531 -2.640625 29.140625 -4.386719 29.140625 -6.875 L 29.140625 -16.839844 C 29.140625 -18.25 28.324219 -18.472656 27.839844 -18.472656 L 14.683594 -18.472656 C 14.386719 -18.472656 13.640625 -18.324219 13.640625 -17.136719 L 13.640625 -14.3125 C 13.640625 -13.082031 14.386719 -12.972656 14.683594 -12.972656 L 23.9375 -12.972656 C 23.9375 -12.972656 23.976562 -7.769531 23.976562 -7.769531 C 23.976562 -6.617188 23.789062 -6.132812 23.640625 -5.910156 C 23.453125 -5.613281 23.15625 -5.5 22.75 -5.5 L 12.339844 -5.5 C 11.558594 -5.5 10.890625 -5.574219 10.40625 -5.761719 C 9.925781 -5.910156 9.589844 -6.171875 9.292969 -6.578125 C 9.03125 -6.949219 8.808594 -7.507812 8.699219 -8.214844 C 8.550781 -8.957031 8.476562 -9.886719 8.476562 -11.003906 L 8.476562 -19.625 C 8.476562 -20.742188 8.550781 -21.671875 8.699219 -22.414062 C 8.808594 -23.082031 9.03125 -23.640625 9.292969 -24.050781 C 9.589844 -24.421875 9.925781 -24.679688 10.40625 -24.867188 C 10.890625 -25.015625 11.558594 -25.128906 12.339844 -25.128906 L 28.136719 -25.128906 C 28.433594 -25.128906 29.179688 -25.238281 29.179688 -26.429688 L 29.179688 -29.328125 C 29.179688 -30.480469 28.433594 -30.628906 28.136719 -30.628906 Z M 28.136719 -30.628906" transform="translate(19.693 69.941)"/></g></g></g><g fill="#FFF"><g><g><path d="M 22.898438 -27.171875 C 22.824219 -27.355469 22.75 -27.582031 22.675781 -27.730469 C 22.078125 -29.660156 20.296875 -31.039062 18.25 -31.039062 C 17.320312 -31.039062 16.429688 -30.777344 15.6875 -30.257812 C 15.460938 -30.144531 15.277344 -29.996094 15.128906 -29.886719 C 14.570312 -29.402344 14.011719 -28.507812 13.492188 -27.171875 L 3.121094 -1.414062 C 3.011719 -1.078125 2.972656 -0.742188 3.046875 -0.519531 C 3.085938 -0.296875 3.269531 0.0390625 3.867188 0.0390625 L 7.953125 0.0390625 C 8.4375 0.0390625 8.808594 -0.261719 8.996094 -0.742188 L 11.113281 -6.058594 L 19.253906 -6.058594 C 19.664062 -6.058594 20.035156 -6.246094 20.21875 -6.578125 C 20.445312 -6.875 20.480469 -7.285156 20.371094 -7.65625 L 19.03125 -10.964844 C 18.84375 -11.410156 18.4375 -11.707031 17.953125 -11.707031 L 13.34375 -11.707031 L 18.101562 -23.75 C 18.140625 -23.824219 18.175781 -23.863281 18.175781 -23.863281 L 18.324219 -23.863281 C 18.324219 -23.863281 18.324219 -23.863281 18.363281 -23.789062 L 27.582031 -0.78125 C 27.765625 -0.261719 28.136719 0.0390625 28.660156 0.0390625 L 32.636719 0.0390625 C 33.230469 0.0390625 33.378906 -0.335938 33.453125 -0.519531 C 33.527344 -0.742188 33.492188 -1.078125 33.339844 -1.414062 Z M 22.898438 -27.171875" transform="translate(49.828 69.941)"/></g></g></g><g fill="#FFF"><g><g><path d="M 34.011719 -30.628906 L 30.664062 -30.628906 C 30.144531 -30.628906 29.734375 -30.589844 29.363281 -30.480469 C 28.992188 -30.367188 28.660156 -30.183594 28.359375 -29.921875 C 28.101562 -29.625 27.839844 -29.289062 27.617188 -28.84375 C 27.394531 -28.398438 27.207031 -27.839844 26.984375 -27.132812 L 20.40625 -10.703125 C 20.371094 -10.554688 20.332031 -10.554688 20.296875 -10.554688 L 19.921875 -10.554688 C 19.921875 -10.554688 19.847656 -10.554688 19.8125 -10.703125 L 13.269531 -27.132812 C 13.046875 -27.839844 12.824219 -28.398438 12.636719 -28.84375 C 12.414062 -29.289062 12.15625 -29.625 11.894531 -29.921875 C 11.597656 -30.183594 11.226562 -30.367188 10.855469 -30.480469 C 10.480469 -30.589844 10.035156 -30.628906 9.554688 -30.628906 L 6.132812 -30.628906 C 4.871094 -30.628906 4.015625 -30.21875 3.566406 -29.4375 C 3.160156 -28.734375 2.972656 -27.542969 2.972656 -25.832031 L 2.972656 -1.265625 C 2.972656 -0.113281 3.71875 0.0390625 4.050781 0.0390625 L 7.25 0.0390625 C 7.582031 0.0390625 8.289062 -0.113281 8.289062 -1.265625 L 8.289062 -23.601562 C 8.289062 -23.640625 8.289062 -23.675781 8.289062 -23.675781 L 8.476562 -23.675781 C 8.511719 -23.675781 8.550781 -23.675781 8.585938 -23.566406 L 14.941406 -7.84375 C 15.203125 -7.0625 15.460938 -6.394531 15.722656 -5.835938 C 16.019531 -5.277344 16.316406 -4.832031 16.613281 -4.460938 C 16.988281 -4.089844 17.359375 -3.792969 17.804688 -3.644531 C 18.25 -3.492188 18.734375 -3.417969 19.292969 -3.417969 L 20.816406 -3.417969 C 21.371094 -3.417969 21.894531 -3.492188 22.300781 -3.644531 C 22.75 -3.792969 23.15625 -4.089844 23.492188 -4.460938 C 23.789062 -4.832031 24.125 -5.277344 24.382812 -5.835938 C 24.644531 -6.394531 24.902344 -7.0625 25.164062 -7.84375 L 31.558594 -23.601562 C 31.558594 -23.675781 31.59375 -23.675781 31.632812 -23.675781 L 31.816406 -23.675781 C 31.816406 -23.675781 31.816406 -23.640625 31.816406 -23.601562 L 31.816406 -1.265625 C 31.816406 -0.113281 32.5625 0.0390625 32.859375 0.0390625 L 36.054688 0.0390625 C 36.390625 0.0390625 37.132812 -0.113281 37.132812 -1.265625 L 37.132812 -25.832031 C 37.132812 -27.542969 36.945312 -28.734375 36.539062 -29.4375 C 36.09375 -30.21875 35.238281 -30.628906 34.011719 -30.628906 Z M 34.011719 -30.628906" transform="translate(84.311 69.941)"/></g></g></g><g fill="#FFF"><g><g><path d="M 25.3125 -6.652344 L 12.230469 -6.652344 C 11.449219 -6.652344 10.816406 -6.765625 10.296875 -6.914062 C 9.8125 -7.097656 9.476562 -7.359375 9.179688 -7.730469 C 8.882812 -8.140625 8.660156 -8.699219 8.550781 -9.402344 C 8.511719 -9.589844 8.511719 -9.851562 8.476562 -10.035156 C 8.476562 -10.035156 8.511719 -12.710938 8.550781 -12.710938 L 25.164062 -12.710938 C 25.460938 -12.710938 26.203125 -12.859375 26.203125 -14.011719 L 26.203125 -16.949219 C 26.203125 -18.101562 25.460938 -18.214844 25.164062 -18.214844 L 5.984375 -18.175781 C 4.90625 -18.101562 3.976562 -17.542969 3.457031 -16.613281 C 3.269531 -16.316406 3.121094 -16.019531 3.046875 -15.6875 L 2.972656 -11.003906 L 2.972656 -10.816406 C 3.011719 -9.070312 3.195312 -7.582031 3.457031 -6.355469 C 3.792969 -4.871094 4.347656 -3.644531 5.054688 -2.714844 C 5.796875 -1.746094 6.765625 -1.078125 7.953125 -0.667969 C 9.105469 -0.222656 10.480469 -0.0390625 12.117188 -0.0390625 L 25.3125 -0.0390625 C 25.648438 -0.0390625 26.390625 -0.148438 26.390625 -1.300781 L 26.390625 -5.390625 C 26.390625 -6.542969 25.648438 -6.652344 25.3125 -6.652344 Z M 25.351562 -30.703125 L 3.976562 -30.703125 C 3.679688 -30.703125 2.972656 -30.554688 2.972656 -29.363281 L 2.972656 -26.464844 C 2.972656 -25.3125 3.679688 -25.203125 3.976562 -25.203125 L 25.351562 -25.164062 C 25.648438 -25.164062 26.390625 -25.3125 26.390625 -26.464844 L 26.390625 -29.402344 C 26.390625 -30.554688 25.648438 -30.703125 25.351562 -30.703125 Z M 25.351562 -30.703125" transform="translate(122.399 69.941)"/></g></g></g><g fill="#7ED957"><g><g><path d="M 34.011719 -30.628906 L 30.664062 -30.628906 C 30.144531 -30.628906 29.734375 -30.589844 29.363281 -30.480469 C 28.992188 -30.367188 28.660156 -30.183594 28.359375 -29.921875 C 28.101562 -29.625 27.839844 -29.289062 27.617188 -28.84375 C 27.394531 -28.398438 27.207031 -27.839844 26.984375 -27.132812 L 20.40625 -10.703125 C 20.371094 -10.554688 20.332031 -10.554688 20.296875 -10.554688 L 19.921875 -10.554688 C 19.921875 -10.554688 19.847656 -10.554688 19.8125 -10.703125 L 13.269531 -27.132812 C 13.046875 -27.839844 12.824219 -28.398438 12.636719 -28.84375 C 12.414062 -29.289062 12.15625 -29.625 11.894531 -29.921875 C 11.597656 -30.183594 11.226562 -30.367188 10.855469 -30.480469 C 10.480469 -30.589844 10.035156 -30.628906 9.554688 -30.628906 L 6.132812 -30.628906 C 4.871094 -30.628906 4.015625 -30.21875 3.566406 -29.4375 C 3.160156 -28.734375 2.972656 -27.542969 2.972656 -25.832031 L 2.972656 -1.265625 C 2.972656 -0.113281 3.71875 0.0390625 4.050781 0.0390625 L 7.25 0.0390625 C 7.582031 0.0390625 8.289062 -0.113281 8.289062 -1.265625 L 8.289062 -23.601562 C 8.289062 -23.640625 8.289062 -23.675781 8.289062 -23.675781 L 8.476562 -23.675781 C 8.511719 -23.675781 8.550781 -23.675781 8.585938 -23.566406 L 14.941406 -7.84375 C 15.203125 -7.0625 15.460938 -6.394531 15.722656 -5.835938 C 16.019531 -5.277344 16.316406 -4.832031 16.613281 -4.460938 C 16.988281 -4.089844 17.359375 -3.792969 17.804688 -3.644531 C 18.25 -3.492188 18.734375 -3.417969 19.292969 -3.417969 L 20.816406 -3.417969 C 21.371094 -3.417969 21.894531 -3.492188 22.300781 -3.644531 C 22.75 -3.792969 23.15625 -4.089844 23.492188 -4.460938 C 23.789062 -4.832031 24.125 -5.277344 24.382812 -5.835938 C 24.644531 -6.394531 24.902344 -7.0625 25.164062 -7.84375 L 31.558594 -23.601562 C 31.558594 -23.675781 31.59375 -23.675781 31.632812 -23.675781 L 31.816406 -23.675781 C 31.816406 -23.675781 31.816406 -23.640625 31.816406 -23.601562 L 31.816406 -1.265625 C 31.816406 -0.113281 32.5625 0.0390625 32.859375 0.0390625 L 36.054688 0.0390625 C 36.390625 0.0390625 37.132812 -0.113281 37.132812 -1.265625 L 37.132812 -25.832031 C 37.132812 -27.542969 36.945312 -28.734375 36.539062 -29.4375 C 36.09375 -30.21875 35.238281 -30.628906 34.011719 -30.628906 Z M 34.011719 -30.628906" transform="translate(149.737 69.941)"/></g></g></g><g fill="#7ED957"><g><g><path d="M 22.898438 -27.171875 C 22.824219 -27.355469 22.75 -27.582031 22.675781 -27.730469 C 22.078125 -29.660156 20.296875 -31.039062 18.25 -31.039062 C 17.320312 -31.039062 16.429688 -30.777344 15.6875 -30.257812 C 15.460938 -30.144531 15.277344 -29.996094 15.128906 -29.886719 C 14.570312 -29.402344 14.011719 -28.507812 13.492188 -27.171875 L 3.121094 -1.414062 C 3.011719 -1.078125 2.972656 -0.742188 3.046875 -0.519531 C 3.085938 -0.296875 3.269531 0.0390625 3.867188 0.0390625 L 7.953125 0.0390625 C 8.4375 0.0390625 8.808594 -0.261719 8.996094 -0.742188 L 11.113281 -6.058594 L 19.253906 -6.058594 C 19.664062 -6.058594 20.035156 -6.246094 20.21875 -6.578125 C 20.445312 -6.875 20.480469 -7.285156 20.371094 -7.65625 L 19.03125 -10.964844 C 18.84375 -11.410156 18.4375 -11.707031 17.953125 -11.707031 L 13.34375 -11.707031 L 18.101562 -23.75 C 18.140625 -23.824219 18.175781 -23.863281 18.175781 -23.863281 L 18.324219 -23.863281 C 18.324219 -23.863281 18.324219 -23.863281 18.363281 -23.789062 L 27.582031 -0.78125 C 27.765625 -0.261719 28.136719 0.0390625 28.660156 0.0390625 L 32.636719 0.0390625 C 33.230469 0.0390625 33.378906 -0.335938 33.453125 -0.519531 C 33.527344 -0.742188 33.492188 -1.078125 33.339844 -1.414062 Z M 22.898438 -27.171875" transform="translate(187.824 69.941)"/></g></g></g><g fill="#7ED957"><g><g><path d="M 29.289062 -30.628906 L 25.980469 -30.628906 C 25.648438 -30.628906 24.941406 -30.515625 24.941406 -29.328125 L 24.941406 -6.988281 C 24.941406 -6.949219 24.941406 -6.949219 24.941406 -6.914062 L 24.753906 -6.914062 C 24.71875 -6.914062 24.679688 -6.914062 24.644531 -7.023438 L 12.898438 -27.914062 C 12.601562 -28.472656 12.339844 -28.917969 12.082031 -29.253906 C 11.820312 -29.625 11.558594 -29.921875 11.300781 -30.109375 C 11.003906 -30.332031 10.667969 -30.480469 10.257812 -30.554688 C 9.886719 -30.589844 9.441406 -30.628906 8.957031 -30.628906 L 6.171875 -30.628906 C 5.09375 -30.628906 4.273438 -30.257812 3.753906 -29.585938 C 3.234375 -28.882812 2.972656 -27.65625 2.972656 -25.832031 L 2.972656 -1.265625 C 2.972656 -0.113281 3.71875 0.0390625 4.050781 0.0390625 L 7.359375 0.0390625 C 7.695312 0.0390625 8.402344 -0.113281 8.402344 -1.265625 L 8.402344 -23.601562 C 8.402344 -23.640625 8.402344 -23.675781 8.402344 -23.675781 L 8.585938 -23.675781 C 8.585938 -23.675781 8.625 -23.675781 8.699219 -23.566406 L 20.480469 -2.675781 C 20.777344 -2.082031 21.074219 -1.636719 21.335938 -1.300781 C 21.597656 -0.929688 21.855469 -0.667969 22.152344 -0.484375 C 22.449219 -0.261719 22.785156 -0.148438 23.15625 -0.0742188 C 23.492188 0 23.902344 0.0390625 24.421875 0.0390625 L 27.132812 0.0390625 C 28.210938 0.0390625 29.03125 -0.335938 29.550781 -1.039062 C 30.070312 -1.710938 30.332031 -2.9375 30.332031 -4.757812 L 30.332031 -29.328125 C 30.332031 -30.515625 29.585938 -30.628906 29.289062 -30.628906 Z M 29.289062 -30.628906" transform="translate(222.307 69.941)"/></g></g></g><g fill="#7ED957"><g><g><path d="M 7.433594 -30.628906 L 4.015625 -30.628906 C 3.71875 -30.628906 2.972656 -30.480469 2.972656 -29.328125 L 2.972656 -1.265625 C 2.972656 -0.113281 3.71875 0.0390625 4.015625 0.0390625 L 7.433594 0.0390625 C 7.730469 0.0390625 8.476562 -0.113281 8.476562 -1.265625 L 8.476562 -29.328125 C 8.476562 -30.480469 7.730469 -30.628906 7.433594 -30.628906 Z M 7.433594 -30.628906" transform="translate(253.594 69.941)"/></g></g></g><g fill="#7ED957"><g><g><path d="M 22.898438 -27.171875 C 22.824219 -27.355469 22.75 -27.582031 22.675781 -27.730469 C 22.078125 -29.660156 20.296875 -31.039062 18.25 -31.039062 C 17.320312 -31.039062 16.429688 -30.777344 15.6875 -30.257812 C 15.460938 -30.144531 15.277344 -29.996094 15.128906 -29.886719 C 14.570312 -29.402344 14.011719 -28.507812 13.492188 -27.171875 L 3.121094 -1.414062 C 3.011719 -1.078125 2.972656 -0.742188 3.046875 -0.519531 C 3.085938 -0.296875 3.269531 0.0390625 3.867188 0.0390625 L 7.953125 0.0390625 C 8.4375 0.0390625 8.808594 -0.261719 8.996094 -0.742188 L 11.113281 -6.058594 L 19.253906 -6.058594 C 19.664062 -6.058594 20.035156 -6.246094 20.21875 -6.578125 C 20.445312 -6.875 20.480469 -7.285156 20.371094 -7.65625 L 19.03125 -10.964844 C 18.84375 -11.410156 18.4375 -11.707031 17.953125 -11.707031 L 13.34375 -11.707031 L 18.101562 -23.75 C 18.140625 -23.824219 18.175781 -23.863281 18.175781 -23.863281 L 18.324219 -23.863281 C 18.324219 -23.863281 18.324219 -23.863281 18.363281 -23.789062 L 27.582031 -0.78125 C 27.765625 -0.261719 28.136719 0.0390625 28.660156 0.0390625 L 32.636719 0.0390625 C 33.230469 0.0390625 33.378906 -0.335938 33.453125 -0.519531 C 33.527344 -0.742188 33.492188 -1.078125 33.339844 -1.414062 Z M 22.898438 -27.171875" transform="translate(263.031 69.941)"/></g></g></g><g fill="#FFF"><g><g><path d="M 12.667969 -13.539062 L 1.789062 -13.539062 C 1.644531 -13.539062 1.3125 -13.488281 1.3125 -12.980469 L 1.3125 -11.699219 C 1.3125 -11.15625 1.644531 -11.105469 1.789062 -11.105469 L 6.011719 -11.105469 L 6.011719 -0.558594 C 6.011719 -0.0507812 6.34375 0 6.472656 0 L 7.984375 0 C 8.132812 0 8.445312 -0.0507812 8.445312 -0.558594 L 8.445312 -11.105469 L 12.667969 -11.105469 C 12.816406 -11.105469 13.144531 -11.15625 13.144531 -11.699219 L 13.144531 -12.980469 C 13.144531 -13.488281 12.816406 -13.539062 12.667969 -13.539062 Z M 12.667969 -13.539062" transform="translate(83.222 96.072)"/></g></g></g><g fill="#FFF"><g><g><path d="M 12.667969 -13.539062 L 11.15625 -13.539062 C 11.007812 -13.539062 10.695312 -13.488281 10.695312 -12.980469 L 10.695312 -4.878906 C 10.695312 -4.386719 10.664062 -3.960938 10.613281 -3.648438 C 10.566406 -3.335938 10.464844 -3.089844 10.351562 -2.90625 C 10.21875 -2.742188 10.070312 -2.628906 9.859375 -2.546875 C 9.644531 -2.480469 9.347656 -2.433594 9.003906 -2.433594 L 5.453125 -2.433594 C 5.109375 -2.433594 4.8125 -2.480469 4.601562 -2.546875 C 4.386719 -2.628906 4.238281 -2.742188 4.109375 -2.90625 C 3.992188 -3.089844 3.894531 -3.335938 3.828125 -3.648438 C 3.777344 -3.960938 3.746094 -4.386719 3.746094 -4.878906 L 3.746094 -12.980469 C 3.746094 -13.488281 3.433594 -13.539062 3.285156 -13.539062 L 1.789062 -13.539062 C 1.644531 -13.539062 1.3125 -13.488281 1.3125 -12.980469 L 1.3125 -5.144531 C 1.3125 -4.222656 1.378906 -3.433594 1.527344 -2.792969 C 1.675781 -2.136719 1.921875 -1.59375 2.25 -1.183594 C 2.5625 -0.753906 3.007812 -0.460938 3.515625 -0.261719 C 4.027344 -0.0820312 4.648438 0 5.371094 0 L 9.070312 0 C 9.792969 0 10.417969 -0.0820312 10.925781 -0.261719 C 11.453125 -0.460938 11.878906 -0.753906 12.207031 -1.183594 C 12.535156 -1.59375 12.765625 -2.136719 12.914062 -2.792969 C 13.0625 -3.433594 13.128906 -4.222656 13.128906 -5.144531 L 13.128906 -12.980469 C 13.128906 -13.488281 12.816406 -13.539062 12.667969 -13.539062 Z M 12.667969 -13.539062" transform="translate(96.792 96.072)"/></g></g></g><g fill="#FFF"><g><g><path d="M 12.535156 -10.484375 C 12.371094 -11.171875 12.09375 -11.746094 11.746094 -12.207031 C 11.386719 -12.652344 10.910156 -12.996094 10.351562 -13.210938 C 9.792969 -13.421875 9.136719 -13.539062 8.363281 -13.539062 L 2.628906 -13.539062 L 2.628906 -13.523438 C 2.152344 -13.488281 1.742188 -13.226562 1.496094 -12.832031 C 1.429688 -12.699219 1.363281 -12.554688 1.332031 -12.421875 L 1.3125 -1.199219 C 1.347656 -1.019531 1.414062 -0.839844 1.496094 -0.691406 C 1.757812 -0.246094 2.234375 0.015625 2.742188 0.015625 L 8.363281 0.015625 C 9.136719 0.015625 9.808594 -0.0976562 10.351562 -0.3125 C 10.910156 -0.527344 11.386719 -0.871094 11.746094 -1.332031 C 12.09375 -1.773438 12.371094 -2.347656 12.535156 -3.039062 C 12.699219 -3.730469 12.78125 -4.550781 12.78125 -5.472656 L 12.78125 -8.050781 C 12.78125 -8.972656 12.699219 -9.792969 12.535156 -10.484375 Z M 3.730469 -2.515625 L 3.730469 -11.007812 C 3.730469 -11.074219 3.746094 -11.105469 3.761719 -11.105469 L 8.3125 -11.105469 C 8.691406 -11.105469 9.019531 -11.058594 9.285156 -10.960938 C 9.546875 -10.859375 9.742188 -10.730469 9.890625 -10.515625 C 10.054688 -10.300781 10.171875 -10.023438 10.234375 -9.675781 C 10.300781 -9.300781 10.351562 -8.839844 10.351562 -8.296875 L 10.351562 -5.226562 C 10.351562 -4.683594 10.300781 -4.222656 10.234375 -3.859375 C 10.171875 -3.5 10.054688 -3.21875 9.890625 -3.007812 C 9.742188 -2.808594 9.546875 -2.660156 9.285156 -2.5625 C 9.019531 -2.464844 8.691406 -2.433594 8.3125 -2.433594 L 3.746094 -2.433594 C 3.746094 -2.433594 3.730469 -2.449219 3.730469 -2.515625 Z M 3.730469 -2.515625" transform="translate(110.345 96.072)"/></g></g></g><g fill="#FFF"><g><g><path d="M 12.503906 -12.339844 C 12.175781 -12.75 11.746094 -13.0625 11.222656 -13.257812 C 10.710938 -13.441406 10.089844 -13.539062 9.367188 -13.539062 L 5.355469 -13.539062 C 4.632812 -13.539062 4.027344 -13.441406 3.515625 -13.257812 C 2.992188 -13.0625 2.5625 -12.75 2.234375 -12.339844 C 1.921875 -11.929688 1.675781 -11.386719 1.527344 -10.730469 C 1.378906 -10.089844 1.3125 -9.316406 1.3125 -8.394531 L 1.3125 -5.144531 C 1.3125 -4.222656 1.378906 -3.433594 1.527344 -2.792969 C 1.675781 -2.136719 1.921875 -1.59375 2.234375 -1.183594 C 2.5625 -0.753906 2.992188 -0.445312 3.515625 -0.261719 C 4.007812 -0.0820312 4.632812 0.015625 5.355469 0.015625 L 9.367188 0.015625 C 10.089844 0.015625 10.710938 -0.0820312 11.222656 -0.261719 C 11.746094 -0.445312 12.175781 -0.753906 12.503906 -1.167969 C 12.832031 -1.59375 13.0625 -2.136719 13.210938 -2.792969 C 13.339844 -3.433594 13.421875 -4.222656 13.421875 -5.144531 L 13.421875 -8.394531 C 13.421875 -9.300781 13.339844 -10.089844 13.210938 -10.730469 C 13.0625 -11.386719 12.832031 -11.929688 12.503906 -12.339844 Z M 10.976562 -8.675781 L 10.976562 -4.847656 C 10.976562 -4.371094 10.960938 -3.960938 10.894531 -3.632812 C 10.84375 -3.335938 10.746094 -3.074219 10.613281 -2.90625 C 10.5 -2.726562 10.335938 -2.613281 10.121094 -2.546875 C 9.90625 -2.464844 9.628906 -2.433594 9.285156 -2.433594 L 5.4375 -2.433594 C 5.09375 -2.433594 4.8125 -2.464844 4.601562 -2.546875 C 4.386719 -2.613281 4.222656 -2.726562 4.109375 -2.90625 C 3.976562 -3.074219 3.894531 -3.335938 3.828125 -3.632812 C 3.777344 -3.960938 3.746094 -4.371094 3.746094 -4.847656 L 3.746094 -8.675781 C 3.746094 -9.152344 3.777344 -9.5625 3.828125 -9.890625 C 3.894531 -10.203125 3.976562 -10.449219 4.109375 -10.628906 C 4.222656 -10.792969 4.386719 -10.910156 4.601562 -10.992188 C 4.8125 -11.058594 5.09375 -11.105469 5.4375 -11.105469 L 9.285156 -11.105469 C 9.628906 -11.105469 9.90625 -11.058594 10.121094 -10.992188 C 10.335938 -10.910156 10.5 -10.792969 10.613281 -10.628906 C 10.746094 -10.449219 10.84375 -10.203125 10.894531 -9.890625 C 10.960938 -9.5625 10.976562 -9.152344 10.976562 -8.675781 Z M 10.976562 -8.675781" transform="translate(123.553 96.072)"/></g></g></g><g fill="#FFF"><g><g><path d="M 9.367188 -13.539062 L 1.773438 -13.539062 C 1.644531 -13.539062 1.3125 -13.488281 1.3125 -12.964844 L 1.3125 -11.664062 C 1.3125 -11.15625 1.644531 -11.105469 1.773438 -11.105469 L 8.9375 -11.105469 C 9.347656 -11.105469 9.644531 -10.992188 9.808594 -10.746094 C 9.988281 -10.5 10.070312 -10.105469 10.070312 -9.5625 C 10.070312 -9.019531 9.988281 -8.625 9.808594 -8.378906 C 9.644531 -8.132812 9.347656 -8.019531 8.9375 -8.019531 L 1.773438 -8.019531 C 1.644531 -8.019531 1.3125 -7.96875 1.3125 -7.460938 L 1.3125 -0.558594 C 1.3125 -0.0507812 1.644531 0.015625 1.773438 0.015625 L 3.285156 0.015625 C 3.417969 0.015625 3.746094 -0.0507812 3.746094 -0.558594 L 3.746094 -5.585938 L 9.367188 -5.601562 C 10.484375 -5.601562 11.289062 -5.949219 11.78125 -6.636719 C 12.273438 -7.328125 12.503906 -8.3125 12.503906 -9.613281 L 12.503906 -9.511719 C 12.503906 -10.828125 12.273438 -11.8125 11.78125 -12.488281 C 11.289062 -13.195312 10.484375 -13.539062 9.367188 -13.539062 Z M 9.367188 -13.539062" transform="translate(144.96 96.072)"/></g></g></g><g fill="#FFF"><g><g><path d="M 10.121094 -12.011719 C 10.089844 -12.09375 10.054688 -12.191406 10.023438 -12.257812 C 9.757812 -13.113281 8.972656 -13.71875 8.066406 -13.71875 C 7.65625 -13.71875 7.261719 -13.605469 6.933594 -13.375 C 6.835938 -13.324219 6.753906 -13.257812 6.6875 -13.210938 C 6.441406 -12.996094 6.195312 -12.601562 5.964844 -12.011719 L 1.378906 -0.625 C 1.332031 -0.476562 1.3125 -0.328125 1.347656 -0.230469 C 1.363281 -0.132812 1.445312 0.015625 1.707031 0.015625 L 3.515625 0.015625 C 3.730469 0.015625 3.894531 -0.113281 3.976562 -0.328125 L 4.914062 -2.679688 L 8.511719 -2.679688 C 8.691406 -2.679688 8.855469 -2.761719 8.9375 -2.90625 C 9.035156 -3.039062 9.054688 -3.21875 9.003906 -3.382812 L 8.414062 -4.847656 C 8.332031 -5.042969 8.148438 -5.175781 7.9375 -5.175781 L 5.898438 -5.175781 L 8 -10.5 C 8.019531 -10.53125 8.035156 -10.546875 8.035156 -10.546875 L 8.101562 -10.546875 C 8.101562 -10.546875 8.101562 -10.546875 8.117188 -10.515625 L 12.191406 -0.34375 C 12.273438 -0.113281 12.4375 0.015625 12.667969 0.015625 L 14.425781 0.015625 C 14.6875 0.015625 14.753906 -0.148438 14.789062 -0.230469 C 14.820312 -0.328125 14.804688 -0.476562 14.738281 -0.625 Z M 10.121094 -12.011719" transform="translate(157.888 96.072)"/></g></g></g><g fill="#FFF"><g><g><path d="M 12.519531 -9.613281 C 12.519531 -9.59375 12.519531 -9.578125 12.519531 -9.5625 C 12.519531 -9.546875 12.519531 -9.53125 12.519531 -9.511719 Z M 12.832031 -0.707031 L 9.957031 -5.636719 C 10.761719 -5.734375 11.386719 -6.078125 11.796875 -6.636719 C 12.257812 -7.3125 12.503906 -8.28125 12.519531 -9.5625 C 12.503906 -10.84375 12.257812 -11.8125 11.796875 -12.488281 C 11.304688 -13.195312 10.484375 -13.539062 9.367188 -13.539062 L 1.789062 -13.539062 C 1.644531 -13.539062 1.3125 -13.488281 1.3125 -12.964844 L 1.3125 -11.664062 C 1.3125 -11.15625 1.644531 -11.105469 1.789062 -11.105469 L 8.9375 -11.105469 C 9.367188 -11.105469 9.644531 -10.992188 9.808594 -10.746094 C 9.988281 -10.5 10.070312 -10.105469 10.070312 -9.5625 C 10.070312 -9.019531 9.988281 -8.625 9.808594 -8.378906 C 9.644531 -8.132812 9.367188 -8.019531 8.9375 -8.019531 L 1.789062 -8.019531 C 1.644531 -8.019531 1.3125 -7.96875 1.3125 -7.460938 L 1.3125 -0.558594 C 1.3125 -0.0507812 1.644531 0.015625 1.789062 0.015625 L 3.285156 0.015625 C 3.433594 0.015625 3.746094 -0.0507812 3.746094 -0.558594 L 3.746094 -5.585938 L 7.214844 -5.585938 L 10.1875 -0.3125 C 10.253906 -0.214844 10.300781 -0.132812 10.367188 -0.0820312 C 10.449219 -0.015625 10.566406 0.015625 10.710938 0.015625 L 12.519531 0.015625 C 12.71875 0.015625 12.863281 -0.113281 12.898438 -0.3125 C 12.914062 -0.476562 12.898438 -0.609375 12.832031 -0.707031 Z M 12.832031 -0.707031" transform="translate(173.134 96.072)"/></g></g></g><g fill="#FFF"><g><g><path d="M 10.121094 -12.011719 C 10.089844 -12.09375 10.054688 -12.191406 10.023438 -12.257812 C 9.757812 -13.113281 8.972656 -13.71875 8.066406 -13.71875 C 7.65625 -13.71875 7.261719 -13.605469 6.933594 -13.375 C 6.835938 -13.324219 6.753906 -13.257812 6.6875 -13.210938 C 6.441406 -12.996094 6.195312 -12.601562 5.964844 -12.011719 L 1.378906 -0.625 C 1.332031 -0.476562 1.3125 -0.328125 1.347656 -0.230469 C 1.363281 -0.132812 1.445312 0.015625 1.707031 0.015625 L 3.515625 0.015625 C 3.730469 0.015625 3.894531 -0.113281 3.976562 -0.328125 L 4.914062 -2.679688 L 8.511719 -2.679688 C 8.691406 -2.679688 8.855469 -2.761719 8.9375 -2.90625 C 9.035156 -3.039062 9.054688 -3.21875 9.003906 -3.382812 L 8.414062 -4.847656 C 8.332031 -5.042969 8.148438 -5.175781 7.9375 -5.175781 L 5.898438 -5.175781 L 8 -10.5 C 8.019531 -10.53125 8.035156 -10.546875 8.035156 -10.546875 L 8.101562 -10.546875 C 8.101562 -10.546875 8.101562 -10.546875 8.117188 -10.515625 L 12.191406 -0.34375 C 12.273438 -0.113281 12.4375 0.015625 12.667969 0.015625 L 14.425781 0.015625 C 14.6875 0.015625 14.753906 -0.148438 14.789062 -0.230469 C 14.820312 -0.328125 14.804688 -0.476562 14.738281 -0.625 Z M 10.121094 -12.011719" transform="translate(186.473 96.072)"/></g></g></g><g fill="#FFF"><g><g><path d="M 9.25 -8.082031 L 4.320312 -8.082031 C 4.074219 -8.082031 3.761719 -8.183594 3.761719 -8.988281 L 3.761719 -10.203125 C 3.761719 -10.5 3.8125 -10.730469 3.894531 -10.894531 C 3.960938 -10.992188 4.058594 -11.105469 4.335938 -11.105469 L 11.023438 -11.105469 C 11.15625 -11.105469 11.484375 -11.15625 11.484375 -11.664062 L 11.484375 -12.980469 C 11.484375 -13.488281 11.15625 -13.539062 11.023438 -13.539062 L 3.941406 -13.539062 C 3.039062 -13.539062 2.382812 -13.242188 1.957031 -12.636719 C 1.527344 -12.042969 1.3125 -11.253906 1.3125 -10.300781 L 1.3125 -9.054688 C 1.3125 -7.917969 1.542969 -7 1.957031 -6.425781 C 2.464844 -5.75 3.21875 -5.652344 3.910156 -5.652344 L 8.839844 -5.652344 C 9.085938 -5.652344 9.414062 -5.554688 9.414062 -4.75 L 9.414062 -3.335938 C 9.414062 -3.039062 9.367188 -2.808594 9.265625 -2.644531 C 9.199219 -2.546875 9.101562 -2.433594 8.824219 -2.433594 L 1.808594 -2.433594 C 1.660156 -2.433594 1.332031 -2.382812 1.332031 -1.875 L 1.332031 -0.558594 C 1.332031 -0.0507812 1.660156 0 1.808594 0 L 9.21875 0 C 10.121094 0 10.792969 -0.3125 11.222656 -0.921875 C 11.632812 -1.511719 11.847656 -2.285156 11.847656 -3.238281 L 11.847656 -4.683594 C 11.847656 -5.75 11.632812 -6.589844 11.207031 -7.179688 C 10.761719 -7.773438 10.105469 -8.082031 9.25 -8.082031 Z M 9.25 -8.082031" transform="translate(209.276 96.072)"/></g></g></g><g fill="#FFF"><g><g><path d="M 12.667969 -13.539062 L 11.15625 -13.539062 C 11.007812 -13.539062 10.695312 -13.488281 10.695312 -12.980469 L 10.695312 -4.878906 C 10.695312 -4.386719 10.664062 -3.960938 10.613281 -3.648438 C 10.566406 -3.335938 10.464844 -3.089844 10.351562 -2.90625 C 10.21875 -2.742188 10.070312 -2.628906 9.859375 -2.546875 C 9.644531 -2.480469 9.347656 -2.433594 9.003906 -2.433594 L 5.453125 -2.433594 C 5.109375 -2.433594 4.8125 -2.480469 4.601562 -2.546875 C 4.386719 -2.628906 4.238281 -2.742188 4.109375 -2.90625 C 3.992188 -3.089844 3.894531 -3.335938 3.828125 -3.648438 C 3.777344 -3.960938 3.746094 -4.386719 3.746094 -4.878906 L 3.746094 -12.980469 C 3.746094 -13.488281 3.433594 -13.539062 3.285156 -13.539062 L 1.789062 -13.539062 C 1.644531 -13.539062 1.3125 -13.488281 1.3125 -12.980469 L 1.3125 -5.144531 C 1.3125 -4.222656 1.378906 -3.433594 1.527344 -2.792969 C 1.675781 -2.136719 1.921875 -1.59375 2.25 -1.183594 C 2.5625 -0.753906 3.007812 -0.460938 3.515625 -0.261719 C 4.027344 -0.0820312 4.648438 0 5.371094 0 L 9.070312 0 C 9.792969 0 10.417969 -0.0820312 10.925781 -0.261719 C 11.453125 -0.460938 11.878906 -0.753906 12.207031 -1.183594 C 12.535156 -1.59375 12.765625 -2.136719 12.914062 -2.792969 C 13.0625 -3.433594 13.128906 -4.222656 13.128906 -5.144531 L 13.128906 -12.980469 C 13.128906 -13.488281 12.816406 -13.539062 12.667969 -13.539062 Z M 12.667969 -13.539062" transform="translate(221.548 96.072)"/></g></g></g><g fill="#FFF"><g><g><path d="M 10.121094 -12.011719 C 10.089844 -12.09375 10.054688 -12.191406 10.023438 -12.257812 C 9.757812 -13.113281 8.972656 -13.71875 8.066406 -13.71875 C 7.65625 -13.71875 7.261719 -13.605469 6.933594 -13.375 C 6.835938 -13.324219 6.753906 -13.257812 6.6875 -13.210938 C 6.441406 -12.996094 6.195312 -12.601562 5.964844 -12.011719 L 1.378906 -0.625 C 1.332031 -0.476562 1.3125 -0.328125 1.347656 -0.230469 C 1.363281 -0.132812 1.445312 0.015625 1.707031 0.015625 L 3.515625 0.015625 C 3.730469 0.015625 3.894531 -0.113281 3.976562 -0.328125 L 4.914062 -2.679688 L 8.511719 -2.679688 C 8.691406 -2.679688 8.855469 -2.761719 8.9375 -2.90625 C 9.035156 -3.039062 9.054688 -3.21875 9.003906 -3.382812 L 8.414062 -4.847656 C 8.332031 -5.042969 8.148438 -5.175781 7.9375 -5.175781 L 5.898438 -5.175781 L 8 -10.5 C 8.019531 -10.53125 8.035156 -10.546875 8.035156 -10.546875 L 8.101562 -10.546875 C 8.101562 -10.546875 8.101562 -10.546875 8.117188 -10.515625 L 12.191406 -0.34375 C 12.273438 -0.113281 12.4375 0.015625 12.667969 0.015625 L 14.425781 0.015625 C 14.6875 0.015625 14.753906 -0.148438 14.789062 -0.230469 C 14.820312 -0.328125 14.804688 -0.476562 14.738281 -0.625 Z M 10.121094 -12.011719" transform="translate(235.101 96.072)"/></g></g></g><g fill="#7ED957"><g><g><path d="M 10.253906 -13.539062 L 4.566406 -13.539062 C 4.417969 -13.539062 4.089844 -13.488281 4.089844 -12.964844 L 4.089844 -11.664062 C 4.089844 -11.15625 4.417969 -11.105469 4.566406 -11.105469 C 4.566406 -11.105469 8.527344 -11.089844 8.527344 -11.074219 L 8.527344 -4.863281 C 8.527344 -4.371094 8.511719 -3.960938 8.445312 -3.632812 C 8.394531 -3.320312 8.3125 -3.074219 8.183594 -2.90625 C 8.066406 -2.726562 7.902344 -2.613281 7.691406 -2.546875 C 7.476562 -2.464844 7.195312 -2.433594 6.851562 -2.433594 L 1.773438 -2.433594 C 1.644531 -2.433594 1.3125 -2.367188 1.3125 -1.855469 L 1.3125 -0.558594 C 1.3125 -0.0507812 1.644531 0.015625 1.773438 0.015625 L 6.917969 0.015625 C 7.640625 0.015625 8.265625 -0.0820312 8.773438 -0.261719 C 9.285156 -0.445312 9.726562 -0.753906 10.054688 -1.167969 C 10.367188 -1.59375 10.613281 -2.136719 10.761719 -2.792969 C 10.894531 -3.433594 10.976562 -4.222656 10.976562 -5.144531 L 10.976562 -12.964844 C 10.976562 -13.175781 10.878906 -13.539062 10.253906 -13.539062 Z M 10.253906 -13.539062" transform="translate(257.9 96.072)"/></g></g></g><g fill="#7ED957"><g><g><path d="M 12.503906 -12.339844 C 12.175781 -12.75 11.746094 -13.0625 11.222656 -13.257812 C 10.710938 -13.441406 10.089844 -13.539062 9.367188 -13.539062 L 5.355469 -13.539062 C 4.632812 -13.539062 4.027344 -13.441406 3.515625 -13.257812 C 2.992188 -13.0625 2.5625 -12.75 2.234375 -12.339844 C 1.921875 -11.929688 1.675781 -11.386719 1.527344 -10.730469 C 1.378906 -10.089844 1.3125 -9.316406 1.3125 -8.394531 L 1.3125 -5.144531 C 1.3125 -4.222656 1.378906 -3.433594 1.527344 -2.792969 C 1.675781 -2.136719 1.921875 -1.59375 2.234375 -1.183594 C 2.5625 -0.753906 2.992188 -0.445312 3.515625 -0.261719 C 4.007812 -0.0820312 4.632812 0.015625 5.355469 0.015625 L 9.367188 0.015625 C 10.089844 0.015625 10.710938 -0.0820312 11.222656 -0.261719 C 11.746094 -0.445312 12.175781 -0.753906 12.503906 -1.167969 C 12.832031 -1.59375 13.0625 -2.136719 13.210938 -2.792969 C 13.339844 -3.433594 13.421875 -4.222656 13.421875 -5.144531 L 13.421875 -8.394531 C 13.421875 -9.300781 13.339844 -10.089844 13.210938 -10.730469 C 13.0625 -11.386719 12.832031 -11.929688 12.503906 -12.339844 Z M 10.976562 -8.675781 L 10.976562 -4.847656 C 10.976562 -4.371094 10.960938 -3.960938 10.894531 -3.632812 C 10.84375 -3.335938 10.746094 -3.074219 10.613281 -2.90625 C 10.5 -2.726562 10.335938 -2.613281 10.121094 -2.546875 C 9.90625 -2.464844 9.628906 -2.433594 9.285156 -2.433594 L 5.4375 -2.433594 C 5.09375 -2.433594 4.8125 -2.464844 4.601562 -2.546875 C 4.386719 -2.613281 4.222656 -2.726562 4.109375 -2.90625 C 3.976562 -3.074219 3.894531 -3.335938 3.828125 -3.632812 C 3.777344 -3.960938 3.746094 -4.371094 3.746094 -4.847656 L 3.746094 -8.675781 C 3.746094 -9.152344 3.777344 -9.5625 3.828125 -9.890625 C 3.894531 -10.203125 3.976562 -10.449219 4.109375 -10.628906 C 4.222656 -10.792969 4.386719 -10.910156 4.601562 -10.992188 C 4.8125 -11.058594 5.09375 -11.105469 5.4375 -11.105469 L 9.285156 -11.105469 C 9.628906 -11.105469 9.90625 -11.058594 10.121094 -10.992188 C 10.335938 -10.910156 10.5 -10.792969 10.613281 -10.628906 C 10.746094 -10.449219 10.84375 -10.203125 10.894531 -9.890625 C 10.960938 -9.5625 10.976562 -9.152344 10.976562 -8.675781 Z M 10.976562 -8.675781" transform="translate(269.3 96.072)"/></g></g></g><g fill="#7ED957"><g><g><path d="M 12.4375 -13.539062 L 5.371094 -13.539062 C 4.648438 -13.539062 4.027344 -13.441406 3.515625 -13.257812 C 3.007812 -13.0625 2.5625 -12.75 2.25 -12.339844 C 1.921875 -11.910156 1.675781 -11.386719 1.527344 -10.730469 C 1.378906 -10.089844 1.3125 -9.300781 1.3125 -8.394531 L 1.3125 -5.144531 C 1.3125 -4.222656 1.378906 -3.433594 1.527344 -2.777344 C 1.675781 -2.136719 1.921875 -1.59375 2.25 -1.167969 C 2.578125 -0.753906 3.007812 -0.445312 3.515625 -0.261719 C 4.027344 -0.0820312 4.648438 0.015625 5.371094 0.015625 L 10.992188 0.015625 C 11.601562 0.015625 12.078125 -0.230469 12.40625 -0.707031 C 12.71875 -1.167969 12.882812 -1.9375 12.882812 -3.039062 L 12.882812 -7.441406 C 12.882812 -8.066406 12.519531 -8.164062 12.304688 -8.164062 L 6.488281 -8.164062 C 6.359375 -8.164062 6.03125 -8.101562 6.03125 -7.574219 L 6.03125 -6.324219 C 6.03125 -5.785156 6.359375 -5.734375 6.488281 -5.734375 L 10.582031 -5.734375 C 10.582031 -5.734375 10.597656 -3.433594 10.597656 -3.433594 C 10.597656 -2.925781 10.515625 -2.710938 10.449219 -2.613281 C 10.367188 -2.480469 10.234375 -2.433594 10.054688 -2.433594 L 5.453125 -2.433594 C 5.109375 -2.433594 4.8125 -2.464844 4.601562 -2.546875 C 4.386719 -2.613281 4.238281 -2.726562 4.109375 -2.90625 C 3.992188 -3.074219 3.894531 -3.320312 3.84375 -3.632812 C 3.777344 -3.960938 3.746094 -4.371094 3.746094 -4.863281 L 3.746094 -8.675781 C 3.746094 -9.167969 3.777344 -9.578125 3.84375 -9.90625 C 3.894531 -10.203125 3.992188 -10.449219 4.109375 -10.628906 C 4.238281 -10.792969 4.386719 -10.910156 4.601562 -10.992188 C 4.8125 -11.058594 5.109375 -11.105469 5.453125 -11.105469 L 12.4375 -11.105469 C 12.570312 -11.105469 12.898438 -11.15625 12.898438 -11.683594 L 12.898438 -12.964844 C 12.898438 -13.472656 12.570312 -13.539062 12.4375 -13.539062 Z M 12.4375 -13.539062" transform="translate(283.15 96.072)"/></g></g></g><g fill="#7ED957"><g><g><path d="M 10.121094 -12.011719 C 10.089844 -12.09375 10.054688 -12.191406 10.023438 -12.257812 C 9.757812 -13.113281 8.972656 -13.71875 8.066406 -13.71875 C 7.65625 -13.71875 7.261719 -13.605469 6.933594 -13.375 C 6.835938 -13.324219 6.753906 -13.257812 6.6875 -13.210938 C 6.441406 -12.996094 6.195312 -12.601562 5.964844 -12.011719 L 1.378906 -0.625 C 1.332031 -0.476562 1.3125 -0.328125 1.347656 -0.230469 C 1.363281 -0.132812 1.445312 0.015625 1.707031 0.015625 L 3.515625 0.015625 C 3.730469 0.015625 3.894531 -0.113281 3.976562 -0.328125 L 4.914062 -2.679688 L 8.511719 -2.679688 C 8.691406 -2.679688 8.855469 -2.761719 8.9375 -2.90625 C 9.035156 -3.039062 9.054688 -3.21875 9.003906 -3.382812 L 8.414062 -4.847656 C 8.332031 -5.042969 8.148438 -5.175781 7.9375 -5.175781 L 5.898438 -5.175781 L 8 -10.5 C 8.019531 -10.53125 8.035156 -10.546875 8.035156 -10.546875 L 8.101562 -10.546875 C 8.101562 -10.546875 8.101562 -10.546875 8.117188 -10.515625 L 12.191406 -0.34375 C 12.273438 -0.113281 12.4375 0.015625 12.667969 0.015625 L 14.425781 0.015625 C 14.6875 0.015625 14.753906 -0.148438 14.789062 -0.230469 C 14.820312 -0.328125 14.804688 -0.476562 14.738281 -0.625 Z M 10.121094 -12.011719" transform="translate(296.473 96.072)"/></g></g></g><g fill="#7ED957"><g><g><path d="M 12.667969 -13.539062 L 1.789062 -13.539062 C 1.644531 -13.539062 1.3125 -13.488281 1.3125 -12.980469 L 1.3125 -11.699219 C 1.3125 -11.15625 1.644531 -11.105469 1.789062 -11.105469 L 6.011719 -11.105469 L 6.011719 -0.558594 C 6.011719 -0.0507812 6.34375 0 6.472656 0 L 7.984375 0 C 8.132812 0 8.445312 -0.0507812 8.445312 -0.558594 L 8.445312 -11.105469 L 12.667969 -11.105469 C 12.816406 -11.105469 13.144531 -11.15625 13.144531 -11.699219 L 13.144531 -12.980469 C 13.144531 -13.488281 12.816406 -13.539062 12.667969 -13.539062 Z M 12.667969 -13.539062" transform="translate(311.718 96.072)"/></g></g></g><g fill="#7ED957"><g><g><path d="M 3.285156 -13.539062 L 1.773438 -13.539062 C 1.644531 -13.539062 1.3125 -13.472656 1.3125 -12.964844 L 1.3125 -0.558594 C 1.3125 -0.0507812 1.644531 0.015625 1.773438 0.015625 L 3.285156 0.015625 C 3.417969 0.015625 3.746094 -0.0507812 3.746094 -0.558594 L 3.746094 -12.964844 C 3.746094 -13.472656 3.417969 -13.539062 3.285156 -13.539062 Z M 3.285156 -13.539062" transform="translate(325.288 96.072)"/></g></g></g><g fill="#7ED957"><g><g><path d="M 12.945312 -13.539062 L 11.484375 -13.539062 C 11.335938 -13.539062 11.023438 -13.488281 11.023438 -12.964844 L 11.023438 -3.089844 C 11.023438 -3.074219 11.023438 -3.074219 11.023438 -3.054688 L 10.941406 -3.054688 C 10.925781 -3.054688 10.910156 -3.054688 10.894531 -3.105469 L 5.703125 -12.339844 C 5.570312 -12.585938 5.453125 -12.78125 5.339844 -12.929688 C 5.226562 -13.09375 5.109375 -13.226562 4.996094 -13.308594 C 4.863281 -13.40625 4.714844 -13.472656 4.535156 -13.503906 C 4.371094 -13.523438 4.171875 -13.539062 3.960938 -13.539062 L 2.726562 -13.539062 C 2.25 -13.539062 1.890625 -13.375 1.660156 -13.078125 C 1.429688 -12.765625 1.3125 -12.222656 1.3125 -11.417969 L 1.3125 -0.558594 C 1.3125 -0.0507812 1.644531 0.015625 1.789062 0.015625 L 3.253906 0.015625 C 3.402344 0.015625 3.714844 -0.0507812 3.714844 -0.558594 L 3.714844 -10.433594 C 3.714844 -10.449219 3.714844 -10.464844 3.714844 -10.464844 L 3.796875 -10.464844 C 3.796875 -10.464844 3.8125 -10.464844 3.84375 -10.417969 L 9.054688 -1.183594 C 9.183594 -0.921875 9.316406 -0.722656 9.429688 -0.574219 C 9.546875 -0.410156 9.660156 -0.296875 9.792969 -0.214844 C 9.925781 -0.113281 10.070312 -0.0664062 10.234375 -0.03125 C 10.382812 0 10.566406 0.015625 10.792969 0.015625 L 11.996094 0.015625 C 12.472656 0.015625 12.832031 -0.148438 13.0625 -0.460938 C 13.292969 -0.753906 13.40625 -1.296875 13.40625 -2.101562 L 13.40625 -12.964844 C 13.40625 -13.488281 13.078125 -13.539062 12.945312 -13.539062 Z M 12.945312 -13.539062" transform="translate(329.46 96.072)"/></g></g></g><g fill="#7ED957"><g><g><path d="M 10.121094 -12.011719 C 10.089844 -12.09375 10.054688 -12.191406 10.023438 -12.257812 C 9.757812 -13.113281 8.972656 -13.71875 8.066406 -13.71875 C 7.65625 -13.71875 7.261719 -13.605469 6.933594 -13.375 C 6.835938 -13.324219 6.753906 -13.257812 6.6875 -13.210938 C 6.441406 -12.996094 6.195312 -12.601562 5.964844 -12.011719 L 1.378906 -0.625 C 1.332031 -0.476562 1.3125 -0.328125 1.347656 -0.230469 C 1.363281 -0.132812 1.445312 0.015625 1.707031 0.015625 L 3.515625 0.015625 C 3.730469 0.015625 3.894531 -0.113281 3.976562 -0.328125 L 4.914062 -2.679688 L 8.511719 -2.679688 C 8.691406 -2.679688 8.855469 -2.761719 8.9375 -2.90625 C 9.035156 -3.039062 9.054688 -3.21875 9.003906 -3.382812 L 8.414062 -4.847656 C 8.332031 -5.042969 8.148438 -5.175781 7.9375 -5.175781 L 5.898438 -5.175781 L 8 -10.5 C 8.019531 -10.53125 8.035156 -10.546875 8.035156 -10.546875 L 8.101562 -10.546875 C 8.101562 -10.546875 8.101562 -10.546875 8.117188 -10.515625 L 12.191406 -0.34375 C 12.273438 -0.113281 12.4375 0.015625 12.667969 0.015625 L 14.425781 0.015625 C 14.6875 0.015625 14.753906 -0.148438 14.789062 -0.230469 C 14.820312 -0.328125 14.804688 -0.476562 14.738281 -0.625 Z M 10.121094 -12.011719" transform="translate(343.293 96.072)"/></g></g></g><g fill="#7ED957"><g><g><path d="M 12.945312 -13.539062 L 11.484375 -13.539062 C 11.335938 -13.539062 11.023438 -13.488281 11.023438 -12.964844 L 11.023438 -3.089844 C 11.023438 -3.074219 11.023438 -3.074219 11.023438 -3.054688 L 10.941406 -3.054688 C 10.925781 -3.054688 10.910156 -3.054688 10.894531 -3.105469 L 5.703125 -12.339844 C 5.570312 -12.585938 5.453125 -12.78125 5.339844 -12.929688 C 5.226562 -13.09375 5.109375 -13.226562 4.996094 -13.308594 C 4.863281 -13.40625 4.714844 -13.472656 4.535156 -13.503906 C 4.371094 -13.523438 4.171875 -13.539062 3.960938 -13.539062 L 2.726562 -13.539062 C 2.25 -13.539062 1.890625 -13.375 1.660156 -13.078125 C 1.429688 -12.765625 1.3125 -12.222656 1.3125 -11.417969 L 1.3125 -0.558594 C 1.3125 -0.0507812 1.644531 0.015625 1.789062 0.015625 L 3.253906 0.015625 C 3.402344 0.015625 3.714844 -0.0507812 3.714844 -0.558594 L 3.714844 -10.433594 C 3.714844 -10.449219 3.714844 -10.464844 3.714844 -10.464844 L 3.796875 -10.464844 C 3.796875 -10.464844 3.8125 -10.464844 3.84375 -10.417969 L 9.054688 -1.183594 C 9.183594 -0.921875 9.316406 -0.722656 9.429688 -0.574219 C 9.546875 -0.410156 9.660156 -0.296875 9.792969 -0.214844 C 9.925781 -0.113281 10.070312 -0.0664062 10.234375 -0.03125 C 10.382812 0 10.566406 0.015625 10.792969 0.015625 L 11.996094 0.015625 C 12.472656 0.015625 12.832031 -0.148438 13.0625 -0.460938 C 13.292969 -0.753906 13.40625 -1.296875 13.40625 -2.101562 L 13.40625 -12.964844 C 13.40625 -13.488281 13.078125 -13.539062 12.945312 -13.539062 Z M 12.945312 -13.539062" transform="translate(366.095 96.072)"/></g></g></g><g fill="#7ED957"><g><g><path d="M 10.136719 -12.027344 C 10.089844 -12.109375 10.054688 -12.207031 10.023438 -12.273438 C 9.777344 -13.128906 8.972656 -13.734375 8.066406 -13.734375 C 7.65625 -13.734375 7.261719 -13.621094 6.933594 -13.390625 C 6.835938 -13.339844 6.753906 -13.277344 6.6875 -13.226562 C 6.441406 -13.011719 6.210938 -12.617188 5.964844 -12.027344 L 1.378906 -0.640625 C 1.332031 -0.476562 1.3125 -0.34375 1.347656 -0.230469 C 1.363281 -0.148438 1.445312 0 1.707031 0 L 3.515625 0 C 3.730469 0 3.894531 -0.113281 3.976562 -0.34375 L 4.914062 -2.695312 L 8.527344 -2.695312 C 8.691406 -2.695312 8.855469 -2.777344 8.953125 -2.90625 C 9.054688 -3.054688 9.070312 -3.238281 9.003906 -3.402344 L 8.414062 -4.863281 C 8.332031 -5.0625 8.148438 -5.191406 7.9375 -5.191406 L 5.898438 -5.191406 L 8.019531 -10.515625 C 8.019531 -10.546875 8.035156 -10.566406 8.035156 -10.566406 L 8.101562 -10.566406 C 8.101562 -10.566406 8.117188 -10.546875 8.117188 -10.53125 L 12.207031 -0.34375 C 12.273438 -0.113281 12.453125 0 12.667969 0 L 14.441406 0 C 14.6875 0 14.769531 -0.164062 14.789062 -0.230469 C 14.820312 -0.34375 14.804688 -0.476562 14.753906 -0.640625 Z M 11.550781 -17.710938 C 11.484375 -17.792969 11.371094 -17.84375 11.238281 -17.84375 C 11.105469 -17.84375 11.007812 -17.792969 10.925781 -17.726562 C 10.910156 -17.726562 10.910156 -17.710938 10.894531 -17.710938 C 10.84375 -17.664062 10.761719 -17.597656 10.664062 -17.5 C 10.464844 -17.285156 10.269531 -17.152344 10.121094 -17.070312 C 9.957031 -17.003906 9.792969 -16.972656 9.59375 -16.972656 C 9.300781 -16.972656 9.054688 -17.003906 8.824219 -17.105469 C 8.578125 -17.203125 8.363281 -17.300781 8.164062 -17.433594 C 8.019531 -17.53125 7.871094 -17.628906 7.722656 -17.710938 C 7.574219 -17.792969 7.410156 -17.875 7.246094 -17.957031 C 6.902344 -18.121094 6.488281 -18.203125 6.03125 -18.203125 C 5.71875 -18.203125 5.40625 -18.15625 5.109375 -18.039062 C 4.863281 -17.941406 4.667969 -17.84375 4.519531 -17.710938 C 4.46875 -17.679688 4.417969 -17.644531 4.371094 -17.597656 C 4.289062 -17.515625 4.222656 -17.417969 4.171875 -17.335938 C 4.125 -17.21875 4.109375 -17.105469 4.109375 -16.941406 L 4.109375 -16.003906 C 4.109375 -15.722656 4.253906 -15.558594 4.519531 -15.558594 C 4.648438 -15.558594 4.75 -15.59375 4.832031 -15.660156 C 4.894531 -15.707031 4.960938 -15.789062 5.078125 -15.886719 C 5.289062 -16.117188 5.472656 -16.25 5.636719 -16.316406 C 5.800781 -16.398438 5.964844 -16.429688 6.160156 -16.429688 C 6.441406 -16.429688 6.703125 -16.382812 6.933594 -16.28125 C 7.179688 -16.199219 7.394531 -16.085938 7.589844 -15.953125 C 7.871094 -15.773438 8.164062 -15.59375 8.511719 -15.445312 C 8.855469 -15.28125 9.25 -15.199219 9.710938 -15.199219 C 10.023438 -15.199219 10.335938 -15.265625 10.628906 -15.378906 C 10.941406 -15.476562 11.171875 -15.625 11.371094 -15.789062 C 11.453125 -15.871094 11.519531 -15.96875 11.566406 -16.050781 C 11.632812 -16.167969 11.648438 -16.300781 11.648438 -16.464844 L 11.648438 -17.398438 C 11.648438 -17.53125 11.617188 -17.644531 11.550781 -17.710938 Z M 11.550781 -17.710938" transform="translate(379.928 96.072)"/></g></g></g><g fill="#7ED957"><g><g><path d="M 12.503906 -12.339844 C 12.175781 -12.75 11.746094 -13.0625 11.222656 -13.257812 C 10.710938 -13.441406 10.089844 -13.539062 9.367188 -13.539062 L 5.355469 -13.539062 C 4.632812 -13.539062 4.027344 -13.441406 3.515625 -13.257812 C 2.992188 -13.0625 2.5625 -12.75 2.234375 -12.339844 C 1.921875 -11.929688 1.675781 -11.386719 1.527344 -10.730469 C 1.378906 -10.089844 1.3125 -9.316406 1.3125 -8.394531 L 1.3125 -5.144531 C 1.3125 -4.222656 1.378906 -3.433594 1.527344 -2.792969 C 1.675781 -2.136719 1.921875 -1.59375 2.234375 -1.183594 C 2.5625 -0.753906 2.992188 -0.445312 3.515625 -0.261719 C 4.007812 -0.0820312 4.632812 0.015625 5.355469 0.015625 L 9.367188 0.015625 C 10.089844 0.015625 10.710938 -0.0820312 11.222656 -0.261719 C 11.746094 -0.445312 12.175781 -0.753906 12.503906 -1.167969 C 12.832031 -1.59375 13.0625 -2.136719 13.210938 -2.792969 C 13.339844 -3.433594 13.421875 -4.222656 13.421875 -5.144531 L 13.421875 -8.394531 C 13.421875 -9.300781 13.339844 -10.089844 13.210938 -10.730469 C 13.0625 -11.386719 12.832031 -11.929688 12.503906 -12.339844 Z M 10.976562 -8.675781 L 10.976562 -4.847656 C 10.976562 -4.371094 10.960938 -3.960938 10.894531 -3.632812 C 10.84375 -3.335938 10.746094 -3.074219 10.613281 -2.90625 C 10.5 -2.726562 10.335938 -2.613281 10.121094 -2.546875 C 9.90625 -2.464844 9.628906 -2.433594 9.285156 -2.433594 L 5.4375 -2.433594 C 5.09375 -2.433594 4.8125 -2.464844 4.601562 -2.546875 C 4.386719 -2.613281 4.222656 -2.726562 4.109375 -2.90625 C 3.976562 -3.074219 3.894531 -3.335938 3.828125 -3.632812 C 3.777344 -3.960938 3.746094 -4.371094 3.746094 -4.847656 L 3.746094 -8.675781 C 3.746094 -9.152344 3.777344 -9.5625 3.828125 -9.890625 C 3.894531 -10.203125 3.976562 -10.449219 4.109375 -10.628906 C 4.222656 -10.792969 4.386719 -10.910156 4.601562 -10.992188 C 4.8125 -11.058594 5.09375 -11.105469 5.4375 -11.105469 L 9.285156 -11.105469 C 9.628906 -11.105469 9.90625 -11.058594 10.121094 -10.992188 C 10.335938 -10.910156 10.5 -10.792969 10.613281 -10.628906 C 10.746094 -10.449219 10.84375 -10.203125 10.894531 -9.890625 C 10.960938 -9.5625 10.976562 -9.152344 10.976562 -8.675781 Z M 10.976562 -8.675781" transform="translate(395.174 96.072)"/></g></g></g><g fill="#7ED957"><g><g><path d="M 10.121094 -12.011719 C 10.089844 -12.09375 10.054688 -12.191406 10.023438 -12.257812 C 9.757812 -13.113281 8.972656 -13.71875 8.066406 -13.71875 C 7.65625 -13.71875 7.261719 -13.605469 6.933594 -13.375 C 6.835938 -13.324219 6.753906 -13.257812 6.6875 -13.210938 C 6.441406 -12.996094 6.195312 -12.601562 5.964844 -12.011719 L 1.378906 -0.625 C 1.332031 -0.476562 1.3125 -0.328125 1.347656 -0.230469 C 1.363281 -0.132812 1.445312 0.015625 1.707031 0.015625 L 3.515625 0.015625 C 3.730469 0.015625 3.894531 -0.113281 3.976562 -0.328125 L 4.914062 -2.679688 L 8.511719 -2.679688 C 8.691406 -2.679688 8.855469 -2.761719 8.9375 -2.90625 C 9.035156 -3.039062 9.054688 -3.21875 9.003906 -3.382812 L 8.414062 -4.847656 C 8.332031 -5.042969 8.148438 -5.175781 7.9375 -5.175781 L 5.898438 -5.175781 L 8 -10.5 C 8.019531 -10.53125 8.035156 -10.546875 8.035156 -10.546875 L 8.101562 -10.546875 C 8.101562 -10.546875 8.101562 -10.546875 8.117188 -10.515625 L 12.191406 -0.34375 C 12.273438 -0.113281 12.4375 0.015625 12.667969 0.015625 L 14.425781 0.015625 C 14.6875 0.015625 14.753906 -0.148438 14.789062 -0.230469 C 14.820312 -0.328125 14.804688 -0.476562 14.738281 -0.625 Z M 10.121094 -12.011719" transform="translate(416.58 96.072)"/></g></g></g><g fill="#7ED957"><g><g><path d="M 11.351562 -13.539062 L 5.371094 -13.539062 C 4.648438 -13.539062 4.027344 -13.441406 3.515625 -13.257812 C 2.992188 -13.0625 2.5625 -12.75 2.25 -12.339844 C 1.921875 -11.929688 1.675781 -11.386719 1.527344 -10.730469 C 1.378906 -10.089844 1.3125 -9.300781 1.3125 -8.394531 L 1.3125 -5.144531 C 1.3125 -4.222656 1.378906 -3.433594 1.527344 -2.777344 C 1.675781 -2.136719 1.921875 -1.59375 2.25 -1.167969 C 2.578125 -0.753906 3.007812 -0.445312 3.515625 -0.261719 C 4.027344 -0.0820312 4.648438 0.015625 5.371094 0.015625 L 11.351562 0.015625 C 11.484375 0.015625 11.8125 -0.0507812 11.8125 -0.558594 L 11.8125 -1.855469 C 11.8125 -2.367188 11.484375 -2.433594 11.351562 -2.433594 L 5.453125 -2.433594 C 5.109375 -2.433594 4.8125 -2.464844 4.601562 -2.546875 C 4.386719 -2.613281 4.238281 -2.726562 4.109375 -2.90625 C 3.976562 -3.074219 3.894531 -3.320312 3.828125 -3.632812 C 3.777344 -3.960938 3.746094 -4.371094 3.746094 -4.863281 L 3.746094 -8.691406 C 3.746094 -9.183594 3.777344 -9.59375 3.828125 -9.90625 C 3.894531 -10.21875 3.976562 -10.449219 4.109375 -10.628906 C 4.238281 -10.8125 4.386719 -10.925781 4.601562 -10.992188 C 4.8125 -11.074219 5.109375 -11.105469 5.453125 -11.105469 L 11.351562 -11.105469 C 11.484375 -11.105469 11.8125 -11.171875 11.8125 -11.699219 L 11.8125 -12.964844 C 11.8125 -13.472656 11.484375 -13.539062 11.351562 -13.539062 Z M 11.351562 -13.539062" transform="translate(431.825 96.072)"/></g></g></g><g fill="#7ED957"><g><g><path d="M 10.121094 -12.011719 C 10.089844 -12.09375 10.054688 -12.191406 10.023438 -12.257812 C 9.757812 -13.113281 8.972656 -13.71875 8.066406 -13.71875 C 7.65625 -13.71875 7.261719 -13.605469 6.933594 -13.375 C 6.835938 -13.324219 6.753906 -13.257812 6.6875 -13.210938 C 6.441406 -12.996094 6.195312 -12.601562 5.964844 -12.011719 L 1.378906 -0.625 C 1.332031 -0.476562 1.3125 -0.328125 1.347656 -0.230469 C 1.363281 -0.132812 1.445312 0.015625 1.707031 0.015625 L 3.515625 0.015625 C 3.730469 0.015625 3.894531 -0.113281 3.976562 -0.328125 L 4.914062 -2.679688 L 8.511719 -2.679688 C 8.691406 -2.679688 8.855469 -2.761719 8.9375 -2.90625 C 9.035156 -3.039062 9.054688 -3.21875 9.003906 -3.382812 L 8.414062 -4.847656 C 8.332031 -5.042969 8.148438 -5.175781 7.9375 -5.175781 L 5.898438 -5.175781 L 8 -10.5 C 8.019531 -10.53125 8.035156 -10.546875 8.035156 -10.546875 L 8.101562 -10.546875 C 8.101562 -10.546875 8.101562 -10.546875 8.117188 -10.515625 L 12.191406 -0.34375 C 12.273438 -0.113281 12.4375 0.015625 12.667969 0.015625 L 14.425781 0.015625 C 14.6875 0.015625 14.753906 -0.148438 14.789062 -0.230469 C 14.820312 -0.328125 14.804688 -0.476562 14.738281 -0.625 Z M 10.121094 -12.011719" transform="translate(444.064 96.072)"/></g></g></g><g fill="#7ED957"><g><g><path d="M 12.683594 -9.347656 L 12.683594 -10.269531 C 12.683594 -11.335938 12.472656 -12.160156 12.042969 -12.699219 C 11.617188 -13.257812 10.894531 -13.539062 9.890625 -13.539062 L 2.628906 -13.539062 L 2.628906 -13.523438 C 2.152344 -13.488281 1.742188 -13.226562 1.496094 -12.832031 C 1.429688 -12.699219 1.363281 -12.554688 1.332031 -12.421875 L 1.3125 -1.199219 C 1.347656 -1.019531 1.414062 -0.839844 1.496094 -0.691406 C 1.757812 -0.246094 2.234375 0.015625 2.742188 0.015625 L 10.136719 0.015625 C 10.628906 0.015625 11.042969 -0.0664062 11.371094 -0.230469 C 11.714844 -0.394531 11.996094 -0.625 12.191406 -0.9375 C 12.40625 -1.230469 12.535156 -1.59375 12.636719 -2.019531 C 12.71875 -2.433594 12.765625 -2.90625 12.765625 -3.417969 L 12.765625 -4.519531 C 12.765625 -5.601562 12.453125 -6.425781 11.863281 -6.964844 C 12.421875 -7.523438 12.683594 -8.332031 12.683594 -9.347656 Z M 3.730469 -2.515625 L 3.730469 -11.007812 C 3.730469 -11.074219 3.746094 -11.105469 3.761719 -11.105469 L 9.464844 -11.105469 C 9.777344 -11.105469 10.007812 -11.023438 10.136719 -10.878906 C 10.269531 -10.730469 10.335938 -10.464844 10.335938 -10.121094 L 10.335938 -8.988281 C 10.335938 -8.675781 10.269531 -8.429688 10.121094 -8.265625 C 9.988281 -8.117188 9.710938 -8.035156 9.285156 -8.035156 L 6.097656 -8.035156 C 5.800781 -8.035156 5.554688 -7.789062 5.554688 -7.492188 L 5.554688 -6.144531 C 5.554688 -5.832031 5.800781 -5.601562 6.097656 -5.601562 L 9.285156 -5.601562 C 9.710938 -5.601562 9.988281 -5.503906 10.136719 -5.339844 C 10.269531 -5.175781 10.351562 -4.914062 10.351562 -4.550781 L 10.351562 -3.433594 C 10.351562 -3.054688 10.285156 -2.792969 10.152344 -2.644531 C 10.023438 -2.496094 9.792969 -2.433594 9.464844 -2.433594 L 3.746094 -2.433594 C 3.746094 -2.433594 3.730469 -2.449219 3.730469 -2.515625 Z M 3.730469 -2.515625" transform="translate(459.31 96.072)"/></g></g></g><g fill="#7ED957"><g><g><path d="M 10.121094 -12.011719 C 10.089844 -12.09375 10.054688 -12.191406 10.023438 -12.257812 C 9.757812 -13.113281 8.972656 -13.71875 8.066406 -13.71875 C 7.65625 -13.71875 7.261719 -13.605469 6.933594 -13.375 C 6.835938 -13.324219 6.753906 -13.257812 6.6875 -13.210938 C 6.441406 -12.996094 6.195312 -12.601562 5.964844 -12.011719 L 1.378906 -0.625 C 1.332031 -0.476562 1.3125 -0.328125 1.347656 -0.230469 C 1.363281 -0.132812 1.445312 0.015625 1.707031 0.015625 L 3.515625 0.015625 C 3.730469 0.015625 3.894531 -0.113281 3.976562 -0.328125 L 4.914062 -2.679688 L 8.511719 -2.679688 C 8.691406 -2.679688 8.855469 -2.761719 8.9375 -2.90625 C 9.035156 -3.039062 9.054688 -3.21875 9.003906 -3.382812 L 8.414062 -4.847656 C 8.332031 -5.042969 8.148438 -5.175781 7.9375 -5.175781 L 5.898438 -5.175781 L 8 -10.5 C 8.019531 -10.53125 8.035156 -10.546875 8.035156 -10.546875 L 8.101562 -10.546875 C 8.101562 -10.546875 8.101562 -10.546875 8.117188 -10.515625 L 12.191406 -0.34375 C 12.273438 -0.113281 12.4375 0.015625 12.667969 0.015625 L 14.425781 0.015625 C 14.6875 0.015625 14.753906 -0.148438 14.789062 -0.230469 C 14.820312 -0.328125 14.804688 -0.476562 14.738281 -0.625 Z M 10.121094 -12.011719" transform="translate(472.501 96.072)"/></g></g></g><g fill="#7ED957"><g><g><path d="M 12.519531 -9.613281 C 12.519531 -9.59375 12.519531 -9.578125 12.519531 -9.5625 C 12.519531 -9.546875 12.519531 -9.53125 12.519531 -9.511719 Z M 12.832031 -0.707031 L 9.957031 -5.636719 C 10.761719 -5.734375 11.386719 -6.078125 11.796875 -6.636719 C 12.257812 -7.3125 12.503906 -8.28125 12.519531 -9.5625 C 12.503906 -10.84375 12.257812 -11.8125 11.796875 -12.488281 C 11.304688 -13.195312 10.484375 -13.539062 9.367188 -13.539062 L 1.789062 -13.539062 C 1.644531 -13.539062 1.3125 -13.488281 1.3125 -12.964844 L 1.3125 -11.664062 C 1.3125 -11.15625 1.644531 -11.105469 1.789062 -11.105469 L 8.9375 -11.105469 C 9.367188 -11.105469 9.644531 -10.992188 9.808594 -10.746094 C 9.988281 -10.5 10.070312 -10.105469 10.070312 -9.5625 C 10.070312 -9.019531 9.988281 -8.625 9.808594 -8.378906 C 9.644531 -8.132812 9.367188 -8.019531 8.9375 -8.019531 L 1.789062 -8.019531 C 1.644531 -8.019531 1.3125 -7.96875 1.3125 -7.460938 L 1.3125 -0.558594 C 1.3125 -0.0507812 1.644531 0.015625 1.789062 0.015625 L 3.285156 0.015625 C 3.433594 0.015625 3.746094 -0.0507812 3.746094 -0.558594 L 3.746094 -5.585938 L 7.214844 -5.585938 L 10.1875 -0.3125 C 10.253906 -0.214844 10.300781 -0.132812 10.367188 -0.0820312 C 10.449219 -0.015625 10.566406 0.015625 10.710938 0.015625 L 12.519531 0.015625 C 12.71875 0.015625 12.863281 -0.113281 12.898438 -0.3125 C 12.914062 -0.476562 12.898438 -0.609375 12.832031 -0.707031 Z M 12.832031 -0.707031" transform="translate(487.747 96.072)"/></g></g></g><g fill="#7ED957"><g><g><path d="M 12.945312 -13.539062 L 11.484375 -13.539062 C 11.335938 -13.539062 11.023438 -13.488281 11.023438 -12.964844 L 11.023438 -3.089844 C 11.023438 -3.074219 11.023438 -3.074219 11.023438 -3.054688 L 10.941406 -3.054688 C 10.925781 -3.054688 10.910156 -3.054688 10.894531 -3.105469 L 5.703125 -12.339844 C 5.570312 -12.585938 5.453125 -12.78125 5.339844 -12.929688 C 5.226562 -13.09375 5.109375 -13.226562 4.996094 -13.308594 C 4.863281 -13.40625 4.714844 -13.472656 4.535156 -13.503906 C 4.371094 -13.523438 4.171875 -13.539062 3.960938 -13.539062 L 2.726562 -13.539062 C 2.25 -13.539062 1.890625 -13.375 1.660156 -13.078125 C 1.429688 -12.765625 1.3125 -12.222656 1.3125 -11.417969 L 1.3125 -0.558594 C 1.3125 -0.0507812 1.644531 0.015625 1.789062 0.015625 L 3.253906 0.015625 C 3.402344 0.015625 3.714844 -0.0507812 3.714844 -0.558594 L 3.714844 -10.433594 C 3.714844 -10.449219 3.714844 -10.464844 3.714844 -10.464844 L 3.796875 -10.464844 C 3.796875 -10.464844 3.8125 -10.464844 3.84375 -10.417969 L 9.054688 -1.183594 C 9.183594 -0.921875 9.316406 -0.722656 9.429688 -0.574219 C 9.546875 -0.410156 9.660156 -0.296875 9.792969 -0.214844 C 9.925781 -0.113281 10.070312 -0.0664062 10.234375 -0.03125 C 10.382812 0 10.566406 0.015625 10.792969 0.015625 L 11.996094 0.015625 C 12.472656 0.015625 12.832031 -0.148438 13.0625 -0.460938 C 13.292969 -0.753906 13.40625 -1.296875 13.40625 -2.101562 L 13.40625 -12.964844 C 13.40625 -13.488281 13.078125 -13.539062 12.945312 -13.539062 Z M 12.945312 -13.539062" transform="translate(508.644 96.072)"/></g></g></g><g fill="#7ED957"><g><g><path d="M 12.667969 -13.539062 L 11.15625 -13.539062 C 11.007812 -13.539062 10.695312 -13.488281 10.695312 -12.980469 L 10.695312 -4.878906 C 10.695312 -4.386719 10.664062 -3.960938 10.613281 -3.648438 C 10.566406 -3.335938 10.464844 -3.089844 10.351562 -2.90625 C 10.21875 -2.742188 10.070312 -2.628906 9.859375 -2.546875 C 9.644531 -2.480469 9.347656 -2.433594 9.003906 -2.433594 L 5.453125 -2.433594 C 5.109375 -2.433594 4.8125 -2.480469 4.601562 -2.546875 C 4.386719 -2.628906 4.238281 -2.742188 4.109375 -2.90625 C 3.992188 -3.089844 3.894531 -3.335938 3.828125 -3.648438 C 3.777344 -3.960938 3.746094 -4.386719 3.746094 -4.878906 L 3.746094 -12.980469 C 3.746094 -13.488281 3.433594 -13.539062 3.285156 -13.539062 L 1.789062 -13.539062 C 1.644531 -13.539062 1.3125 -13.488281 1.3125 -12.980469 L 1.3125 -5.144531 C 1.3125 -4.222656 1.378906 -3.433594 1.527344 -2.792969 C 1.675781 -2.136719 1.921875 -1.59375 2.25 -1.183594 C 2.5625 -0.753906 3.007812 -0.460938 3.515625 -0.261719 C 4.027344 -0.0820312 4.648438 0 5.371094 0 L 9.070312 0 C 9.792969 0 10.417969 -0.0820312 10.925781 -0.261719 C 11.453125 -0.460938 11.878906 -0.753906 12.207031 -1.183594 C 12.535156 -1.59375 12.765625 -2.136719 12.914062 -2.792969 C 13.0625 -3.433594 13.128906 -4.222656 13.128906 -5.144531 L 13.128906 -12.980469 C 13.128906 -13.488281 12.816406 -13.539062 12.667969 -13.539062 Z M 12.667969 -13.539062" transform="translate(522.476 96.072)"/></g></g></g><g fill="#7ED957"><g><g><path d="M 12.945312 -13.539062 L 11.484375 -13.539062 C 11.335938 -13.539062 11.023438 -13.488281 11.023438 -12.964844 L 11.023438 -3.089844 C 11.023438 -3.074219 11.023438 -3.074219 11.023438 -3.054688 L 10.941406 -3.054688 C 10.925781 -3.054688 10.910156 -3.054688 10.894531 -3.105469 L 5.703125 -12.339844 C 5.570312 -12.585938 5.453125 -12.78125 5.339844 -12.929688 C 5.226562 -13.09375 5.109375 -13.226562 4.996094 -13.308594 C 4.863281 -13.40625 4.714844 -13.472656 4.535156 -13.503906 C 4.371094 -13.523438 4.171875 -13.539062 3.960938 -13.539062 L 2.726562 -13.539062 C 2.25 -13.539062 1.890625 -13.375 1.660156 -13.078125 C 1.429688 -12.765625 1.3125 -12.222656 1.3125 -11.417969 L 1.3125 -0.558594 C 1.3125 -0.0507812 1.644531 0.015625 1.789062 0.015625 L 3.253906 0.015625 C 3.402344 0.015625 3.714844 -0.0507812 3.714844 -0.558594 L 3.714844 -10.433594 C 3.714844 -10.449219 3.714844 -10.464844 3.714844 -10.464844 L 3.796875 -10.464844 C 3.796875 -10.464844 3.8125 -10.464844 3.84375 -10.417969 L 9.054688 -1.183594 C 9.183594 -0.921875 9.316406 -0.722656 9.429688 -0.574219 C 9.546875 -0.410156 9.660156 -0.296875 9.792969 -0.214844 C 9.925781 -0.113281 10.070312 -0.0664062 10.234375 -0.03125 C 10.382812 0 10.566406 0.015625 10.792969 0.015625 L 11.996094 0.015625 C 12.472656 0.015625 12.832031 -0.148438 13.0625 -0.460938 C 13.292969 -0.753906 13.40625 -1.296875 13.40625 -2.101562 L 13.40625 -12.964844 C 13.40625 -13.488281 13.078125 -13.539062 12.945312 -13.539062 Z M 12.945312 -13.539062" transform="translate(536.03 96.072)"/></g></g></g><g fill="#7ED957"><g><g><path d="M 11.351562 -13.539062 L 5.371094 -13.539062 C 4.648438 -13.539062 4.027344 -13.441406 3.515625 -13.257812 C 2.992188 -13.0625 2.5625 -12.75 2.25 -12.339844 C 1.921875 -11.929688 1.675781 -11.386719 1.527344 -10.730469 C 1.378906 -10.089844 1.3125 -9.300781 1.3125 -8.394531 L 1.3125 -5.144531 C 1.3125 -4.222656 1.378906 -3.433594 1.527344 -2.777344 C 1.675781 -2.136719 1.921875 -1.59375 2.25 -1.167969 C 2.578125 -0.753906 3.007812 -0.445312 3.515625 -0.261719 C 4.027344 -0.0820312 4.648438 0.015625 5.371094 0.015625 L 11.351562 0.015625 C 11.484375 0.015625 11.8125 -0.0507812 11.8125 -0.558594 L 11.8125 -1.855469 C 11.8125 -2.367188 11.484375 -2.433594 11.351562 -2.433594 L 5.453125 -2.433594 C 5.109375 -2.433594 4.8125 -2.464844 4.601562 -2.546875 C 4.386719 -2.613281 4.238281 -2.726562 4.109375 -2.90625 C 3.976562 -3.074219 3.894531 -3.320312 3.828125 -3.632812 C 3.777344 -3.960938 3.746094 -4.371094 3.746094 -4.863281 L 3.746094 -8.691406 C 3.746094 -9.183594 3.777344 -9.59375 3.828125 -9.90625 C 3.894531 -10.21875 3.976562 -10.449219 4.109375 -10.628906 C 4.238281 -10.8125 4.386719 -10.925781 4.601562 -10.992188 C 4.8125 -11.074219 5.109375 -11.105469 5.453125 -11.105469 L 11.351562 -11.105469 C 11.484375 -11.105469 11.8125 -11.171875 11.8125 -11.699219 L 11.8125 -12.964844 C 11.8125 -13.472656 11.484375 -13.539062 11.351562 -13.539062 Z M 11.351562 -13.539062" transform="translate(549.862 96.072)"/></g></g></g><g fill="#7ED957"><g><g><path d="M 10.121094 -12.011719 C 10.089844 -12.09375 10.054688 -12.191406 10.023438 -12.257812 C 9.757812 -13.113281 8.972656 -13.71875 8.066406 -13.71875 C 7.65625 -13.71875 7.261719 -13.605469 6.933594 -13.375 C 6.835938 -13.324219 6.753906 -13.257812 6.6875 -13.210938 C 6.441406 -12.996094 6.195312 -12.601562 5.964844 -12.011719 L 1.378906 -0.625 C 1.332031 -0.476562 1.3125 -0.328125 1.347656 -0.230469 C 1.363281 -0.132812 1.445312 0.015625 1.707031 0.015625 L 3.515625 0.015625 C 3.730469 0.015625 3.894531 -0.113281 3.976562 -0.328125 L 4.914062 -2.679688 L 8.511719 -2.679688 C 8.691406 -2.679688 8.855469 -2.761719 8.9375 -2.90625 C 9.035156 -3.039062 9.054688 -3.21875 9.003906 -3.382812 L 8.414062 -4.847656 C 8.332031 -5.042969 8.148438 -5.175781 7.9375 -5.175781 L 5.898438 -5.175781 L 8 -10.5 C 8.019531 -10.53125 8.035156 -10.546875 8.035156 -10.546875 L 8.101562 -10.546875 C 8.101562 -10.546875 8.101562 -10.546875 8.117188 -10.515625 L 12.191406 -0.34375 C 12.273438 -0.113281 12.4375 0.015625 12.667969 0.015625 L 14.425781 0.015625 C 14.6875 0.015625 14.753906 -0.148438 14.789062 -0.230469 C 14.820312 -0.328125 14.804688 -0.476562 14.738281 -0.625 Z M 10.121094 -12.011719" transform="translate(562.101 96.072)"/></g></g></g><g fill="#7ED957"><g><g><path d="M 3.367188 -14.128906 L 1.789062 -14.128906 C 1.496094 -14.128906 1.3125 -13.949219 1.3125 -13.605469 L 1.707031 -4.125 C 1.726562 -3.679688 2.039062 -3.632812 2.167969 -3.632812 L 2.992188 -3.632812 C 3.121094 -3.632812 3.433594 -3.679688 3.449219 -4.125 L 3.84375 -13.605469 C 3.84375 -13.949219 3.664062 -14.128906 3.367188 -14.128906 Z M 3.171875 -2.332031 L 2.101562 -2.332031 C 1.742188 -2.332031 1.460938 -2.054688 1.460938 -1.691406 L 1.460938 -0.625 C 1.460938 -0.261719 1.742188 0.015625 2.101562 0.015625 L 3.171875 0.015625 C 3.515625 0.015625 3.8125 -0.261719 3.8125 -0.625 L 3.8125 -1.691406 C 3.8125 -2.054688 3.515625 -2.332031 3.171875 -2.332031 Z M 3.171875 -2.332031" transform="translate(577.347 96.072)"/></g></g></g></svg>