<svg xmlns="http://www.w3.org/2000/svg" width="224.88" viewBox="0 0 224.88 112.5" height="112.5" version="1.0"><g fill="#7ED957" fill-opacity=".4"><g><g><path d="M 99.71875 -89.800781 L 89.910156 -89.800781 C 88.382812 -89.800781 87.183594 -89.691406 86.09375 -89.363281 C 85.003906 -89.039062 84.023438 -88.492188 83.152344 -87.730469 C 82.390625 -86.859375 81.625 -85.875 80.972656 -84.570312 C 80.320312 -83.261719 79.773438 -81.625 79.121094 -79.554688 L 59.832031 -31.386719 C 59.722656 -30.949219 59.613281 -30.949219 59.503906 -30.949219 L 58.414062 -30.949219 C 58.414062 -30.949219 58.195312 -30.949219 58.085938 -31.386719 L 38.90625 -79.554688 C 38.253906 -81.625 37.597656 -83.261719 37.054688 -84.570312 C 36.398438 -85.875 35.636719 -86.859375 34.875 -87.730469 C 34.003906 -88.492188 32.914062 -89.039062 31.824219 -89.363281 C 30.734375 -89.691406 29.425781 -89.800781 28.007812 -89.800781 L 17.980469 -89.800781 C 14.277344 -89.800781 11.769531 -88.601562 10.460938 -86.3125 C 9.261719 -84.242188 8.71875 -80.753906 8.71875 -75.742188 L 8.71875 -3.707031 C 8.71875 -0.328125 10.898438 0.109375 11.878906 0.109375 L 21.25 0.109375 C 22.230469 0.109375 24.300781 -0.328125 24.300781 -3.707031 L 24.300781 -69.203125 C 24.300781 -69.3125 24.300781 -69.421875 24.300781 -69.421875 L 24.847656 -69.421875 C 24.957031 -69.421875 25.066406 -69.421875 25.175781 -69.09375 L 43.808594 -22.996094 C 44.574219 -20.707031 45.335938 -18.746094 46.097656 -17.109375 C 46.96875 -15.476562 47.84375 -14.167969 48.714844 -13.078125 C 49.804688 -11.988281 50.894531 -11.117188 52.203125 -10.679688 C 53.507812 -10.246094 54.925781 -10.027344 56.5625 -10.027344 L 61.027344 -10.027344 C 62.664062 -10.027344 64.191406 -10.246094 65.386719 -10.679688 C 66.695312 -11.117188 67.894531 -11.988281 68.875 -13.078125 C 69.746094 -14.167969 70.726562 -15.476562 71.492188 -17.109375 C 72.253906 -18.746094 73.015625 -20.707031 73.78125 -22.996094 L 92.523438 -69.203125 C 92.523438 -69.421875 92.632812 -69.421875 92.742188 -69.421875 L 93.289062 -69.421875 C 93.289062 -69.421875 93.289062 -69.3125 93.289062 -69.203125 L 93.289062 -3.707031 C 93.289062 -0.328125 95.46875 0.109375 96.339844 0.109375 L 105.710938 0.109375 C 106.691406 0.109375 108.871094 -0.328125 108.871094 -3.707031 L 108.871094 -75.742188 C 108.871094 -80.753906 108.328125 -84.242188 107.128906 -86.3125 C 105.820312 -88.601562 103.3125 -89.800781 99.71875 -89.800781 Z M 99.71875 -89.800781" transform="translate(85.635 100.273)"/></g></g></g><g fill="#7ED957"><g><g><path d="M 99.71875 -89.800781 L 89.910156 -89.800781 C 88.382812 -89.800781 87.183594 -89.691406 86.09375 -89.363281 C 85.003906 -89.039062 84.023438 -88.492188 83.152344 -87.730469 C 82.390625 -86.859375 81.625 -85.875 80.972656 -84.570312 C 80.320312 -83.261719 79.773438 -81.625 79.121094 -79.554688 L 59.832031 -31.386719 C 59.722656 -30.949219 59.613281 -30.949219 59.503906 -30.949219 L 58.414062 -30.949219 C 58.414062 -30.949219 58.195312 -30.949219 58.085938 -31.386719 L 38.90625 -79.554688 C 38.253906 -81.625 37.597656 -83.261719 37.054688 -84.570312 C 36.398438 -85.875 35.636719 -86.859375 34.875 -87.730469 C 34.003906 -88.492188 32.914062 -89.039062 31.824219 -89.363281 C 30.734375 -89.691406 29.425781 -89.800781 28.007812 -89.800781 L 17.980469 -89.800781 C 14.277344 -89.800781 11.769531 -88.601562 10.460938 -86.3125 C 9.261719 -84.242188 8.71875 -80.753906 8.71875 -75.742188 L 8.71875 -3.707031 C 8.71875 -0.328125 10.898438 0.109375 11.878906 0.109375 L 21.25 0.109375 C 22.230469 0.109375 24.300781 -0.328125 24.300781 -3.707031 L 24.300781 -69.203125 C 24.300781 -69.3125 24.300781 -69.421875 24.300781 -69.421875 L 24.847656 -69.421875 C 24.957031 -69.421875 25.066406 -69.421875 25.175781 -69.09375 L 43.808594 -22.996094 C 44.574219 -20.707031 45.335938 -18.746094 46.097656 -17.109375 C 46.96875 -15.476562 47.84375 -14.167969 48.714844 -13.078125 C 49.804688 -11.988281 50.894531 -11.117188 52.203125 -10.679688 C 53.507812 -10.246094 54.925781 -10.027344 56.5625 -10.027344 L 61.027344 -10.027344 C 62.664062 -10.027344 64.191406 -10.246094 65.386719 -10.679688 C 66.695312 -11.117188 67.894531 -11.988281 68.875 -13.078125 C 69.746094 -14.167969 70.726562 -15.476562 71.492188 -17.109375 C 72.253906 -18.746094 73.015625 -20.707031 73.78125 -22.996094 L 92.523438 -69.203125 C 92.523438 -69.421875 92.632812 -69.421875 92.742188 -69.421875 L 93.289062 -69.421875 C 93.289062 -69.421875 93.289062 -69.3125 93.289062 -69.203125 L 93.289062 -3.707031 C 93.289062 -0.328125 95.46875 0.109375 96.339844 0.109375 L 105.710938 0.109375 C 106.691406 0.109375 108.871094 -0.328125 108.871094 -3.707031 L 108.871094 -75.742188 C 108.871094 -80.753906 108.328125 -84.242188 107.128906 -86.3125 C 105.820312 -88.601562 103.3125 -89.800781 99.71875 -89.800781 Z M 99.71875 -89.800781" transform="translate(83.92 98.156)"/></g></g></g><g fill="#737373" fill-opacity=".812"><g><g><path d="M 82.5 -89.800781 L 35.636719 -89.800781 C 30.839844 -89.800781 26.699219 -89.144531 23.320312 -87.949219 C 19.945312 -86.640625 17 -84.570312 14.929688 -81.84375 C 12.75 -79.011719 11.117188 -75.523438 10.136719 -71.164062 C 9.15625 -66.914062 8.71875 -61.683594 8.71875 -55.6875 L 8.71875 -34.109375 C 8.71875 -28.007812 9.15625 -22.777344 10.136719 -18.417969 C 11.117188 -14.167969 12.75 -10.570312 14.929688 -7.738281 C 17.109375 -5.011719 19.945312 -2.941406 23.320312 -1.742188 C 26.699219 -0.542969 30.839844 0.109375 35.636719 0.109375 L 72.90625 0.109375 C 76.941406 0.109375 80.101562 -1.527344 82.28125 -4.6875 C 84.351562 -7.738281 85.441406 -12.859375 85.441406 -20.160156 L 85.441406 -49.367188 C 85.441406 -53.507812 83.042969 -54.164062 81.625 -54.164062 L 43.046875 -54.164062 C 42.175781 -54.164062 39.996094 -53.726562 39.996094 -50.238281 L 39.996094 -41.957031 C 39.996094 -38.359375 42.175781 -38.035156 43.046875 -38.035156 L 70.183594 -38.035156 C 70.183594 -38.035156 70.292969 -22.777344 70.292969 -22.777344 C 70.292969 -19.398438 69.746094 -17.980469 69.3125 -17.328125 C 68.765625 -16.457031 67.894531 -16.128906 66.695312 -16.128906 L 36.179688 -16.128906 C 33.894531 -16.128906 31.929688 -16.347656 30.515625 -16.890625 C 29.097656 -17.328125 28.117188 -18.089844 27.246094 -19.289062 C 26.480469 -20.378906 25.828125 -22.015625 25.5 -24.085938 C 25.066406 -26.265625 24.847656 -28.988281 24.847656 -32.257812 L 24.847656 -57.542969 C 24.847656 -60.8125 25.066406 -63.535156 25.5 -65.714844 C 25.828125 -67.675781 26.480469 -69.3125 27.246094 -70.511719 C 28.117188 -71.601562 29.097656 -72.363281 30.515625 -72.90625 C 31.929688 -73.34375 33.894531 -73.671875 36.179688 -73.671875 L 82.5 -73.671875 C 83.371094 -73.671875 85.550781 -73.996094 85.550781 -77.484375 L 85.550781 -85.984375 C 85.550781 -89.363281 83.371094 -89.800781 82.5 -89.800781 Z M 82.5 -89.800781" transform="translate(19.277 100.869)"/></g></g></g><g fill="#FFF"><g><g><path d="M 82.5 -89.800781 L 35.636719 -89.800781 C 30.839844 -89.800781 26.699219 -89.144531 23.320312 -87.949219 C 19.945312 -86.640625 17 -84.570312 14.929688 -81.84375 C 12.75 -79.011719 11.117188 -75.523438 10.136719 -71.164062 C 9.15625 -66.914062 8.71875 -61.683594 8.71875 -55.6875 L 8.71875 -34.109375 C 8.71875 -28.007812 9.15625 -22.777344 10.136719 -18.417969 C 11.117188 -14.167969 12.75 -10.570312 14.929688 -7.738281 C 17.109375 -5.011719 19.945312 -2.941406 23.320312 -1.742188 C 26.699219 -0.542969 30.839844 0.109375 35.636719 0.109375 L 72.90625 0.109375 C 76.941406 0.109375 80.101562 -1.527344 82.28125 -4.6875 C 84.351562 -7.738281 85.441406 -12.859375 85.441406 -20.160156 L 85.441406 -49.367188 C 85.441406 -53.507812 83.042969 -54.164062 81.625 -54.164062 L 43.046875 -54.164062 C 42.175781 -54.164062 39.996094 -53.726562 39.996094 -50.238281 L 39.996094 -41.957031 C 39.996094 -38.359375 42.175781 -38.035156 43.046875 -38.035156 L 70.183594 -38.035156 C 70.183594 -38.035156 70.292969 -22.777344 70.292969 -22.777344 C 70.292969 -19.398438 69.746094 -17.980469 69.3125 -17.328125 C 68.765625 -16.457031 67.894531 -16.128906 66.695312 -16.128906 L 36.179688 -16.128906 C 33.894531 -16.128906 31.929688 -16.347656 30.515625 -16.890625 C 29.097656 -17.328125 28.117188 -18.089844 27.246094 -19.289062 C 26.480469 -20.378906 25.828125 -22.015625 25.5 -24.085938 C 25.066406 -26.265625 24.847656 -28.988281 24.847656 -32.257812 L 24.847656 -57.542969 C 24.847656 -60.8125 25.066406 -63.535156 25.5 -65.714844 C 25.828125 -67.675781 26.480469 -69.3125 27.246094 -70.511719 C 28.117188 -71.601562 29.097656 -72.363281 30.515625 -72.90625 C 31.929688 -73.34375 33.894531 -73.671875 36.179688 -73.671875 L 82.5 -73.671875 C 83.371094 -73.671875 85.550781 -73.996094 85.550781 -77.484375 L 85.550781 -85.984375 C 85.550781 -89.363281 83.371094 -89.800781 82.5 -89.800781 Z M 82.5 -89.800781" transform="translate(17.71 98.156)"/></g></g></g></svg>