<svg xmlns="http://www.w3.org/2000/svg" width="450" viewBox="0 0 450 112.5" height="112.5" version="1.0"><g fill="#FFF"><g><g><path d="M 21.011719 -22.871094 L 9.074219 -22.871094 C 7.855469 -22.871094 6.800781 -22.703125 5.9375 -22.398438 C 5.078125 -22.066406 4.328125 -21.539062 3.800781 -20.84375 C 3.246094 -20.121094 2.832031 -19.234375 2.582031 -18.125 C 2.332031 -17.042969 2.21875 -15.707031 2.21875 -14.183594 L 2.21875 -8.6875 C 2.21875 -7.132812 2.332031 -5.800781 2.582031 -4.691406 C 2.832031 -3.609375 3.246094 -2.691406 3.800781 -1.96875 C 4.359375 -1.277344 5.078125 -0.75 5.9375 -0.445312 C 6.800781 -0.140625 7.855469 0.0273438 9.074219 0.0273438 L 18.566406 0.0273438 C 19.59375 0.0273438 20.398438 -0.386719 20.953125 -1.195312 C 21.480469 -1.96875 21.757812 -3.273438 21.757812 -5.132812 L 21.757812 -12.574219 C 21.757812 -13.628906 21.148438 -13.792969 20.789062 -13.792969 L 10.964844 -13.792969 C 10.742188 -13.792969 10.1875 -13.683594 10.1875 -12.792969 L 10.1875 -10.683594 C 10.1875 -9.769531 10.742188 -9.6875 10.964844 -9.6875 L 17.875 -9.6875 C 17.875 -9.6875 17.902344 -5.800781 17.902344 -5.800781 C 17.902344 -4.941406 17.761719 -4.578125 17.652344 -4.414062 C 17.511719 -4.191406 17.289062 -4.109375 16.984375 -4.109375 L 9.214844 -4.109375 C 8.632812 -4.109375 8.132812 -4.164062 7.769531 -4.300781 C 7.410156 -4.414062 7.160156 -4.605469 6.9375 -4.914062 C 6.746094 -5.191406 6.578125 -5.605469 6.496094 -6.132812 C 6.382812 -6.6875 6.328125 -7.382812 6.328125 -8.214844 L 6.328125 -14.65625 C 6.328125 -15.488281 6.382812 -16.179688 6.496094 -16.734375 C 6.578125 -17.234375 6.746094 -17.652344 6.9375 -17.957031 C 7.160156 -18.234375 7.410156 -18.429688 7.769531 -18.566406 C 8.132812 -18.679688 8.632812 -18.761719 9.214844 -18.761719 L 21.011719 -18.761719 C 21.230469 -18.761719 21.789062 -18.84375 21.789062 -19.734375 L 21.789062 -21.898438 C 21.789062 -22.757812 21.230469 -22.871094 21.011719 -22.871094 Z M 21.011719 -22.871094" transform="translate(15.7 58.258)"/></g></g></g><g fill="#FFF"><g><g><path d="M 17.097656 -20.289062 C 17.042969 -20.425781 16.984375 -20.59375 16.929688 -20.703125 C 16.484375 -22.148438 15.152344 -23.175781 13.628906 -23.175781 C 12.933594 -23.175781 12.265625 -22.980469 11.710938 -22.59375 C 11.546875 -22.507812 11.40625 -22.398438 11.296875 -22.316406 C 10.878906 -21.953125 10.464844 -21.289062 10.074219 -20.289062 L 2.332031 -1.054688 C 2.25 -0.804688 2.21875 -0.554688 2.277344 -0.386719 C 2.304688 -0.222656 2.441406 0.0273438 2.886719 0.0273438 L 5.9375 0.0273438 C 6.300781 0.0273438 6.578125 -0.195312 6.714844 -0.554688 L 8.296875 -4.523438 L 14.375 -4.523438 C 14.683594 -4.523438 14.960938 -4.664062 15.097656 -4.914062 C 15.265625 -5.132812 15.292969 -5.441406 15.210938 -5.71875 L 14.210938 -8.1875 C 14.070312 -8.519531 13.765625 -8.742188 13.40625 -8.742188 L 9.964844 -8.742188 L 13.515625 -17.734375 C 13.542969 -17.789062 13.570312 -17.816406 13.570312 -17.816406 L 13.683594 -17.816406 C 13.683594 -17.816406 13.683594 -17.816406 13.710938 -17.761719 L 20.59375 -0.582031 C 20.734375 -0.195312 21.011719 0.0273438 21.398438 0.0273438 L 24.367188 0.0273438 C 24.8125 0.0273438 24.921875 -0.25 24.980469 -0.386719 C 25.035156 -0.554688 25.007812 -0.804688 24.894531 -1.054688 Z M 17.097656 -20.289062" transform="translate(38.202 58.258)"/></g></g></g><g fill="#FFF"><g><g><path d="M 25.394531 -22.871094 L 22.898438 -22.871094 C 22.507812 -22.871094 22.203125 -22.84375 21.925781 -22.757812 C 21.648438 -22.675781 21.398438 -22.535156 21.175781 -22.34375 C 20.980469 -22.121094 20.789062 -21.871094 20.621094 -21.539062 C 20.453125 -21.203125 20.316406 -20.789062 20.148438 -20.261719 L 15.238281 -7.992188 C 15.210938 -7.882812 15.179688 -7.882812 15.152344 -7.882812 L 14.875 -7.882812 C 14.875 -7.882812 14.820312 -7.882812 14.792969 -7.992188 L 9.910156 -20.261719 C 9.742188 -20.789062 9.574219 -21.203125 9.4375 -21.539062 C 9.269531 -21.871094 9.074219 -22.121094 8.882812 -22.34375 C 8.660156 -22.535156 8.382812 -22.675781 8.105469 -22.757812 C 7.828125 -22.84375 7.492188 -22.871094 7.132812 -22.871094 L 4.578125 -22.871094 C 3.636719 -22.871094 2.996094 -22.5625 2.664062 -21.980469 C 2.359375 -21.453125 2.21875 -20.566406 2.21875 -19.289062 L 2.21875 -0.945312 C 2.21875 -0.0820312 2.777344 0.0273438 3.023438 0.0273438 L 5.410156 0.0273438 C 5.660156 0.0273438 6.1875 -0.0820312 6.1875 -0.945312 L 6.1875 -17.625 C 6.1875 -17.652344 6.1875 -17.679688 6.1875 -17.679688 L 6.328125 -17.679688 C 6.355469 -17.679688 6.382812 -17.679688 6.410156 -17.597656 L 11.15625 -5.855469 C 11.351562 -5.273438 11.546875 -4.773438 11.738281 -4.359375 C 11.960938 -3.941406 12.183594 -3.609375 12.40625 -3.332031 C 12.683594 -3.054688 12.960938 -2.832031 13.292969 -2.71875 C 13.628906 -2.609375 13.988281 -2.554688 14.40625 -2.554688 L 15.542969 -2.554688 C 15.957031 -2.554688 16.347656 -2.609375 16.652344 -2.71875 C 16.984375 -2.832031 17.289062 -3.054688 17.539062 -3.332031 C 17.761719 -3.609375 18.011719 -3.941406 18.207031 -4.359375 C 18.402344 -4.773438 18.59375 -5.273438 18.789062 -5.855469 L 23.5625 -17.625 C 23.5625 -17.679688 23.589844 -17.679688 23.617188 -17.679688 L 23.757812 -17.679688 C 23.757812 -17.679688 23.757812 -17.652344 23.757812 -17.625 L 23.757812 -0.945312 C 23.757812 -0.0820312 24.3125 0.0273438 24.535156 0.0273438 L 26.921875 0.0273438 C 27.171875 0.0273438 27.726562 -0.0820312 27.726562 -0.945312 L 27.726562 -19.289062 C 27.726562 -20.566406 27.585938 -21.453125 27.28125 -21.980469 C 26.949219 -22.5625 26.3125 -22.871094 25.394531 -22.871094 Z M 25.394531 -22.871094" transform="translate(63.95 58.258)"/></g></g></g><g fill="#FFF"><g><g><path d="M 18.902344 -4.96875 L 9.132812 -4.96875 C 8.546875 -4.96875 8.078125 -5.050781 7.6875 -5.164062 C 7.328125 -5.300781 7.078125 -5.496094 6.855469 -5.773438 C 6.632812 -6.078125 6.464844 -6.496094 6.382812 -7.023438 C 6.355469 -7.160156 6.355469 -7.355469 6.328125 -7.492188 C 6.328125 -7.492188 6.355469 -9.492188 6.382812 -9.492188 L 18.789062 -9.492188 C 19.011719 -9.492188 19.566406 -9.601562 19.566406 -10.464844 L 19.566406 -12.65625 C 19.566406 -13.515625 19.011719 -13.601562 18.789062 -13.601562 L 4.46875 -13.570312 C 3.664062 -13.515625 2.96875 -13.101562 2.582031 -12.40625 C 2.441406 -12.183594 2.332031 -11.960938 2.277344 -11.710938 L 2.21875 -8.214844 L 2.21875 -8.078125 C 2.25 -6.773438 2.386719 -5.660156 2.582031 -4.746094 C 2.832031 -3.636719 3.246094 -2.71875 3.773438 -2.027344 C 4.328125 -1.304688 5.050781 -0.804688 5.9375 -0.5 C 6.800781 -0.167969 7.828125 -0.0273438 9.046875 -0.0273438 L 18.902344 -0.0273438 C 19.152344 -0.0273438 19.707031 -0.109375 19.707031 -0.972656 L 19.707031 -4.023438 C 19.707031 -4.886719 19.152344 -4.96875 18.902344 -4.96875 Z M 18.929688 -22.925781 L 2.96875 -22.925781 C 2.746094 -22.925781 2.21875 -22.8125 2.21875 -21.925781 L 2.21875 -19.761719 C 2.21875 -18.902344 2.746094 -18.816406 2.96875 -18.816406 L 18.929688 -18.789062 C 19.152344 -18.789062 19.707031 -18.902344 19.707031 -19.761719 L 19.707031 -21.953125 C 19.707031 -22.8125 19.152344 -22.925781 18.929688 -22.925781 Z M 18.929688 -22.925781" transform="translate(92.388 58.258)"/></g></g></g><g fill="#7ED957"><g><g><path d="M 25.394531 -22.871094 L 22.898438 -22.871094 C 22.507812 -22.871094 22.203125 -22.84375 21.925781 -22.757812 C 21.648438 -22.675781 21.398438 -22.535156 21.175781 -22.34375 C 20.980469 -22.121094 20.789062 -21.871094 20.621094 -21.539062 C 20.453125 -21.203125 20.316406 -20.789062 20.148438 -20.261719 L 15.238281 -7.992188 C 15.210938 -7.882812 15.179688 -7.882812 15.152344 -7.882812 L 14.875 -7.882812 C 14.875 -7.882812 14.820312 -7.882812 14.792969 -7.992188 L 9.910156 -20.261719 C 9.742188 -20.789062 9.574219 -21.203125 9.4375 -21.539062 C 9.269531 -21.871094 9.074219 -22.121094 8.882812 -22.34375 C 8.660156 -22.535156 8.382812 -22.675781 8.105469 -22.757812 C 7.828125 -22.84375 7.492188 -22.871094 7.132812 -22.871094 L 4.578125 -22.871094 C 3.636719 -22.871094 2.996094 -22.5625 2.664062 -21.980469 C 2.359375 -21.453125 2.21875 -20.566406 2.21875 -19.289062 L 2.21875 -0.945312 C 2.21875 -0.0820312 2.777344 0.0273438 3.023438 0.0273438 L 5.410156 0.0273438 C 5.660156 0.0273438 6.1875 -0.0820312 6.1875 -0.945312 L 6.1875 -17.625 C 6.1875 -17.652344 6.1875 -17.679688 6.1875 -17.679688 L 6.328125 -17.679688 C 6.355469 -17.679688 6.382812 -17.679688 6.410156 -17.597656 L 11.15625 -5.855469 C 11.351562 -5.273438 11.546875 -4.773438 11.738281 -4.359375 C 11.960938 -3.941406 12.183594 -3.609375 12.40625 -3.332031 C 12.683594 -3.054688 12.960938 -2.832031 13.292969 -2.71875 C 13.628906 -2.609375 13.988281 -2.554688 14.40625 -2.554688 L 15.542969 -2.554688 C 15.957031 -2.554688 16.347656 -2.609375 16.652344 -2.71875 C 16.984375 -2.832031 17.289062 -3.054688 17.539062 -3.332031 C 17.761719 -3.609375 18.011719 -3.941406 18.207031 -4.359375 C 18.402344 -4.773438 18.59375 -5.273438 18.789062 -5.855469 L 23.5625 -17.625 C 23.5625 -17.679688 23.589844 -17.679688 23.617188 -17.679688 L 23.757812 -17.679688 C 23.757812 -17.679688 23.757812 -17.652344 23.757812 -17.625 L 23.757812 -0.945312 C 23.757812 -0.0820312 24.3125 0.0273438 24.535156 0.0273438 L 26.921875 0.0273438 C 27.171875 0.0273438 27.726562 -0.0820312 27.726562 -0.945312 L 27.726562 -19.289062 C 27.726562 -20.566406 27.585938 -21.453125 27.28125 -21.980469 C 26.949219 -22.5625 26.3125 -22.871094 25.394531 -22.871094 Z M 25.394531 -22.871094" transform="translate(112.801 58.258)"/></g></g></g><g fill="#7ED957"><g><g><path d="M 17.097656 -20.289062 C 17.042969 -20.425781 16.984375 -20.59375 16.929688 -20.703125 C 16.484375 -22.148438 15.152344 -23.175781 13.628906 -23.175781 C 12.933594 -23.175781 12.265625 -22.980469 11.710938 -22.59375 C 11.546875 -22.507812 11.40625 -22.398438 11.296875 -22.316406 C 10.878906 -21.953125 10.464844 -21.289062 10.074219 -20.289062 L 2.332031 -1.054688 C 2.25 -0.804688 2.21875 -0.554688 2.277344 -0.386719 C 2.304688 -0.222656 2.441406 0.0273438 2.886719 0.0273438 L 5.9375 0.0273438 C 6.300781 0.0273438 6.578125 -0.195312 6.714844 -0.554688 L 8.296875 -4.523438 L 14.375 -4.523438 C 14.683594 -4.523438 14.960938 -4.664062 15.097656 -4.914062 C 15.265625 -5.132812 15.292969 -5.441406 15.210938 -5.71875 L 14.210938 -8.1875 C 14.070312 -8.519531 13.765625 -8.742188 13.40625 -8.742188 L 9.964844 -8.742188 L 13.515625 -17.734375 C 13.542969 -17.789062 13.570312 -17.816406 13.570312 -17.816406 L 13.683594 -17.816406 C 13.683594 -17.816406 13.683594 -17.816406 13.710938 -17.761719 L 20.59375 -0.582031 C 20.734375 -0.195312 21.011719 0.0273438 21.398438 0.0273438 L 24.367188 0.0273438 C 24.8125 0.0273438 24.921875 -0.25 24.980469 -0.386719 C 25.035156 -0.554688 25.007812 -0.804688 24.894531 -1.054688 Z M 17.097656 -20.289062" transform="translate(141.24 58.258)"/></g></g></g><g fill="#7ED957"><g><g><path d="M 21.871094 -22.871094 L 19.398438 -22.871094 C 19.152344 -22.871094 18.625 -22.785156 18.625 -21.898438 L 18.625 -5.21875 C 18.625 -5.191406 18.625 -5.191406 18.625 -5.164062 L 18.484375 -5.164062 C 18.457031 -5.164062 18.429688 -5.164062 18.402344 -5.246094 L 9.628906 -20.84375 C 9.410156 -21.261719 9.214844 -21.59375 9.019531 -21.84375 C 8.824219 -22.121094 8.632812 -22.34375 8.4375 -22.480469 C 8.214844 -22.648438 7.964844 -22.757812 7.660156 -22.8125 C 7.382812 -22.84375 7.050781 -22.871094 6.6875 -22.871094 L 4.605469 -22.871094 C 3.800781 -22.871094 3.191406 -22.59375 2.804688 -22.09375 C 2.414062 -21.566406 2.21875 -20.648438 2.21875 -19.289062 L 2.21875 -0.945312 C 2.21875 -0.0820312 2.777344 0.0273438 3.023438 0.0273438 L 5.496094 0.0273438 C 5.746094 0.0273438 6.273438 -0.0820312 6.273438 -0.945312 L 6.273438 -17.625 C 6.273438 -17.652344 6.273438 -17.679688 6.273438 -17.679688 L 6.410156 -17.679688 C 6.410156 -17.679688 6.4375 -17.679688 6.496094 -17.597656 L 15.292969 -2 C 15.515625 -1.554688 15.738281 -1.222656 15.929688 -0.972656 C 16.125 -0.695312 16.320312 -0.5 16.542969 -0.359375 C 16.761719 -0.195312 17.011719 -0.109375 17.289062 -0.0546875 C 17.539062 0 17.847656 0.0273438 18.234375 0.0273438 L 20.261719 0.0273438 C 21.066406 0.0273438 21.675781 -0.25 22.066406 -0.777344 C 22.453125 -1.277344 22.648438 -2.191406 22.648438 -3.550781 L 22.648438 -21.898438 C 22.648438 -22.785156 22.09375 -22.871094 21.871094 -22.871094 Z M 21.871094 -22.871094" transform="translate(166.988 58.258)"/></g></g></g><g fill="#7ED957"><g><g><path d="M 5.550781 -22.871094 L 2.996094 -22.871094 C 2.777344 -22.871094 2.21875 -22.757812 2.21875 -21.898438 L 2.21875 -0.945312 C 2.21875 -0.0820312 2.777344 0.0273438 2.996094 0.0273438 L 5.550781 0.0273438 C 5.773438 0.0273438 6.328125 -0.0820312 6.328125 -0.945312 L 6.328125 -21.898438 C 6.328125 -22.757812 5.773438 -22.871094 5.550781 -22.871094 Z M 5.550781 -22.871094" transform="translate(190.35 58.258)"/></g></g></g><g fill="#7ED957"><g><g><path d="M 17.097656 -20.289062 C 17.042969 -20.425781 16.984375 -20.59375 16.929688 -20.703125 C 16.484375 -22.148438 15.152344 -23.175781 13.628906 -23.175781 C 12.933594 -23.175781 12.265625 -22.980469 11.710938 -22.59375 C 11.546875 -22.507812 11.40625 -22.398438 11.296875 -22.316406 C 10.878906 -21.953125 10.464844 -21.289062 10.074219 -20.289062 L 2.332031 -1.054688 C 2.25 -0.804688 2.21875 -0.554688 2.277344 -0.386719 C 2.304688 -0.222656 2.441406 0.0273438 2.886719 0.0273438 L 5.9375 0.0273438 C 6.300781 0.0273438 6.578125 -0.195312 6.714844 -0.554688 L 8.296875 -4.523438 L 14.375 -4.523438 C 14.683594 -4.523438 14.960938 -4.664062 15.097656 -4.914062 C 15.265625 -5.132812 15.292969 -5.441406 15.210938 -5.71875 L 14.210938 -8.1875 C 14.070312 -8.519531 13.765625 -8.742188 13.40625 -8.742188 L 9.964844 -8.742188 L 13.515625 -17.734375 C 13.542969 -17.789062 13.570312 -17.816406 13.570312 -17.816406 L 13.683594 -17.816406 C 13.683594 -17.816406 13.683594 -17.816406 13.710938 -17.761719 L 20.59375 -0.582031 C 20.734375 -0.195312 21.011719 0.0273438 21.398438 0.0273438 L 24.367188 0.0273438 C 24.8125 0.0273438 24.921875 -0.25 24.980469 -0.386719 C 25.035156 -0.554688 25.007812 -0.804688 24.894531 -1.054688 Z M 17.097656 -20.289062" transform="translate(197.396 58.258)"/></g></g></g><g fill="#FFF"><g><g><path d="M 9.457031 -10.109375 L 1.335938 -10.109375 C 1.226562 -10.109375 0.980469 -10.074219 0.980469 -9.691406 L 0.980469 -8.734375 C 0.980469 -8.332031 1.226562 -8.292969 1.335938 -8.292969 L 4.488281 -8.292969 L 4.488281 -0.417969 C 4.488281 -0.0351562 4.734375 0 4.832031 0 L 5.960938 0 C 6.074219 0 6.304688 -0.0351562 6.304688 -0.417969 L 6.304688 -8.292969 L 9.457031 -8.292969 C 9.570312 -8.292969 9.816406 -8.332031 9.816406 -8.734375 L 9.816406 -9.691406 C 9.816406 -10.074219 9.570312 -10.109375 9.457031 -10.109375 Z M 9.457031 -10.109375" transform="translate(63.136 77.769)"/></g></g></g><g fill="#FFF"><g><g><path d="M 9.457031 -10.109375 L 8.332031 -10.109375 C 8.21875 -10.109375 7.988281 -10.074219 7.988281 -9.691406 L 7.988281 -3.644531 C 7.988281 -3.277344 7.960938 -2.957031 7.925781 -2.722656 C 7.886719 -2.492188 7.816406 -2.304688 7.730469 -2.171875 C 7.632812 -2.046875 7.519531 -1.964844 7.359375 -1.902344 C 7.203125 -1.851562 6.980469 -1.816406 6.722656 -1.816406 L 4.074219 -1.816406 C 3.816406 -1.816406 3.59375 -1.851562 3.433594 -1.902344 C 3.277344 -1.964844 3.164062 -2.046875 3.066406 -2.171875 C 2.980469 -2.304688 2.90625 -2.492188 2.859375 -2.722656 C 2.820312 -2.957031 2.796875 -3.277344 2.796875 -3.644531 L 2.796875 -9.691406 C 2.796875 -10.074219 2.5625 -10.109375 2.453125 -10.109375 L 1.335938 -10.109375 C 1.226562 -10.109375 0.980469 -10.074219 0.980469 -9.691406 L 0.980469 -3.839844 C 0.980469 -3.152344 1.03125 -2.5625 1.140625 -2.085938 C 1.25 -1.59375 1.433594 -1.191406 1.679688 -0.882812 C 1.914062 -0.5625 2.246094 -0.34375 2.625 -0.195312 C 3.003906 -0.0625 3.472656 0 4.011719 0 L 6.773438 0 C 7.3125 0 7.777344 -0.0625 8.160156 -0.195312 C 8.550781 -0.34375 8.871094 -0.5625 9.117188 -0.882812 C 9.359375 -1.191406 9.53125 -1.59375 9.644531 -2.085938 C 9.753906 -2.5625 9.800781 -3.152344 9.800781 -3.839844 L 9.800781 -9.691406 C 9.800781 -10.074219 9.570312 -10.109375 9.457031 -10.109375 Z M 9.457031 -10.109375" transform="translate(73.268 77.769)"/></g></g></g><g fill="#FFF"><g><g><path d="M 9.359375 -7.828125 C 9.238281 -8.34375 9.03125 -8.773438 8.773438 -9.117188 C 8.5 -9.445312 8.144531 -9.703125 7.730469 -9.863281 C 7.3125 -10.023438 6.820312 -10.109375 6.246094 -10.109375 L 1.964844 -10.109375 L 1.964844 -10.097656 C 1.605469 -10.074219 1.300781 -9.875 1.117188 -9.582031 C 1.066406 -9.484375 1.019531 -9.371094 0.992188 -9.273438 L 0.980469 -0.894531 C 1.007812 -0.761719 1.054688 -0.625 1.117188 -0.515625 C 1.3125 -0.183594 1.667969 0.0117188 2.046875 0.0117188 L 6.246094 0.0117188 C 6.820312 0.0117188 7.324219 -0.0742188 7.730469 -0.234375 C 8.144531 -0.394531 8.5 -0.648438 8.773438 -0.992188 C 9.03125 -1.324219 9.238281 -1.753906 9.359375 -2.269531 C 9.484375 -2.785156 9.542969 -3.398438 9.542969 -4.085938 L 9.542969 -6.011719 C 9.542969 -6.699219 9.484375 -7.3125 9.359375 -7.828125 Z M 2.785156 -1.878906 L 2.785156 -8.21875 C 2.785156 -8.269531 2.796875 -8.292969 2.808594 -8.292969 L 6.207031 -8.292969 C 6.488281 -8.292969 6.734375 -8.257812 6.929688 -8.183594 C 7.128906 -8.109375 7.273438 -8.011719 7.386719 -7.851562 C 7.507812 -7.691406 7.59375 -7.484375 7.644531 -7.226562 C 7.691406 -6.945312 7.730469 -6.601562 7.730469 -6.195312 L 7.730469 -3.902344 C 7.730469 -3.496094 7.691406 -3.152344 7.644531 -2.882812 C 7.59375 -2.613281 7.507812 -2.40625 7.386719 -2.246094 C 7.273438 -2.097656 7.128906 -1.988281 6.929688 -1.914062 C 6.734375 -1.839844 6.488281 -1.816406 6.207031 -1.816406 L 2.796875 -1.816406 C 2.796875 -1.816406 2.785156 -1.828125 2.785156 -1.878906 Z M 2.785156 -1.878906" transform="translate(83.388 77.769)"/></g></g></g><g fill="#FFF"><g><g><path d="M 9.335938 -9.214844 C 9.089844 -9.519531 8.773438 -9.753906 8.378906 -9.902344 C 8 -10.035156 7.53125 -10.109375 6.992188 -10.109375 L 4 -10.109375 C 3.460938 -10.109375 3.003906 -10.035156 2.625 -9.902344 C 2.234375 -9.753906 1.914062 -9.519531 1.667969 -9.214844 C 1.433594 -8.90625 1.25 -8.5 1.140625 -8.011719 C 1.03125 -7.53125 0.980469 -6.957031 0.980469 -6.269531 L 0.980469 -3.839844 C 0.980469 -3.152344 1.03125 -2.5625 1.140625 -2.085938 C 1.25 -1.59375 1.433594 -1.191406 1.667969 -0.882812 C 1.914062 -0.5625 2.234375 -0.332031 2.625 -0.195312 C 2.992188 -0.0625 3.460938 0.0117188 4 0.0117188 L 6.992188 0.0117188 C 7.53125 0.0117188 8 -0.0625 8.378906 -0.195312 C 8.773438 -0.332031 9.089844 -0.5625 9.335938 -0.871094 C 9.582031 -1.191406 9.753906 -1.59375 9.863281 -2.085938 C 9.960938 -2.5625 10.023438 -3.152344 10.023438 -3.839844 L 10.023438 -6.269531 C 10.023438 -6.945312 9.960938 -7.53125 9.863281 -8.011719 C 9.753906 -8.5 9.582031 -8.90625 9.335938 -9.214844 Z M 8.195312 -6.476562 L 8.195312 -3.621094 C 8.195312 -3.261719 8.183594 -2.957031 8.132812 -2.710938 C 8.097656 -2.492188 8.023438 -2.292969 7.925781 -2.171875 C 7.839844 -2.035156 7.714844 -1.949219 7.558594 -1.902344 C 7.398438 -1.839844 7.1875 -1.816406 6.929688 -1.816406 L 4.0625 -1.816406 C 3.804688 -1.816406 3.59375 -1.839844 3.433594 -1.902344 C 3.277344 -1.949219 3.152344 -2.035156 3.066406 -2.171875 C 2.96875 -2.292969 2.90625 -2.492188 2.859375 -2.710938 C 2.820312 -2.957031 2.796875 -3.261719 2.796875 -3.621094 L 2.796875 -6.476562 C 2.796875 -6.832031 2.820312 -7.140625 2.859375 -7.386719 C 2.90625 -7.617188 2.96875 -7.800781 3.066406 -7.9375 C 3.152344 -8.058594 3.277344 -8.144531 3.433594 -8.207031 C 3.59375 -8.257812 3.804688 -8.292969 4.0625 -8.292969 L 6.929688 -8.292969 C 7.1875 -8.292969 7.398438 -8.257812 7.558594 -8.207031 C 7.714844 -8.144531 7.839844 -8.058594 7.925781 -7.9375 C 8.023438 -7.800781 8.097656 -7.617188 8.132812 -7.386719 C 8.183594 -7.140625 8.195312 -6.832031 8.195312 -6.476562 Z M 8.195312 -6.476562" transform="translate(93.25 77.769)"/></g></g></g><g fill="#FFF"><g><g><path d="M 6.992188 -10.109375 L 1.324219 -10.109375 C 1.226562 -10.109375 0.980469 -10.074219 0.980469 -9.679688 L 0.980469 -8.710938 C 0.980469 -8.332031 1.226562 -8.292969 1.324219 -8.292969 L 6.675781 -8.292969 C 6.980469 -8.292969 7.203125 -8.207031 7.324219 -8.023438 C 7.460938 -7.839844 7.519531 -7.546875 7.519531 -7.140625 C 7.519531 -6.734375 7.460938 -6.441406 7.324219 -6.257812 C 7.203125 -6.074219 6.980469 -5.988281 6.675781 -5.988281 L 1.324219 -5.988281 C 1.226562 -5.988281 0.980469 -5.949219 0.980469 -5.570312 L 0.980469 -0.417969 C 0.980469 -0.0351562 1.226562 0.0117188 1.324219 0.0117188 L 2.453125 0.0117188 C 2.550781 0.0117188 2.796875 -0.0351562 2.796875 -0.417969 L 2.796875 -4.171875 L 6.992188 -4.183594 C 7.828125 -4.183594 8.429688 -4.441406 8.796875 -4.957031 C 9.164062 -5.472656 9.335938 -6.207031 9.335938 -7.175781 L 9.335938 -7.101562 C 9.335938 -8.085938 9.164062 -8.820312 8.796875 -9.324219 C 8.429688 -9.851562 7.828125 -10.109375 6.992188 -10.109375 Z M 6.992188 -10.109375" transform="translate(109.234 77.769)"/></g></g></g><g fill="#FFF"><g><g><path d="M 7.558594 -8.96875 C 7.53125 -9.03125 7.507812 -9.101562 7.484375 -9.152344 C 7.289062 -9.789062 6.699219 -10.242188 6.023438 -10.242188 C 5.71875 -10.242188 5.421875 -10.15625 5.175781 -9.988281 C 5.105469 -9.949219 5.042969 -9.902344 4.992188 -9.863281 C 4.808594 -9.703125 4.625 -9.410156 4.453125 -8.96875 L 1.03125 -0.464844 C 0.992188 -0.355469 0.980469 -0.246094 1.007812 -0.171875 C 1.019531 -0.0976562 1.078125 0.0117188 1.277344 0.0117188 L 2.625 0.0117188 C 2.785156 0.0117188 2.90625 -0.0859375 2.96875 -0.246094 L 3.667969 -2 L 6.355469 -2 C 6.488281 -2 6.613281 -2.0625 6.675781 -2.171875 C 6.746094 -2.269531 6.761719 -2.40625 6.722656 -2.527344 L 6.28125 -3.621094 C 6.21875 -3.765625 6.085938 -3.863281 5.925781 -3.863281 L 4.40625 -3.863281 L 5.976562 -7.839844 C 5.988281 -7.863281 6 -7.875 6 -7.875 L 6.046875 -7.875 C 6.046875 -7.875 6.046875 -7.875 6.0625 -7.851562 L 9.101562 -0.257812 C 9.164062 -0.0859375 9.289062 0.0117188 9.457031 0.0117188 L 10.773438 0.0117188 C 10.96875 0.0117188 11.015625 -0.109375 11.042969 -0.171875 C 11.066406 -0.246094 11.054688 -0.355469 11.003906 -0.464844 Z M 7.558594 -8.96875" transform="translate(118.888 77.769)"/></g></g></g><g fill="#FFF"><g><g><path d="M 9.347656 -7.175781 C 9.347656 -7.164062 9.347656 -7.152344 9.347656 -7.140625 C 9.347656 -7.128906 9.347656 -7.117188 9.347656 -7.101562 Z M 9.582031 -0.527344 L 7.433594 -4.207031 C 8.035156 -4.28125 8.5 -4.539062 8.808594 -4.957031 C 9.152344 -5.460938 9.335938 -6.183594 9.347656 -7.140625 C 9.335938 -8.097656 9.152344 -8.820312 8.808594 -9.324219 C 8.441406 -9.851562 7.828125 -10.109375 6.992188 -10.109375 L 1.335938 -10.109375 C 1.226562 -10.109375 0.980469 -10.074219 0.980469 -9.679688 L 0.980469 -8.710938 C 0.980469 -8.332031 1.226562 -8.292969 1.335938 -8.292969 L 6.675781 -8.292969 C 6.992188 -8.292969 7.203125 -8.207031 7.324219 -8.023438 C 7.460938 -7.839844 7.519531 -7.546875 7.519531 -7.140625 C 7.519531 -6.734375 7.460938 -6.441406 7.324219 -6.257812 C 7.203125 -6.074219 6.992188 -5.988281 6.675781 -5.988281 L 1.335938 -5.988281 C 1.226562 -5.988281 0.980469 -5.949219 0.980469 -5.570312 L 0.980469 -0.417969 C 0.980469 -0.0351562 1.226562 0.0117188 1.335938 0.0117188 L 2.453125 0.0117188 C 2.5625 0.0117188 2.796875 -0.0351562 2.796875 -0.417969 L 2.796875 -4.171875 L 5.386719 -4.171875 L 7.605469 -0.234375 C 7.65625 -0.160156 7.691406 -0.0976562 7.742188 -0.0625 C 7.800781 -0.0117188 7.886719 0.0117188 8 0.0117188 L 9.347656 0.0117188 C 9.496094 0.0117188 9.605469 -0.0859375 9.628906 -0.234375 C 9.644531 -0.355469 9.628906 -0.453125 9.582031 -0.527344 Z M 9.582031 -0.527344" transform="translate(130.271 77.769)"/></g></g></g><g fill="#FFF"><g><g><path d="M 7.558594 -8.96875 C 7.53125 -9.03125 7.507812 -9.101562 7.484375 -9.152344 C 7.289062 -9.789062 6.699219 -10.242188 6.023438 -10.242188 C 5.71875 -10.242188 5.421875 -10.15625 5.175781 -9.988281 C 5.105469 -9.949219 5.042969 -9.902344 4.992188 -9.863281 C 4.808594 -9.703125 4.625 -9.410156 4.453125 -8.96875 L 1.03125 -0.464844 C 0.992188 -0.355469 0.980469 -0.246094 1.007812 -0.171875 C 1.019531 -0.0976562 1.078125 0.0117188 1.277344 0.0117188 L 2.625 0.0117188 C 2.785156 0.0117188 2.90625 -0.0859375 2.96875 -0.246094 L 3.667969 -2 L 6.355469 -2 C 6.488281 -2 6.613281 -2.0625 6.675781 -2.171875 C 6.746094 -2.269531 6.761719 -2.40625 6.722656 -2.527344 L 6.28125 -3.621094 C 6.21875 -3.765625 6.085938 -3.863281 5.925781 -3.863281 L 4.40625 -3.863281 L 5.976562 -7.839844 C 5.988281 -7.863281 6 -7.875 6 -7.875 L 6.046875 -7.875 C 6.046875 -7.875 6.046875 -7.875 6.0625 -7.851562 L 9.101562 -0.257812 C 9.164062 -0.0859375 9.289062 0.0117188 9.457031 0.0117188 L 10.773438 0.0117188 C 10.96875 0.0117188 11.015625 -0.109375 11.042969 -0.171875 C 11.066406 -0.246094 11.054688 -0.355469 11.003906 -0.464844 Z M 7.558594 -8.96875" transform="translate(140.232 77.769)"/></g></g></g><g fill="#FFF"><g><g><path d="M 6.90625 -6.035156 L 3.226562 -6.035156 C 3.042969 -6.035156 2.808594 -6.109375 2.808594 -6.710938 L 2.808594 -7.617188 C 2.808594 -7.839844 2.847656 -8.011719 2.90625 -8.132812 C 2.957031 -8.207031 3.03125 -8.292969 3.238281 -8.292969 L 8.230469 -8.292969 C 8.332031 -8.292969 8.574219 -8.332031 8.574219 -8.710938 L 8.574219 -9.691406 C 8.574219 -10.074219 8.332031 -10.109375 8.230469 -10.109375 L 2.945312 -10.109375 C 2.269531 -10.109375 1.777344 -9.886719 1.460938 -9.433594 C 1.140625 -8.992188 0.980469 -8.402344 0.980469 -7.691406 L 0.980469 -6.761719 C 0.980469 -5.914062 1.152344 -5.226562 1.460938 -4.796875 C 1.839844 -4.292969 2.40625 -4.21875 2.917969 -4.21875 L 6.601562 -4.21875 C 6.785156 -4.21875 7.03125 -4.148438 7.03125 -3.546875 L 7.03125 -2.492188 C 7.03125 -2.269531 6.992188 -2.097656 6.917969 -1.976562 C 6.871094 -1.902344 6.796875 -1.816406 6.589844 -1.816406 L 1.347656 -1.816406 C 1.238281 -1.816406 0.992188 -1.777344 0.992188 -1.398438 L 0.992188 -0.417969 C 0.992188 -0.0351562 1.238281 0 1.347656 0 L 6.882812 0 C 7.558594 0 8.058594 -0.234375 8.378906 -0.6875 C 8.6875 -1.128906 8.84375 -1.707031 8.84375 -2.417969 L 8.84375 -3.496094 C 8.84375 -4.292969 8.6875 -4.917969 8.367188 -5.359375 C 8.035156 -5.804688 7.546875 -6.035156 6.90625 -6.035156 Z M 6.90625 -6.035156" transform="translate(157.258 77.769)"/></g></g></g><g fill="#FFF"><g><g><path d="M 9.457031 -10.109375 L 8.332031 -10.109375 C 8.21875 -10.109375 7.988281 -10.074219 7.988281 -9.691406 L 7.988281 -3.644531 C 7.988281 -3.277344 7.960938 -2.957031 7.925781 -2.722656 C 7.886719 -2.492188 7.816406 -2.304688 7.730469 -2.171875 C 7.632812 -2.046875 7.519531 -1.964844 7.359375 -1.902344 C 7.203125 -1.851562 6.980469 -1.816406 6.722656 -1.816406 L 4.074219 -1.816406 C 3.816406 -1.816406 3.59375 -1.851562 3.433594 -1.902344 C 3.277344 -1.964844 3.164062 -2.046875 3.066406 -2.171875 C 2.980469 -2.304688 2.90625 -2.492188 2.859375 -2.722656 C 2.820312 -2.957031 2.796875 -3.277344 2.796875 -3.644531 L 2.796875 -9.691406 C 2.796875 -10.074219 2.5625 -10.109375 2.453125 -10.109375 L 1.335938 -10.109375 C 1.226562 -10.109375 0.980469 -10.074219 0.980469 -9.691406 L 0.980469 -3.839844 C 0.980469 -3.152344 1.03125 -2.5625 1.140625 -2.085938 C 1.25 -1.59375 1.433594 -1.191406 1.679688 -0.882812 C 1.914062 -0.5625 2.246094 -0.34375 2.625 -0.195312 C 3.003906 -0.0625 3.472656 0 4.011719 0 L 6.773438 0 C 7.3125 0 7.777344 -0.0625 8.160156 -0.195312 C 8.550781 -0.34375 8.871094 -0.5625 9.117188 -0.882812 C 9.359375 -1.191406 9.53125 -1.59375 9.644531 -2.085938 C 9.753906 -2.5625 9.800781 -3.152344 9.800781 -3.839844 L 9.800781 -9.691406 C 9.800781 -10.074219 9.570312 -10.109375 9.457031 -10.109375 Z M 9.457031 -10.109375" transform="translate(166.421 77.769)"/></g></g></g><g fill="#FFF"><g><g><path d="M 7.558594 -8.96875 C 7.53125 -9.03125 7.507812 -9.101562 7.484375 -9.152344 C 7.289062 -9.789062 6.699219 -10.242188 6.023438 -10.242188 C 5.71875 -10.242188 5.421875 -10.15625 5.175781 -9.988281 C 5.105469 -9.949219 5.042969 -9.902344 4.992188 -9.863281 C 4.808594 -9.703125 4.625 -9.410156 4.453125 -8.96875 L 1.03125 -0.464844 C 0.992188 -0.355469 0.980469 -0.246094 1.007812 -0.171875 C 1.019531 -0.0976562 1.078125 0.0117188 1.277344 0.0117188 L 2.625 0.0117188 C 2.785156 0.0117188 2.90625 -0.0859375 2.96875 -0.246094 L 3.667969 -2 L 6.355469 -2 C 6.488281 -2 6.613281 -2.0625 6.675781 -2.171875 C 6.746094 -2.269531 6.761719 -2.40625 6.722656 -2.527344 L 6.28125 -3.621094 C 6.21875 -3.765625 6.085938 -3.863281 5.925781 -3.863281 L 4.40625 -3.863281 L 5.976562 -7.839844 C 5.988281 -7.863281 6 -7.875 6 -7.875 L 6.046875 -7.875 C 6.046875 -7.875 6.046875 -7.875 6.0625 -7.851562 L 9.101562 -0.257812 C 9.164062 -0.0859375 9.289062 0.0117188 9.457031 0.0117188 L 10.773438 0.0117188 C 10.96875 0.0117188 11.015625 -0.109375 11.042969 -0.171875 C 11.066406 -0.246094 11.054688 -0.355469 11.003906 -0.464844 Z M 7.558594 -8.96875" transform="translate(176.541 77.769)"/></g></g></g><g fill="#7ED957"><g><g><path d="M 7.65625 -10.109375 L 3.410156 -10.109375 C 3.300781 -10.109375 3.054688 -10.074219 3.054688 -9.679688 L 3.054688 -8.710938 C 3.054688 -8.332031 3.300781 -8.292969 3.410156 -8.292969 C 3.410156 -8.292969 6.367188 -8.28125 6.367188 -8.269531 L 6.367188 -3.632812 C 6.367188 -3.261719 6.355469 -2.957031 6.304688 -2.710938 C 6.269531 -2.476562 6.207031 -2.292969 6.109375 -2.171875 C 6.023438 -2.035156 5.902344 -1.949219 5.742188 -1.902344 C 5.582031 -1.839844 5.375 -1.816406 5.117188 -1.816406 L 1.324219 -1.816406 C 1.226562 -1.816406 0.980469 -1.765625 0.980469 -1.386719 L 0.980469 -0.417969 C 0.980469 -0.0351562 1.226562 0.0117188 1.324219 0.0117188 L 5.164062 0.0117188 C 5.703125 0.0117188 6.171875 -0.0625 6.550781 -0.195312 C 6.929688 -0.332031 7.261719 -0.5625 7.507812 -0.871094 C 7.742188 -1.191406 7.925781 -1.59375 8.035156 -2.085938 C 8.132812 -2.5625 8.195312 -3.152344 8.195312 -3.839844 L 8.195312 -9.679688 C 8.195312 -9.839844 8.121094 -10.109375 7.65625 -10.109375 Z M 7.65625 -10.109375" transform="translate(193.564 77.769)"/></g></g></g><g fill="#7ED957"><g><g><path d="M 9.335938 -9.214844 C 9.089844 -9.519531 8.773438 -9.753906 8.378906 -9.902344 C 8 -10.035156 7.53125 -10.109375 6.992188 -10.109375 L 4 -10.109375 C 3.460938 -10.109375 3.003906 -10.035156 2.625 -9.902344 C 2.234375 -9.753906 1.914062 -9.519531 1.667969 -9.214844 C 1.433594 -8.90625 1.25 -8.5 1.140625 -8.011719 C 1.03125 -7.53125 0.980469 -6.957031 0.980469 -6.269531 L 0.980469 -3.839844 C 0.980469 -3.152344 1.03125 -2.5625 1.140625 -2.085938 C 1.25 -1.59375 1.433594 -1.191406 1.667969 -0.882812 C 1.914062 -0.5625 2.234375 -0.332031 2.625 -0.195312 C 2.992188 -0.0625 3.460938 0.0117188 4 0.0117188 L 6.992188 0.0117188 C 7.53125 0.0117188 8 -0.0625 8.378906 -0.195312 C 8.773438 -0.332031 9.089844 -0.5625 9.335938 -0.871094 C 9.582031 -1.191406 9.753906 -1.59375 9.863281 -2.085938 C 9.960938 -2.5625 10.023438 -3.152344 10.023438 -3.839844 L 10.023438 -6.269531 C 10.023438 -6.945312 9.960938 -7.53125 9.863281 -8.011719 C 9.753906 -8.5 9.582031 -8.90625 9.335938 -9.214844 Z M 8.195312 -6.476562 L 8.195312 -3.621094 C 8.195312 -3.261719 8.183594 -2.957031 8.132812 -2.710938 C 8.097656 -2.492188 8.023438 -2.292969 7.925781 -2.171875 C 7.839844 -2.035156 7.714844 -1.949219 7.558594 -1.902344 C 7.398438 -1.839844 7.1875 -1.816406 6.929688 -1.816406 L 4.0625 -1.816406 C 3.804688 -1.816406 3.59375 -1.839844 3.433594 -1.902344 C 3.277344 -1.949219 3.152344 -2.035156 3.066406 -2.171875 C 2.96875 -2.292969 2.90625 -2.492188 2.859375 -2.710938 C 2.820312 -2.957031 2.796875 -3.261719 2.796875 -3.621094 L 2.796875 -6.476562 C 2.796875 -6.832031 2.820312 -7.140625 2.859375 -7.386719 C 2.90625 -7.617188 2.96875 -7.800781 3.066406 -7.9375 C 3.152344 -8.058594 3.277344 -8.144531 3.433594 -8.207031 C 3.59375 -8.257812 3.804688 -8.292969 4.0625 -8.292969 L 6.929688 -8.292969 C 7.1875 -8.292969 7.398438 -8.257812 7.558594 -8.207031 C 7.714844 -8.144531 7.839844 -8.058594 7.925781 -7.9375 C 8.023438 -7.800781 8.097656 -7.617188 8.132812 -7.386719 C 8.183594 -7.140625 8.195312 -6.832031 8.195312 -6.476562 Z M 8.195312 -6.476562" transform="translate(202.077 77.769)"/></g></g></g><g fill="#7ED957"><g><g><path d="M 9.289062 -10.109375 L 4.011719 -10.109375 C 3.472656 -10.109375 3.003906 -10.035156 2.625 -9.902344 C 2.246094 -9.753906 1.914062 -9.519531 1.679688 -9.214844 C 1.433594 -8.894531 1.25 -8.5 1.140625 -8.011719 C 1.03125 -7.53125 0.980469 -6.945312 0.980469 -6.269531 L 0.980469 -3.839844 C 0.980469 -3.152344 1.03125 -2.5625 1.140625 -2.074219 C 1.25 -1.59375 1.433594 -1.191406 1.679688 -0.871094 C 1.925781 -0.5625 2.246094 -0.332031 2.625 -0.195312 C 3.003906 -0.0625 3.472656 0.0117188 4.011719 0.0117188 L 8.207031 0.0117188 C 8.660156 0.0117188 9.015625 -0.171875 9.261719 -0.527344 C 9.496094 -0.871094 9.617188 -1.449219 9.617188 -2.269531 L 9.617188 -5.558594 C 9.617188 -6.023438 9.347656 -6.097656 9.1875 -6.097656 L 4.847656 -6.097656 C 4.746094 -6.097656 4.503906 -6.046875 4.503906 -5.65625 L 4.503906 -4.722656 C 4.503906 -4.320312 4.746094 -4.28125 4.847656 -4.28125 L 7.902344 -4.28125 C 7.902344 -4.28125 7.914062 -2.5625 7.914062 -2.5625 C 7.914062 -2.183594 7.851562 -2.023438 7.800781 -1.949219 C 7.742188 -1.851562 7.644531 -1.816406 7.507812 -1.816406 L 4.074219 -1.816406 C 3.816406 -1.816406 3.59375 -1.839844 3.433594 -1.902344 C 3.277344 -1.949219 3.164062 -2.035156 3.066406 -2.171875 C 2.980469 -2.292969 2.90625 -2.476562 2.871094 -2.710938 C 2.820312 -2.957031 2.796875 -3.261719 2.796875 -3.632812 L 2.796875 -6.476562 C 2.796875 -6.847656 2.820312 -7.152344 2.871094 -7.398438 C 2.90625 -7.617188 2.980469 -7.800781 3.066406 -7.9375 C 3.164062 -8.058594 3.277344 -8.144531 3.433594 -8.207031 C 3.59375 -8.257812 3.816406 -8.292969 4.074219 -8.292969 L 9.289062 -8.292969 C 9.386719 -8.292969 9.628906 -8.332031 9.628906 -8.722656 L 9.628906 -9.679688 C 9.628906 -10.058594 9.386719 -10.109375 9.289062 -10.109375 Z M 9.289062 -10.109375" transform="translate(212.418 77.769)"/></g></g></g><g fill="#7ED957"><g><g><path d="M 7.558594 -8.96875 C 7.53125 -9.03125 7.507812 -9.101562 7.484375 -9.152344 C 7.289062 -9.789062 6.699219 -10.242188 6.023438 -10.242188 C 5.71875 -10.242188 5.421875 -10.15625 5.175781 -9.988281 C 5.105469 -9.949219 5.042969 -9.902344 4.992188 -9.863281 C 4.808594 -9.703125 4.625 -9.410156 4.453125 -8.96875 L 1.03125 -0.464844 C 0.992188 -0.355469 0.980469 -0.246094 1.007812 -0.171875 C 1.019531 -0.0976562 1.078125 0.0117188 1.277344 0.0117188 L 2.625 0.0117188 C 2.785156 0.0117188 2.90625 -0.0859375 2.96875 -0.246094 L 3.667969 -2 L 6.355469 -2 C 6.488281 -2 6.613281 -2.0625 6.675781 -2.171875 C 6.746094 -2.269531 6.761719 -2.40625 6.722656 -2.527344 L 6.28125 -3.621094 C 6.21875 -3.765625 6.085938 -3.863281 5.925781 -3.863281 L 4.40625 -3.863281 L 5.976562 -7.839844 C 5.988281 -7.863281 6 -7.875 6 -7.875 L 6.046875 -7.875 C 6.046875 -7.875 6.046875 -7.875 6.0625 -7.851562 L 9.101562 -0.257812 C 9.164062 -0.0859375 9.289062 0.0117188 9.457031 0.0117188 L 10.773438 0.0117188 C 10.96875 0.0117188 11.015625 -0.109375 11.042969 -0.171875 C 11.066406 -0.246094 11.054688 -0.355469 11.003906 -0.464844 Z M 7.558594 -8.96875" transform="translate(222.366 77.769)"/></g></g></g><g fill="#7ED957"><g><g><path d="M 9.457031 -10.109375 L 1.335938 -10.109375 C 1.226562 -10.109375 0.980469 -10.074219 0.980469 -9.691406 L 0.980469 -8.734375 C 0.980469 -8.332031 1.226562 -8.292969 1.335938 -8.292969 L 4.488281 -8.292969 L 4.488281 -0.417969 C 4.488281 -0.0351562 4.734375 0 4.832031 0 L 5.960938 0 C 6.074219 0 6.304688 -0.0351562 6.304688 -0.417969 L 6.304688 -8.292969 L 9.457031 -8.292969 C 9.570312 -8.292969 9.816406 -8.332031 9.816406 -8.734375 L 9.816406 -9.691406 C 9.816406 -10.074219 9.570312 -10.109375 9.457031 -10.109375 Z M 9.457031 -10.109375" transform="translate(233.75 77.769)"/></g></g></g><g fill="#7ED957"><g><g><path d="M 2.453125 -10.109375 L 1.324219 -10.109375 C 1.226562 -10.109375 0.980469 -10.058594 0.980469 -9.679688 L 0.980469 -0.417969 C 0.980469 -0.0351562 1.226562 0.0117188 1.324219 0.0117188 L 2.453125 0.0117188 C 2.550781 0.0117188 2.796875 -0.0351562 2.796875 -0.417969 L 2.796875 -9.679688 C 2.796875 -10.058594 2.550781 -10.109375 2.453125 -10.109375 Z M 2.453125 -10.109375" transform="translate(243.882 77.769)"/></g></g></g><g fill="#7ED957"><g><g><path d="M 9.667969 -10.109375 L 8.574219 -10.109375 C 8.464844 -10.109375 8.230469 -10.074219 8.230469 -9.679688 L 8.230469 -2.304688 C 8.230469 -2.292969 8.230469 -2.292969 8.230469 -2.28125 L 8.171875 -2.28125 C 8.160156 -2.28125 8.144531 -2.28125 8.132812 -2.320312 L 4.257812 -9.214844 C 4.160156 -9.398438 4.074219 -9.542969 3.988281 -9.65625 C 3.902344 -9.777344 3.816406 -9.875 3.730469 -9.9375 C 3.632812 -10.011719 3.519531 -10.058594 3.386719 -10.085938 C 3.261719 -10.097656 3.117188 -10.109375 2.957031 -10.109375 L 2.035156 -10.109375 C 1.679688 -10.109375 1.410156 -9.988281 1.238281 -9.765625 C 1.066406 -9.53125 0.980469 -9.128906 0.980469 -8.527344 L 0.980469 -0.417969 C 0.980469 -0.0351562 1.226562 0.0117188 1.335938 0.0117188 L 2.429688 0.0117188 C 2.539062 0.0117188 2.773438 -0.0351562 2.773438 -0.417969 L 2.773438 -7.789062 C 2.773438 -7.800781 2.773438 -7.816406 2.773438 -7.816406 L 2.832031 -7.816406 C 2.832031 -7.816406 2.847656 -7.816406 2.871094 -7.777344 L 6.761719 -0.882812 C 6.859375 -0.6875 6.957031 -0.539062 7.042969 -0.429688 C 7.128906 -0.308594 7.214844 -0.222656 7.3125 -0.160156 C 7.410156 -0.0859375 7.519531 -0.0507812 7.644531 -0.0234375 C 7.753906 0 7.886719 0.0117188 8.058594 0.0117188 L 8.957031 0.0117188 C 9.3125 0.0117188 9.582031 -0.109375 9.753906 -0.34375 C 9.925781 -0.5625 10.011719 -0.96875 10.011719 -1.570312 L 10.011719 -9.679688 C 10.011719 -10.074219 9.765625 -10.109375 9.667969 -10.109375 Z M 9.667969 -10.109375" transform="translate(246.998 77.769)"/></g></g></g><g fill="#7ED957"><g><g><path d="M 7.558594 -8.96875 C 7.53125 -9.03125 7.507812 -9.101562 7.484375 -9.152344 C 7.289062 -9.789062 6.699219 -10.242188 6.023438 -10.242188 C 5.71875 -10.242188 5.421875 -10.15625 5.175781 -9.988281 C 5.105469 -9.949219 5.042969 -9.902344 4.992188 -9.863281 C 4.808594 -9.703125 4.625 -9.410156 4.453125 -8.96875 L 1.03125 -0.464844 C 0.992188 -0.355469 0.980469 -0.246094 1.007812 -0.171875 C 1.019531 -0.0976562 1.078125 0.0117188 1.277344 0.0117188 L 2.625 0.0117188 C 2.785156 0.0117188 2.90625 -0.0859375 2.96875 -0.246094 L 3.667969 -2 L 6.355469 -2 C 6.488281 -2 6.613281 -2.0625 6.675781 -2.171875 C 6.746094 -2.269531 6.761719 -2.40625 6.722656 -2.527344 L 6.28125 -3.621094 C 6.21875 -3.765625 6.085938 -3.863281 5.925781 -3.863281 L 4.40625 -3.863281 L 5.976562 -7.839844 C 5.988281 -7.863281 6 -7.875 6 -7.875 L 6.046875 -7.875 C 6.046875 -7.875 6.046875 -7.875 6.0625 -7.851562 L 9.101562 -0.257812 C 9.164062 -0.0859375 9.289062 0.0117188 9.457031 0.0117188 L 10.773438 0.0117188 C 10.96875 0.0117188 11.015625 -0.109375 11.042969 -0.171875 C 11.066406 -0.246094 11.054688 -0.355469 11.003906 -0.464844 Z M 7.558594 -8.96875" transform="translate(257.326 77.769)"/></g></g></g><g fill="#7ED957"><g><g><path d="M 9.667969 -10.109375 L 8.574219 -10.109375 C 8.464844 -10.109375 8.230469 -10.074219 8.230469 -9.679688 L 8.230469 -2.304688 C 8.230469 -2.292969 8.230469 -2.292969 8.230469 -2.28125 L 8.171875 -2.28125 C 8.160156 -2.28125 8.144531 -2.28125 8.132812 -2.320312 L 4.257812 -9.214844 C 4.160156 -9.398438 4.074219 -9.542969 3.988281 -9.65625 C 3.902344 -9.777344 3.816406 -9.875 3.730469 -9.9375 C 3.632812 -10.011719 3.519531 -10.058594 3.386719 -10.085938 C 3.261719 -10.097656 3.117188 -10.109375 2.957031 -10.109375 L 2.035156 -10.109375 C 1.679688 -10.109375 1.410156 -9.988281 1.238281 -9.765625 C 1.066406 -9.53125 0.980469 -9.128906 0.980469 -8.527344 L 0.980469 -0.417969 C 0.980469 -0.0351562 1.226562 0.0117188 1.335938 0.0117188 L 2.429688 0.0117188 C 2.539062 0.0117188 2.773438 -0.0351562 2.773438 -0.417969 L 2.773438 -7.789062 C 2.773438 -7.800781 2.773438 -7.816406 2.773438 -7.816406 L 2.832031 -7.816406 C 2.832031 -7.816406 2.847656 -7.816406 2.871094 -7.777344 L 6.761719 -0.882812 C 6.859375 -0.6875 6.957031 -0.539062 7.042969 -0.429688 C 7.128906 -0.308594 7.214844 -0.222656 7.3125 -0.160156 C 7.410156 -0.0859375 7.519531 -0.0507812 7.644531 -0.0234375 C 7.753906 0 7.886719 0.0117188 8.058594 0.0117188 L 8.957031 0.0117188 C 9.3125 0.0117188 9.582031 -0.109375 9.753906 -0.34375 C 9.925781 -0.5625 10.011719 -0.96875 10.011719 -1.570312 L 10.011719 -9.679688 C 10.011719 -10.074219 9.765625 -10.109375 9.667969 -10.109375 Z M 9.667969 -10.109375" transform="translate(274.352 77.769)"/></g></g></g><g fill="#7ED957"><g><g><path d="M 7.570312 -8.980469 C 7.53125 -9.042969 7.507812 -9.117188 7.484375 -9.164062 C 7.300781 -9.800781 6.699219 -10.257812 6.023438 -10.257812 C 5.71875 -10.257812 5.421875 -10.171875 5.175781 -10 C 5.105469 -9.960938 5.042969 -9.914062 4.992188 -9.875 C 4.808594 -9.714844 4.636719 -9.421875 4.453125 -8.980469 L 1.03125 -0.476562 C 0.992188 -0.355469 0.980469 -0.257812 1.007812 -0.171875 C 1.019531 -0.109375 1.078125 0 1.277344 0 L 2.625 0 C 2.785156 0 2.90625 -0.0859375 2.96875 -0.257812 L 3.667969 -2.011719 L 6.367188 -2.011719 C 6.488281 -2.011719 6.613281 -2.074219 6.6875 -2.171875 C 6.761719 -2.28125 6.773438 -2.417969 6.722656 -2.539062 L 6.28125 -3.632812 C 6.21875 -3.777344 6.085938 -3.875 5.925781 -3.875 L 4.40625 -3.875 L 5.988281 -7.851562 C 5.988281 -7.875 6 -7.886719 6 -7.886719 L 6.046875 -7.886719 C 6.046875 -7.886719 6.0625 -7.875 6.0625 -7.863281 L 9.117188 -0.257812 C 9.164062 -0.0859375 9.300781 0 9.457031 0 L 10.785156 0 C 10.96875 0 11.027344 -0.121094 11.042969 -0.171875 C 11.066406 -0.257812 11.054688 -0.355469 11.015625 -0.476562 Z M 8.625 -13.226562 C 8.574219 -13.285156 8.488281 -13.324219 8.390625 -13.324219 C 8.292969 -13.324219 8.21875 -13.285156 8.160156 -13.238281 C 8.144531 -13.238281 8.144531 -13.226562 8.132812 -13.226562 C 8.097656 -13.1875 8.035156 -13.140625 7.960938 -13.066406 C 7.816406 -12.90625 7.667969 -12.808594 7.558594 -12.746094 C 7.433594 -12.699219 7.3125 -12.671875 7.164062 -12.671875 C 6.945312 -12.671875 6.761719 -12.699219 6.589844 -12.769531 C 6.402344 -12.84375 6.246094 -12.917969 6.097656 -13.015625 C 5.988281 -13.089844 5.875 -13.164062 5.765625 -13.226562 C 5.65625 -13.285156 5.53125 -13.347656 5.410156 -13.410156 C 5.152344 -13.53125 4.847656 -13.59375 4.503906 -13.59375 C 4.269531 -13.59375 4.035156 -13.554688 3.816406 -13.46875 C 3.632812 -13.398438 3.484375 -13.324219 3.375 -13.226562 C 3.335938 -13.199219 3.300781 -13.175781 3.261719 -13.140625 C 3.203125 -13.078125 3.152344 -13.003906 3.117188 -12.941406 C 3.078125 -12.855469 3.066406 -12.769531 3.066406 -12.648438 L 3.066406 -11.949219 C 3.066406 -11.742188 3.175781 -11.617188 3.375 -11.617188 C 3.472656 -11.617188 3.546875 -11.644531 3.605469 -11.691406 C 3.65625 -11.730469 3.703125 -11.789062 3.789062 -11.863281 C 3.949219 -12.035156 4.085938 -12.132812 4.207031 -12.183594 C 4.332031 -12.242188 4.453125 -12.269531 4.601562 -12.269531 C 4.808594 -12.269531 5.003906 -12.230469 5.175781 -12.15625 C 5.359375 -12.097656 5.519531 -12.011719 5.667969 -11.914062 C 5.875 -11.777344 6.097656 -11.644531 6.355469 -11.53125 C 6.613281 -11.410156 6.90625 -11.347656 7.25 -11.347656 C 7.484375 -11.347656 7.714844 -11.398438 7.9375 -11.484375 C 8.171875 -11.558594 8.34375 -11.667969 8.488281 -11.789062 C 8.550781 -11.851562 8.601562 -11.925781 8.636719 -11.984375 C 8.6875 -12.070312 8.699219 -12.171875 8.699219 -12.292969 L 8.699219 -12.992188 C 8.699219 -13.089844 8.671875 -13.175781 8.625 -13.226562 Z M 8.625 -13.226562" transform="translate(284.68 77.769)"/></g></g></g><g fill="#7ED957"><g><g><path d="M 9.335938 -9.214844 C 9.089844 -9.519531 8.773438 -9.753906 8.378906 -9.902344 C 8 -10.035156 7.53125 -10.109375 6.992188 -10.109375 L 4 -10.109375 C 3.460938 -10.109375 3.003906 -10.035156 2.625 -9.902344 C 2.234375 -9.753906 1.914062 -9.519531 1.667969 -9.214844 C 1.433594 -8.90625 1.25 -8.5 1.140625 -8.011719 C 1.03125 -7.53125 0.980469 -6.957031 0.980469 -6.269531 L 0.980469 -3.839844 C 0.980469 -3.152344 1.03125 -2.5625 1.140625 -2.085938 C 1.25 -1.59375 1.433594 -1.191406 1.667969 -0.882812 C 1.914062 -0.5625 2.234375 -0.332031 2.625 -0.195312 C 2.992188 -0.0625 3.460938 0.0117188 4 0.0117188 L 6.992188 0.0117188 C 7.53125 0.0117188 8 -0.0625 8.378906 -0.195312 C 8.773438 -0.332031 9.089844 -0.5625 9.335938 -0.871094 C 9.582031 -1.191406 9.753906 -1.59375 9.863281 -2.085938 C 9.960938 -2.5625 10.023438 -3.152344 10.023438 -3.839844 L 10.023438 -6.269531 C 10.023438 -6.945312 9.960938 -7.53125 9.863281 -8.011719 C 9.753906 -8.5 9.582031 -8.90625 9.335938 -9.214844 Z M 8.195312 -6.476562 L 8.195312 -3.621094 C 8.195312 -3.261719 8.183594 -2.957031 8.132812 -2.710938 C 8.097656 -2.492188 8.023438 -2.292969 7.925781 -2.171875 C 7.839844 -2.035156 7.714844 -1.949219 7.558594 -1.902344 C 7.398438 -1.839844 7.1875 -1.816406 6.929688 -1.816406 L 4.0625 -1.816406 C 3.804688 -1.816406 3.59375 -1.839844 3.433594 -1.902344 C 3.277344 -1.949219 3.152344 -2.035156 3.066406 -2.171875 C 2.96875 -2.292969 2.90625 -2.492188 2.859375 -2.710938 C 2.820312 -2.957031 2.796875 -3.261719 2.796875 -3.621094 L 2.796875 -6.476562 C 2.796875 -6.832031 2.820312 -7.140625 2.859375 -7.386719 C 2.90625 -7.617188 2.96875 -7.800781 3.066406 -7.9375 C 3.152344 -8.058594 3.277344 -8.144531 3.433594 -8.207031 C 3.59375 -8.257812 3.804688 -8.292969 4.0625 -8.292969 L 6.929688 -8.292969 C 7.1875 -8.292969 7.398438 -8.257812 7.558594 -8.207031 C 7.714844 -8.144531 7.839844 -8.058594 7.925781 -7.9375 C 8.023438 -7.800781 8.097656 -7.617188 8.132812 -7.386719 C 8.183594 -7.140625 8.195312 -6.832031 8.195312 -6.476562 Z M 8.195312 -6.476562" transform="translate(296.064 77.769)"/></g></g></g><g fill="#7ED957"><g><g><path d="M 7.558594 -8.96875 C 7.53125 -9.03125 7.507812 -9.101562 7.484375 -9.152344 C 7.289062 -9.789062 6.699219 -10.242188 6.023438 -10.242188 C 5.71875 -10.242188 5.421875 -10.15625 5.175781 -9.988281 C 5.105469 -9.949219 5.042969 -9.902344 4.992188 -9.863281 C 4.808594 -9.703125 4.625 -9.410156 4.453125 -8.96875 L 1.03125 -0.464844 C 0.992188 -0.355469 0.980469 -0.246094 1.007812 -0.171875 C 1.019531 -0.0976562 1.078125 0.0117188 1.277344 0.0117188 L 2.625 0.0117188 C 2.785156 0.0117188 2.90625 -0.0859375 2.96875 -0.246094 L 3.667969 -2 L 6.355469 -2 C 6.488281 -2 6.613281 -2.0625 6.675781 -2.171875 C 6.746094 -2.269531 6.761719 -2.40625 6.722656 -2.527344 L 6.28125 -3.621094 C 6.21875 -3.765625 6.085938 -3.863281 5.925781 -3.863281 L 4.40625 -3.863281 L 5.976562 -7.839844 C 5.988281 -7.863281 6 -7.875 6 -7.875 L 6.046875 -7.875 C 6.046875 -7.875 6.046875 -7.875 6.0625 -7.851562 L 9.101562 -0.257812 C 9.164062 -0.0859375 9.289062 0.0117188 9.457031 0.0117188 L 10.773438 0.0117188 C 10.96875 0.0117188 11.015625 -0.109375 11.042969 -0.171875 C 11.066406 -0.246094 11.054688 -0.355469 11.003906 -0.464844 Z M 7.558594 -8.96875" transform="translate(312.048 77.769)"/></g></g></g><g fill="#7ED957"><g><g><path d="M 8.476562 -10.109375 L 4.011719 -10.109375 C 3.472656 -10.109375 3.003906 -10.035156 2.625 -9.902344 C 2.234375 -9.753906 1.914062 -9.519531 1.679688 -9.214844 C 1.433594 -8.90625 1.25 -8.5 1.140625 -8.011719 C 1.03125 -7.53125 0.980469 -6.945312 0.980469 -6.269531 L 0.980469 -3.839844 C 0.980469 -3.152344 1.03125 -2.5625 1.140625 -2.074219 C 1.25 -1.59375 1.433594 -1.191406 1.679688 -0.871094 C 1.925781 -0.5625 2.246094 -0.332031 2.625 -0.195312 C 3.003906 -0.0625 3.472656 0.0117188 4.011719 0.0117188 L 8.476562 0.0117188 C 8.574219 0.0117188 8.820312 -0.0351562 8.820312 -0.417969 L 8.820312 -1.386719 C 8.820312 -1.765625 8.574219 -1.816406 8.476562 -1.816406 L 4.074219 -1.816406 C 3.816406 -1.816406 3.59375 -1.839844 3.433594 -1.902344 C 3.277344 -1.949219 3.164062 -2.035156 3.066406 -2.171875 C 2.96875 -2.292969 2.90625 -2.476562 2.859375 -2.710938 C 2.820312 -2.957031 2.796875 -3.261719 2.796875 -3.632812 L 2.796875 -6.488281 C 2.796875 -6.859375 2.820312 -7.164062 2.859375 -7.398438 C 2.90625 -7.632812 2.96875 -7.800781 3.066406 -7.9375 C 3.164062 -8.074219 3.277344 -8.160156 3.433594 -8.207031 C 3.59375 -8.269531 3.816406 -8.292969 4.074219 -8.292969 L 8.476562 -8.292969 C 8.574219 -8.292969 8.820312 -8.34375 8.820312 -8.734375 L 8.820312 -9.679688 C 8.820312 -10.058594 8.574219 -10.109375 8.476562 -10.109375 Z M 8.476562 -10.109375" transform="translate(323.431 77.769)"/></g></g></g><g fill="#7ED957"><g><g><path d="M 7.558594 -8.96875 C 7.53125 -9.03125 7.507812 -9.101562 7.484375 -9.152344 C 7.289062 -9.789062 6.699219 -10.242188 6.023438 -10.242188 C 5.71875 -10.242188 5.421875 -10.15625 5.175781 -9.988281 C 5.105469 -9.949219 5.042969 -9.902344 4.992188 -9.863281 C 4.808594 -9.703125 4.625 -9.410156 4.453125 -8.96875 L 1.03125 -0.464844 C 0.992188 -0.355469 0.980469 -0.246094 1.007812 -0.171875 C 1.019531 -0.0976562 1.078125 0.0117188 1.277344 0.0117188 L 2.625 0.0117188 C 2.785156 0.0117188 2.90625 -0.0859375 2.96875 -0.246094 L 3.667969 -2 L 6.355469 -2 C 6.488281 -2 6.613281 -2.0625 6.675781 -2.171875 C 6.746094 -2.269531 6.761719 -2.40625 6.722656 -2.527344 L 6.28125 -3.621094 C 6.21875 -3.765625 6.085938 -3.863281 5.925781 -3.863281 L 4.40625 -3.863281 L 5.976562 -7.839844 C 5.988281 -7.863281 6 -7.875 6 -7.875 L 6.046875 -7.875 C 6.046875 -7.875 6.046875 -7.875 6.0625 -7.851562 L 9.101562 -0.257812 C 9.164062 -0.0859375 9.289062 0.0117188 9.457031 0.0117188 L 10.773438 0.0117188 C 10.96875 0.0117188 11.015625 -0.109375 11.042969 -0.171875 C 11.066406 -0.246094 11.054688 -0.355469 11.003906 -0.464844 Z M 7.558594 -8.96875" transform="translate(332.57 77.769)"/></g></g></g><g fill="#7ED957"><g><g><path d="M 9.472656 -6.980469 L 9.472656 -7.667969 C 9.472656 -8.464844 9.3125 -9.078125 8.992188 -9.484375 C 8.671875 -9.902344 8.132812 -10.109375 7.386719 -10.109375 L 1.964844 -10.109375 L 1.964844 -10.097656 C 1.605469 -10.074219 1.300781 -9.875 1.117188 -9.582031 C 1.066406 -9.484375 1.019531 -9.371094 0.992188 -9.273438 L 0.980469 -0.894531 C 1.007812 -0.761719 1.054688 -0.625 1.117188 -0.515625 C 1.3125 -0.183594 1.667969 0.0117188 2.046875 0.0117188 L 7.570312 0.0117188 C 7.9375 0.0117188 8.246094 -0.0507812 8.488281 -0.171875 C 8.746094 -0.292969 8.957031 -0.464844 9.101562 -0.699219 C 9.261719 -0.921875 9.359375 -1.191406 9.433594 -1.507812 C 9.496094 -1.816406 9.53125 -2.171875 9.53125 -2.550781 L 9.53125 -3.375 C 9.53125 -4.183594 9.300781 -4.796875 8.859375 -5.203125 C 9.273438 -5.617188 9.472656 -6.21875 9.472656 -6.980469 Z M 2.785156 -1.878906 L 2.785156 -8.21875 C 2.785156 -8.269531 2.796875 -8.292969 2.808594 -8.292969 L 7.066406 -8.292969 C 7.300781 -8.292969 7.472656 -8.230469 7.570312 -8.121094 C 7.667969 -8.011719 7.714844 -7.816406 7.714844 -7.558594 L 7.714844 -6.710938 C 7.714844 -6.476562 7.667969 -6.292969 7.558594 -6.171875 C 7.460938 -6.0625 7.25 -6 6.929688 -6 L 4.550781 -6 C 4.332031 -6 4.148438 -5.816406 4.148438 -5.59375 L 4.148438 -4.589844 C 4.148438 -4.355469 4.332031 -4.183594 4.550781 -4.183594 L 6.929688 -4.183594 C 7.25 -4.183594 7.460938 -4.109375 7.570312 -3.988281 C 7.667969 -3.863281 7.730469 -3.667969 7.730469 -3.398438 L 7.730469 -2.5625 C 7.730469 -2.28125 7.679688 -2.085938 7.582031 -1.976562 C 7.484375 -1.863281 7.3125 -1.816406 7.066406 -1.816406 L 2.796875 -1.816406 C 2.796875 -1.816406 2.785156 -1.828125 2.785156 -1.878906 Z M 2.785156 -1.878906" transform="translate(343.953 77.769)"/></g></g></g><g fill="#7ED957"><g><g><path d="M 7.558594 -8.96875 C 7.53125 -9.03125 7.507812 -9.101562 7.484375 -9.152344 C 7.289062 -9.789062 6.699219 -10.242188 6.023438 -10.242188 C 5.71875 -10.242188 5.421875 -10.15625 5.175781 -9.988281 C 5.105469 -9.949219 5.042969 -9.902344 4.992188 -9.863281 C 4.808594 -9.703125 4.625 -9.410156 4.453125 -8.96875 L 1.03125 -0.464844 C 0.992188 -0.355469 0.980469 -0.246094 1.007812 -0.171875 C 1.019531 -0.0976562 1.078125 0.0117188 1.277344 0.0117188 L 2.625 0.0117188 C 2.785156 0.0117188 2.90625 -0.0859375 2.96875 -0.246094 L 3.667969 -2 L 6.355469 -2 C 6.488281 -2 6.613281 -2.0625 6.675781 -2.171875 C 6.746094 -2.269531 6.761719 -2.40625 6.722656 -2.527344 L 6.28125 -3.621094 C 6.21875 -3.765625 6.085938 -3.863281 5.925781 -3.863281 L 4.40625 -3.863281 L 5.976562 -7.839844 C 5.988281 -7.863281 6 -7.875 6 -7.875 L 6.046875 -7.875 C 6.046875 -7.875 6.046875 -7.875 6.0625 -7.851562 L 9.101562 -0.257812 C 9.164062 -0.0859375 9.289062 0.0117188 9.457031 0.0117188 L 10.773438 0.0117188 C 10.96875 0.0117188 11.015625 -0.109375 11.042969 -0.171875 C 11.066406 -0.246094 11.054688 -0.355469 11.003906 -0.464844 Z M 7.558594 -8.96875" transform="translate(353.804 77.769)"/></g></g></g><g fill="#7ED957"><g><g><path d="M 9.347656 -7.175781 C 9.347656 -7.164062 9.347656 -7.152344 9.347656 -7.140625 C 9.347656 -7.128906 9.347656 -7.117188 9.347656 -7.101562 Z M 9.582031 -0.527344 L 7.433594 -4.207031 C 8.035156 -4.28125 8.5 -4.539062 8.808594 -4.957031 C 9.152344 -5.460938 9.335938 -6.183594 9.347656 -7.140625 C 9.335938 -8.097656 9.152344 -8.820312 8.808594 -9.324219 C 8.441406 -9.851562 7.828125 -10.109375 6.992188 -10.109375 L 1.335938 -10.109375 C 1.226562 -10.109375 0.980469 -10.074219 0.980469 -9.679688 L 0.980469 -8.710938 C 0.980469 -8.332031 1.226562 -8.292969 1.335938 -8.292969 L 6.675781 -8.292969 C 6.992188 -8.292969 7.203125 -8.207031 7.324219 -8.023438 C 7.460938 -7.839844 7.519531 -7.546875 7.519531 -7.140625 C 7.519531 -6.734375 7.460938 -6.441406 7.324219 -6.257812 C 7.203125 -6.074219 6.992188 -5.988281 6.675781 -5.988281 L 1.335938 -5.988281 C 1.226562 -5.988281 0.980469 -5.949219 0.980469 -5.570312 L 0.980469 -0.417969 C 0.980469 -0.0351562 1.226562 0.0117188 1.335938 0.0117188 L 2.453125 0.0117188 C 2.5625 0.0117188 2.796875 -0.0351562 2.796875 -0.417969 L 2.796875 -4.171875 L 5.386719 -4.171875 L 7.605469 -0.234375 C 7.65625 -0.160156 7.691406 -0.0976562 7.742188 -0.0625 C 7.800781 -0.0117188 7.886719 0.0117188 8 0.0117188 L 9.347656 0.0117188 C 9.496094 0.0117188 9.605469 -0.0859375 9.628906 -0.234375 C 9.644531 -0.355469 9.628906 -0.453125 9.582031 -0.527344 Z M 9.582031 -0.527344" transform="translate(365.187 77.769)"/></g></g></g><g fill="#7ED957"><g><g><path d="M 9.667969 -10.109375 L 8.574219 -10.109375 C 8.464844 -10.109375 8.230469 -10.074219 8.230469 -9.679688 L 8.230469 -2.304688 C 8.230469 -2.292969 8.230469 -2.292969 8.230469 -2.28125 L 8.171875 -2.28125 C 8.160156 -2.28125 8.144531 -2.28125 8.132812 -2.320312 L 4.257812 -9.214844 C 4.160156 -9.398438 4.074219 -9.542969 3.988281 -9.65625 C 3.902344 -9.777344 3.816406 -9.875 3.730469 -9.9375 C 3.632812 -10.011719 3.519531 -10.058594 3.386719 -10.085938 C 3.261719 -10.097656 3.117188 -10.109375 2.957031 -10.109375 L 2.035156 -10.109375 C 1.679688 -10.109375 1.410156 -9.988281 1.238281 -9.765625 C 1.066406 -9.53125 0.980469 -9.128906 0.980469 -8.527344 L 0.980469 -0.417969 C 0.980469 -0.0351562 1.226562 0.0117188 1.335938 0.0117188 L 2.429688 0.0117188 C 2.539062 0.0117188 2.773438 -0.0351562 2.773438 -0.417969 L 2.773438 -7.789062 C 2.773438 -7.800781 2.773438 -7.816406 2.773438 -7.816406 L 2.832031 -7.816406 C 2.832031 -7.816406 2.847656 -7.816406 2.871094 -7.777344 L 6.761719 -0.882812 C 6.859375 -0.6875 6.957031 -0.539062 7.042969 -0.429688 C 7.128906 -0.308594 7.214844 -0.222656 7.3125 -0.160156 C 7.410156 -0.0859375 7.519531 -0.0507812 7.644531 -0.0234375 C 7.753906 0 7.886719 0.0117188 8.058594 0.0117188 L 8.957031 0.0117188 C 9.3125 0.0117188 9.582031 -0.109375 9.753906 -0.34375 C 9.925781 -0.5625 10.011719 -0.96875 10.011719 -1.570312 L 10.011719 -9.679688 C 10.011719 -10.074219 9.765625 -10.109375 9.667969 -10.109375 Z M 9.667969 -10.109375" transform="translate(380.79 77.769)"/></g></g></g><g fill="#7ED957"><g><g><path d="M 9.457031 -10.109375 L 8.332031 -10.109375 C 8.21875 -10.109375 7.988281 -10.074219 7.988281 -9.691406 L 7.988281 -3.644531 C 7.988281 -3.277344 7.960938 -2.957031 7.925781 -2.722656 C 7.886719 -2.492188 7.816406 -2.304688 7.730469 -2.171875 C 7.632812 -2.046875 7.519531 -1.964844 7.359375 -1.902344 C 7.203125 -1.851562 6.980469 -1.816406 6.722656 -1.816406 L 4.074219 -1.816406 C 3.816406 -1.816406 3.59375 -1.851562 3.433594 -1.902344 C 3.277344 -1.964844 3.164062 -2.046875 3.066406 -2.171875 C 2.980469 -2.304688 2.90625 -2.492188 2.859375 -2.722656 C 2.820312 -2.957031 2.796875 -3.277344 2.796875 -3.644531 L 2.796875 -9.691406 C 2.796875 -10.074219 2.5625 -10.109375 2.453125 -10.109375 L 1.335938 -10.109375 C 1.226562 -10.109375 0.980469 -10.074219 0.980469 -9.691406 L 0.980469 -3.839844 C 0.980469 -3.152344 1.03125 -2.5625 1.140625 -2.085938 C 1.25 -1.59375 1.433594 -1.191406 1.679688 -0.882812 C 1.914062 -0.5625 2.246094 -0.34375 2.625 -0.195312 C 3.003906 -0.0625 3.472656 0 4.011719 0 L 6.773438 0 C 7.3125 0 7.777344 -0.0625 8.160156 -0.195312 C 8.550781 -0.34375 8.871094 -0.5625 9.117188 -0.882812 C 9.359375 -1.191406 9.53125 -1.59375 9.644531 -2.085938 C 9.753906 -2.5625 9.800781 -3.152344 9.800781 -3.839844 L 9.800781 -9.691406 C 9.800781 -10.074219 9.570312 -10.109375 9.457031 -10.109375 Z M 9.457031 -10.109375" transform="translate(391.119 77.769)"/></g></g></g><g fill="#7ED957"><g><g><path d="M 9.667969 -10.109375 L 8.574219 -10.109375 C 8.464844 -10.109375 8.230469 -10.074219 8.230469 -9.679688 L 8.230469 -2.304688 C 8.230469 -2.292969 8.230469 -2.292969 8.230469 -2.28125 L 8.171875 -2.28125 C 8.160156 -2.28125 8.144531 -2.28125 8.132812 -2.320312 L 4.257812 -9.214844 C 4.160156 -9.398438 4.074219 -9.542969 3.988281 -9.65625 C 3.902344 -9.777344 3.816406 -9.875 3.730469 -9.9375 C 3.632812 -10.011719 3.519531 -10.058594 3.386719 -10.085938 C 3.261719 -10.097656 3.117188 -10.109375 2.957031 -10.109375 L 2.035156 -10.109375 C 1.679688 -10.109375 1.410156 -9.988281 1.238281 -9.765625 C 1.066406 -9.53125 0.980469 -9.128906 0.980469 -8.527344 L 0.980469 -0.417969 C 0.980469 -0.0351562 1.226562 0.0117188 1.335938 0.0117188 L 2.429688 0.0117188 C 2.539062 0.0117188 2.773438 -0.0351562 2.773438 -0.417969 L 2.773438 -7.789062 C 2.773438 -7.800781 2.773438 -7.816406 2.773438 -7.816406 L 2.832031 -7.816406 C 2.832031 -7.816406 2.847656 -7.816406 2.871094 -7.777344 L 6.761719 -0.882812 C 6.859375 -0.6875 6.957031 -0.539062 7.042969 -0.429688 C 7.128906 -0.308594 7.214844 -0.222656 7.3125 -0.160156 C 7.410156 -0.0859375 7.519531 -0.0507812 7.644531 -0.0234375 C 7.753906 0 7.886719 0.0117188 8.058594 0.0117188 L 8.957031 0.0117188 C 9.3125 0.0117188 9.582031 -0.109375 9.753906 -0.34375 C 9.925781 -0.5625 10.011719 -0.96875 10.011719 -1.570312 L 10.011719 -9.679688 C 10.011719 -10.074219 9.765625 -10.109375 9.667969 -10.109375 Z M 9.667969 -10.109375" transform="translate(401.239 77.769)"/></g></g></g><g fill="#7ED957"><g><g><path d="M 8.476562 -10.109375 L 4.011719 -10.109375 C 3.472656 -10.109375 3.003906 -10.035156 2.625 -9.902344 C 2.234375 -9.753906 1.914062 -9.519531 1.679688 -9.214844 C 1.433594 -8.90625 1.25 -8.5 1.140625 -8.011719 C 1.03125 -7.53125 0.980469 -6.945312 0.980469 -6.269531 L 0.980469 -3.839844 C 0.980469 -3.152344 1.03125 -2.5625 1.140625 -2.074219 C 1.25 -1.59375 1.433594 -1.191406 1.679688 -0.871094 C 1.925781 -0.5625 2.246094 -0.332031 2.625 -0.195312 C 3.003906 -0.0625 3.472656 0.0117188 4.011719 0.0117188 L 8.476562 0.0117188 C 8.574219 0.0117188 8.820312 -0.0351562 8.820312 -0.417969 L 8.820312 -1.386719 C 8.820312 -1.765625 8.574219 -1.816406 8.476562 -1.816406 L 4.074219 -1.816406 C 3.816406 -1.816406 3.59375 -1.839844 3.433594 -1.902344 C 3.277344 -1.949219 3.164062 -2.035156 3.066406 -2.171875 C 2.96875 -2.292969 2.90625 -2.476562 2.859375 -2.710938 C 2.820312 -2.957031 2.796875 -3.261719 2.796875 -3.632812 L 2.796875 -6.488281 C 2.796875 -6.859375 2.820312 -7.164062 2.859375 -7.398438 C 2.90625 -7.632812 2.96875 -7.800781 3.066406 -7.9375 C 3.164062 -8.074219 3.277344 -8.160156 3.433594 -8.207031 C 3.59375 -8.269531 3.816406 -8.292969 4.074219 -8.292969 L 8.476562 -8.292969 C 8.574219 -8.292969 8.820312 -8.34375 8.820312 -8.734375 L 8.820312 -9.679688 C 8.820312 -10.058594 8.574219 -10.109375 8.476562 -10.109375 Z M 8.476562 -10.109375" transform="translate(411.567 77.769)"/></g></g></g><g fill="#7ED957"><g><g><path d="M 7.558594 -8.96875 C 7.53125 -9.03125 7.507812 -9.101562 7.484375 -9.152344 C 7.289062 -9.789062 6.699219 -10.242188 6.023438 -10.242188 C 5.71875 -10.242188 5.421875 -10.15625 5.175781 -9.988281 C 5.105469 -9.949219 5.042969 -9.902344 4.992188 -9.863281 C 4.808594 -9.703125 4.625 -9.410156 4.453125 -8.96875 L 1.03125 -0.464844 C 0.992188 -0.355469 0.980469 -0.246094 1.007812 -0.171875 C 1.019531 -0.0976562 1.078125 0.0117188 1.277344 0.0117188 L 2.625 0.0117188 C 2.785156 0.0117188 2.90625 -0.0859375 2.96875 -0.246094 L 3.667969 -2 L 6.355469 -2 C 6.488281 -2 6.613281 -2.0625 6.675781 -2.171875 C 6.746094 -2.269531 6.761719 -2.40625 6.722656 -2.527344 L 6.28125 -3.621094 C 6.21875 -3.765625 6.085938 -3.863281 5.925781 -3.863281 L 4.40625 -3.863281 L 5.976562 -7.839844 C 5.988281 -7.863281 6 -7.875 6 -7.875 L 6.046875 -7.875 C 6.046875 -7.875 6.046875 -7.875 6.0625 -7.851562 L 9.101562 -0.257812 C 9.164062 -0.0859375 9.289062 0.0117188 9.457031 0.0117188 L 10.773438 0.0117188 C 10.96875 0.0117188 11.015625 -0.109375 11.042969 -0.171875 C 11.066406 -0.246094 11.054688 -0.355469 11.003906 -0.464844 Z M 7.558594 -8.96875" transform="translate(420.706 77.769)"/></g></g></g><g fill="#7ED957"><g><g><path d="M 2.515625 -10.550781 L 1.335938 -10.550781 C 1.117188 -10.550781 0.980469 -10.414062 0.980469 -10.15625 L 1.277344 -3.078125 C 1.289062 -2.75 1.519531 -2.710938 1.621094 -2.710938 L 2.234375 -2.710938 C 2.332031 -2.710938 2.5625 -2.75 2.578125 -3.078125 L 2.871094 -10.15625 C 2.871094 -10.414062 2.734375 -10.550781 2.515625 -10.550781 Z M 2.367188 -1.742188 L 1.570312 -1.742188 C 1.300781 -1.742188 1.09375 -1.535156 1.09375 -1.261719 L 1.09375 -0.464844 C 1.09375 -0.195312 1.300781 0.0117188 1.570312 0.0117188 L 2.367188 0.0117188 C 2.625 0.0117188 2.847656 -0.195312 2.847656 -0.464844 L 2.847656 -1.261719 C 2.847656 -1.535156 2.625 -1.742188 2.367188 -1.742188 Z M 2.367188 -1.742188" transform="translate(432.09 77.769)"/></g></g></g></svg>