<svg xmlns="http://www.w3.org/2000/svg" width="600" viewBox="0 0 600 195" height="195" version="1.0"><defs><clipPath id="a"><path d="M 5 57 L 97 57 L 97 169 L 5 169 Z M 5 57"/></clipPath><clipPath id="b"><path d="M 75.265625 181.390625 L 3.511719 100.410156 L 95.101562 19.253906 L 166.855469 100.230469 Z M 75.265625 181.390625"/></clipPath><clipPath id="c"><path d="M 75.265625 181.390625 L 3.511719 100.410156 L 95.101562 19.253906 L 166.855469 100.230469 Z M 75.265625 181.390625"/></clipPath><clipPath id="d"><path d="M 71.605469 177.257812 L 3.554688 100.460938 L 65.324219 45.722656 L 133.375 122.519531 Z M 71.605469 177.257812"/></clipPath><clipPath id="e"><path d="M 71.605469 177.257812 L 3.605469 100.515625 L 65.375 45.78125 L 133.375 122.519531 Z M 71.605469 177.257812"/></clipPath><clipPath id="f"><path d="M 38 31 L 142 31 L 142 160 L 38 160 Z M 38 31"/></clipPath><clipPath id="g"><path d="M 75.265625 181.390625 L 3.511719 100.410156 L 95.101562 19.253906 L 166.855469 100.230469 Z M 75.265625 181.390625"/></clipPath><clipPath id="h"><path d="M 75.265625 181.390625 L 3.511719 100.410156 L 95.101562 19.253906 L 166.855469 100.230469 Z M 75.265625 181.390625"/></clipPath><clipPath id="i"><path d="M 72.535156 166.675781 L 12.894531 99.371094 L 98.914062 23.148438 L 158.554688 90.457031 Z M 72.535156 166.675781"/></clipPath><clipPath id="j"><path d="M 72.535156 166.675781 L 12.894531 99.371094 L 98.710938 23.328125 L 158.351562 90.632812 Z M 72.535156 166.675781"/></clipPath><clipPath id="k"><path d="M 63 41 L 132 41 L 132 159 L 63 159 Z M 63 41"/></clipPath><clipPath id="l"><path d="M 75.265625 181.390625 L 3.511719 100.410156 L 95.101562 19.253906 L 166.855469 100.230469 Z M 75.265625 181.390625"/></clipPath><clipPath id="m"><path d="M 75.265625 181.390625 L 3.511719 100.410156 L 95.101562 19.253906 L 166.855469 100.230469 Z M 75.265625 181.390625"/></clipPath><clipPath id="n"><path d="M 73 41 L 166 41 L 166 143 L 73 143 Z M 73 41"/></clipPath><clipPath id="o"><path d="M 75.265625 181.390625 L 3.511719 100.410156 L 95.101562 19.253906 L 166.855469 100.230469 Z M 75.265625 181.390625"/></clipPath><clipPath id="p"><path d="M 75.265625 181.390625 L 3.511719 100.410156 L 95.101562 19.253906 L 166.855469 100.230469 Z M 75.265625 181.390625"/></clipPath></defs><g clip-path="url(#a)"><g clip-path="url(#b)"><g clip-path="url(#c)"><g clip-path="url(#d)"><g clip-path="url(#e)"><path fill="#7ED957" d="M 33.425781 134.167969 C 37.320312 138.5625 42.734375 140.808594 48.183594 140.828125 C 48.730469 140.914062 49.679688 141.171875 50.394531 141.980469 L 50.425781 141.957031 L 52.617188 144.429688 L 52.585938 144.457031 C 53.304688 145.265625 53.449219 146.234375 53.464844 146.789062 C 52.828125 152.203125 54.40625 157.847656 58.300781 162.242188 C 65.5625 170.4375 78.121094 171.175781 86.347656 163.886719 C 94.574219 156.597656 95.351562 144.042969 88.089844 135.847656 C 88.039062 135.789062 87.984375 135.734375 87.929688 135.679688 C 87.882812 135.621094 87.835938 135.558594 87.785156 135.503906 L 87.8125 135.476562 L 63.546875 108.09375 L 63.519531 108.117188 C 63.46875 108.0625 63.414062 108.007812 63.363281 107.949219 C 63.3125 107.890625 63.265625 107.832031 63.214844 107.773438 C 55.949219 99.578125 43.394531 98.839844 35.167969 106.128906 C 26.941406 113.417969 26.160156 125.972656 33.425781 134.167969 Z M 6.40625 98.035156 L 48.058594 61.128906 C 53.542969 56.265625 61.9375 56.789062 66.753906 62.222656 C 71.597656 67.6875 71.078125 76.058594 65.59375 80.917969 L 64.941406 81.492188 C 64.847656 81.605469 64.75 81.714844 64.636719 81.816406 L 62.789062 83.453125 C 59.699219 86.1875 59.40625 90.917969 62.132812 93.992188 C 64.859375 97.070312 69.589844 97.347656 72.675781 94.613281 L 92.824219 76.757812 L 96.648438 81.074219 L 76.5 98.925781 C 71.015625 103.785156 62.648438 103.296875 57.804688 97.832031 C 52.960938 92.367188 53.480469 83.996094 58.964844 79.136719 L 59.730469 78.460938 C 59.824219 78.34375 59.925781 78.238281 60.039062 78.136719 L 61.769531 76.601562 C 64.859375 73.867188 65.152344 69.136719 62.425781 66.0625 C 59.695312 62.980469 54.96875 62.703125 51.878906 65.441406 L 10.226562 102.351562 C 9.042969 103.398438 7.195312 103.289062 6.152344 102.109375 C 5.105469 100.933594 5.222656 99.082031 6.40625 98.035156"/></g></g></g></g></g><g clip-path="url(#f)"><g clip-path="url(#g)"><g clip-path="url(#h)"><g clip-path="url(#i)"><g clip-path="url(#j)"><path fill="#49B5FF" d="M 75.660156 158.105469 C 74.140625 156.390625 74.304688 153.761719 76.023438 152.238281 C 77.746094 150.714844 80.375 150.867188 81.894531 152.582031 C 83.414062 154.296875 83.25 156.925781 81.53125 158.449219 C 79.808594 159.976562 77.179688 159.820312 75.660156 158.105469 Z M 76.339844 147.183594 C 74.816406 145.46875 74.980469 142.839844 76.703125 141.316406 C 78.425781 139.789062 81.054688 139.945312 82.574219 141.660156 C 84.09375 143.375 83.929688 146.003906 82.207031 147.527344 C 80.488281 149.054688 77.859375 148.898438 76.339844 147.183594 Z M 40.519531 112.171875 C 42.28125 110.609375 45 110.769531 46.554688 112.523438 L 48.769531 115.027344 L 51.308594 112.773438 C 53.070312 111.214844 55.789062 111.375 57.34375 113.128906 C 58.898438 114.882812 58.730469 117.601562 56.96875 119.160156 L 54.429688 121.414062 L 56.671875 123.941406 C 58.226562 125.699219 58.03125 128.386719 56.273438 129.945312 C 54.511719 131.503906 51.792969 131.347656 50.238281 129.59375 L 48.019531 127.089844 L 45.511719 129.316406 C 43.75 130.875 41.03125 130.714844 39.476562 128.960938 C 37.921875 127.207031 38.089844 124.488281 39.851562 122.929688 L 42.363281 120.703125 L 40.144531 118.203125 C 38.589844 116.449219 38.761719 113.730469 40.519531 112.171875 Z M 94.707031 42.535156 C 96.226562 44.253906 96.066406 46.878906 94.34375 48.40625 C 92.621094 49.933594 89.992188 49.777344 88.472656 48.0625 C 86.953125 46.347656 87.117188 43.71875 88.835938 42.191406 C 90.558594 40.667969 93.1875 40.820312 94.707031 42.535156 Z M 94.027344 53.460938 C 95.546875 55.175781 95.386719 57.800781 93.664062 59.328125 C 91.941406 60.851562 89.3125 60.699219 87.792969 58.984375 C 86.273438 57.269531 86.4375 54.640625 88.160156 53.117188 C 89.882812 51.589844 92.507812 51.746094 94.027344 53.460938 Z M 120.128906 71.050781 L 122.347656 73.554688 L 124.859375 71.328125 C 126.648438 69.742188 129.335938 69.925781 130.890625 71.679688 C 132.445312 73.4375 132.277344 76.152344 130.515625 77.714844 L 128.003906 79.9375 L 130.246094 82.46875 C 131.800781 84.222656 131.632812 86.941406 129.871094 88.5 C 128.113281 90.0625 125.394531 89.902344 123.839844 88.148438 L 121.597656 85.617188 L 119.054688 87.867188 C 117.296875 89.429688 114.578125 89.269531 113.023438 87.515625 C 111.46875 85.761719 111.636719 83.042969 113.398438 81.484375 L 115.9375 79.230469 L 113.71875 76.726562 C 112.140625 74.945312 112.335938 72.257812 114.09375 70.699219 C 115.855469 69.136719 118.574219 69.296875 120.128906 71.050781 Z M 82.277344 64.796875 C 82.328125 64.855469 82.382812 64.910156 82.433594 64.964844 C 82.484375 65.023438 82.53125 65.082031 82.585938 65.140625 L 82.554688 65.167969 L 106.820312 92.550781 L 106.847656 92.523438 C 106.898438 92.582031 106.953125 92.636719 107.003906 92.695312 C 107.054688 92.75 107.101562 92.8125 107.152344 92.867188 C 114.417969 101.066406 126.972656 101.800781 135.199219 94.515625 C 143.425781 87.226562 144.203125 74.667969 136.941406 66.472656 C 133.046875 62.078125 127.636719 59.832031 122.183594 59.8125 C 121.636719 59.730469 120.6875 59.472656 119.972656 58.660156 L 119.941406 58.6875 L 117.75 56.214844 L 117.777344 56.1875 C 117.0625 55.378906 116.917969 54.40625 116.902344 53.855469 C 117.539062 48.441406 115.960938 42.792969 112.066406 38.398438 C 104.804688 30.203125 92.246094 29.46875 84.019531 36.757812 C 75.796875 44.046875 75.015625 56.597656 82.277344 64.796875"/></g></g></g></g></g><g clip-path="url(#k)"><g clip-path="url(#l)"><g clip-path="url(#m)"><path fill="#570AB8" d="M 88.472656 48.0625 C 86.953125 46.347656 87.117188 43.71875 88.835938 42.191406 C 90.558594 40.667969 93.1875 40.820312 94.707031 42.535156 C 96.226562 44.253906 96.066406 46.878906 94.34375 48.40625 C 92.621094 49.933594 89.992188 49.777344 88.472656 48.0625 Z M 87.792969 58.984375 C 86.273438 57.269531 86.4375 54.640625 88.160156 53.117188 C 89.882812 51.589844 92.507812 51.746094 94.027344 53.460938 C 95.546875 55.175781 95.386719 57.800781 93.664062 59.328125 C 91.941406 60.851562 89.3125 60.699219 87.792969 58.984375 Z M 113.71875 76.726562 L 115.9375 79.230469 L 113.398438 81.484375 C 111.636719 83.042969 111.46875 85.761719 113.023438 87.515625 C 114.578125 89.269531 117.296875 89.429688 119.054688 87.867188 L 121.597656 85.617188 L 123.839844 88.148438 C 125.394531 89.902344 128.113281 90.0625 129.871094 88.5 C 131.632812 86.941406 131.800781 84.222656 130.246094 82.46875 L 128.003906 79.9375 L 130.515625 77.714844 C 132.277344 76.152344 132.445312 73.4375 130.890625 71.679688 C 129.335938 69.925781 126.648438 69.742188 124.859375 71.328125 L 122.347656 73.554688 L 120.128906 71.050781 C 118.574219 69.296875 115.855469 69.136719 114.09375 70.699219 C 112.335938 72.257812 112.140625 74.945312 113.71875 76.726562 Z M 65.414062 146.542969 C 63.894531 144.828125 64.058594 142.199219 65.777344 140.675781 C 67.5 139.148438 70.128906 139.304688 71.648438 141.019531 C 73.167969 142.734375 73.003906 145.363281 71.285156 146.886719 C 69.5625 148.414062 66.933594 148.257812 65.414062 146.542969 Z M 64.765625 157.441406 C 63.242188 155.726562 63.40625 153.097656 65.128906 151.570312 C 66.847656 150.046875 69.476562 150.199219 71 151.917969 C 72.519531 153.632812 72.355469 156.261719 70.632812 157.785156 C 68.914062 159.308594 66.285156 159.15625 64.765625 157.441406"/></g></g></g><g clip-path="url(#n)"><g clip-path="url(#o)"><g clip-path="url(#p)"><path fill="#FF4F63" d="M 99.398438 48.703125 C 97.878906 46.988281 98.042969 44.359375 99.761719 42.832031 C 101.484375 41.308594 104.113281 41.460938 105.632812 43.175781 C 107.152344 44.890625 106.988281 47.519531 105.265625 49.046875 C 103.546875 50.570312 100.917969 50.417969 99.398438 48.703125 Z M 77.542969 123.882812 L 97.6875 106.03125 C 100.777344 103.292969 105.507812 103.570312 108.234375 106.648438 C 110.960938 109.726562 110.667969 114.453125 107.578125 117.191406 L 105.730469 118.828125 C 105.617188 118.929688 105.515625 119.039062 105.425781 119.152344 L 104.773438 119.726562 C 99.289062 124.585938 98.769531 132.957031 103.613281 138.421875 C 108.457031 143.886719 116.824219 144.375 122.308594 139.515625 L 164.046875 102.53125 C 165.230469 101.480469 165.347656 99.636719 164.300781 98.457031 C 163.230469 97.246094 161.4375 97.140625 160.226562 98.214844 L 118.488281 135.199219 C 115.398438 137.9375 110.667969 137.660156 107.941406 134.585938 C 105.214844 131.507812 105.507812 126.777344 108.597656 124.039062 L 110.328125 122.507812 C 110.441406 122.40625 110.542969 122.296875 110.636719 122.183594 L 111.402344 121.503906 C 116.886719 116.644531 117.40625 108.277344 112.5625 102.8125 C 107.746094 97.375 99.351562 96.855469 93.867188 101.714844 L 73.71875 119.570312 Z M 98.71875 59.625 C 97.199219 57.910156 97.359375 55.28125 99.082031 53.753906 C 100.804688 52.230469 103.433594 52.382812 104.953125 54.097656 C 106.472656 55.816406 106.308594 58.441406 104.589844 59.96875 C 102.867188 61.496094 100.238281 61.339844 98.71875 59.625"/></g></g></g><g fill="#FFF"><g><g><path d="M 42.070312 -45.792969 L 18.171875 -45.792969 C 15.726562 -45.792969 13.617188 -45.460938 11.894531 -44.847656 C 10.171875 -44.183594 8.667969 -43.125 7.613281 -41.738281 C 6.503906 -40.292969 5.667969 -38.511719 5.167969 -36.289062 C 4.667969 -34.121094 4.445312 -31.457031 4.445312 -28.398438 L 4.445312 -17.394531 C 4.445312 -14.28125 4.667969 -11.613281 5.167969 -9.390625 C 5.667969 -7.226562 6.503906 -5.390625 7.613281 -3.945312 C 8.726562 -2.554688 10.171875 -1.5 11.894531 -0.890625 C 13.617188 -0.277344 15.726562 0.0546875 18.171875 0.0546875 L 37.179688 0.0546875 C 39.234375 0.0546875 40.847656 -0.777344 41.960938 -2.390625 C 43.015625 -3.945312 43.570312 -6.558594 43.570312 -10.28125 L 43.570312 -25.175781 C 43.570312 -27.289062 42.347656 -27.621094 41.625 -27.621094 L 21.953125 -27.621094 C 21.507812 -27.621094 20.394531 -27.398438 20.394531 -25.621094 L 20.394531 -21.394531 C 20.394531 -19.5625 21.507812 -19.394531 21.953125 -19.394531 L 35.789062 -19.394531 C 35.789062 -19.394531 35.847656 -11.613281 35.847656 -11.613281 C 35.847656 -9.890625 35.566406 -9.167969 35.34375 -8.835938 C 35.066406 -8.390625 34.625 -8.226562 34.011719 -8.226562 L 18.449219 -8.226562 C 17.285156 -8.226562 16.285156 -8.335938 15.5625 -8.613281 C 14.839844 -8.835938 14.339844 -9.226562 13.894531 -9.835938 C 13.503906 -10.390625 13.171875 -11.226562 13.003906 -12.28125 C 12.78125 -13.394531 12.671875 -14.78125 12.671875 -16.449219 L 12.671875 -29.34375 C 12.671875 -31.011719 12.78125 -32.398438 13.003906 -33.511719 C 13.171875 -34.511719 13.503906 -35.34375 13.894531 -35.957031 C 14.339844 -36.511719 14.839844 -36.902344 15.5625 -37.179688 C 16.285156 -37.402344 17.285156 -37.570312 18.449219 -37.570312 L 42.070312 -37.570312 C 42.515625 -37.570312 43.625 -37.734375 43.625 -39.515625 L 43.625 -43.847656 C 43.625 -45.570312 42.515625 -45.792969 42.070312 -45.792969 Z M 42.070312 -45.792969" transform="translate(179.265 120.114)"/></g></g></g><g fill="#FFF"><g><g><path d="M 34.234375 -40.625 C 34.121094 -40.902344 34.011719 -41.238281 33.902344 -41.457031 C 33.011719 -44.347656 30.34375 -46.40625 27.289062 -46.40625 C 25.898438 -46.40625 24.5625 -46.015625 23.453125 -45.238281 C 23.117188 -45.070312 22.839844 -44.847656 22.617188 -44.683594 C 21.785156 -43.960938 20.953125 -42.625 20.171875 -40.625 L 4.667969 -2.113281 C 4.5 -1.613281 4.445312 -1.113281 4.558594 -0.777344 C 4.613281 -0.445312 4.890625 0.0546875 5.78125 0.0546875 L 11.894531 0.0546875 C 12.617188 0.0546875 13.171875 -0.390625 13.449219 -1.113281 L 16.617188 -9.058594 L 28.789062 -9.058594 C 29.398438 -9.058594 29.953125 -9.335938 30.234375 -9.835938 C 30.566406 -10.28125 30.621094 -10.894531 30.453125 -11.449219 L 28.453125 -16.394531 C 28.175781 -17.0625 27.566406 -17.507812 26.84375 -17.507812 L 19.953125 -17.507812 L 27.066406 -35.511719 C 27.121094 -35.625 27.175781 -35.679688 27.175781 -35.679688 L 27.398438 -35.679688 C 27.398438 -35.679688 27.398438 -35.679688 27.453125 -35.566406 L 41.238281 -1.167969 C 41.515625 -0.390625 42.070312 0.0546875 42.847656 0.0546875 L 48.792969 0.0546875 C 49.683594 0.0546875 49.90625 -0.5 50.015625 -0.777344 C 50.128906 -1.113281 50.074219 -1.613281 49.851562 -2.113281 Z M 34.234375 -40.625" transform="translate(224.325 120.114)"/></g></g></g><g fill="#FFF"><g><g><path d="M 50.851562 -45.792969 L 45.847656 -45.792969 C 45.070312 -45.792969 44.460938 -45.738281 43.902344 -45.570312 C 43.347656 -45.40625 42.847656 -45.125 42.402344 -44.738281 C 42.015625 -44.292969 41.625 -43.792969 41.292969 -43.125 C 40.957031 -42.460938 40.679688 -41.625 40.347656 -40.570312 L 30.511719 -16.003906 C 30.453125 -15.785156 30.398438 -15.785156 30.34375 -15.785156 L 29.789062 -15.785156 C 29.789062 -15.785156 29.675781 -15.785156 29.621094 -16.003906 L 19.839844 -40.570312 C 19.507812 -41.625 19.171875 -42.460938 18.894531 -43.125 C 18.5625 -43.792969 18.171875 -44.292969 17.785156 -44.738281 C 17.339844 -45.125 16.785156 -45.40625 16.226562 -45.570312 C 15.671875 -45.738281 15.003906 -45.792969 14.28125 -45.792969 L 9.167969 -45.792969 C 7.28125 -45.792969 6.003906 -45.183594 5.335938 -44.015625 C 4.722656 -42.960938 4.445312 -41.179688 4.445312 -38.625 L 4.445312 -1.890625 C 4.445312 -0.167969 5.558594 0.0546875 6.058594 0.0546875 L 10.835938 0.0546875 C 11.335938 0.0546875 12.394531 -0.167969 12.394531 -1.890625 L 12.394531 -35.289062 C 12.394531 -35.34375 12.394531 -35.402344 12.394531 -35.402344 L 12.671875 -35.402344 C 12.726562 -35.402344 12.78125 -35.402344 12.835938 -35.234375 L 22.339844 -11.726562 C 22.730469 -10.558594 23.117188 -9.558594 23.507812 -8.726562 C 23.953125 -7.890625 24.398438 -7.226562 24.84375 -6.667969 C 25.398438 -6.113281 25.953125 -5.667969 26.621094 -5.445312 C 27.289062 -5.222656 28.007812 -5.113281 28.84375 -5.113281 L 31.121094 -5.113281 C 31.957031 -5.113281 32.734375 -5.222656 33.34375 -5.445312 C 34.011719 -5.667969 34.625 -6.113281 35.125 -6.667969 C 35.566406 -7.226562 36.066406 -7.890625 36.457031 -8.726562 C 36.847656 -9.558594 37.234375 -10.558594 37.625 -11.726562 L 47.183594 -35.289062 C 47.183594 -35.402344 47.238281 -35.402344 47.292969 -35.402344 L 47.570312 -35.402344 C 47.570312 -35.402344 47.570312 -35.34375 47.570312 -35.289062 L 47.570312 -1.890625 C 47.570312 -0.167969 48.683594 0.0546875 49.128906 0.0546875 L 53.90625 0.0546875 C 54.40625 0.0546875 55.519531 -0.167969 55.519531 -1.890625 L 55.519531 -38.625 C 55.519531 -41.179688 55.242188 -42.960938 54.628906 -44.015625 C 53.964844 -45.183594 52.683594 -45.792969 50.851562 -45.792969 Z M 50.851562 -45.792969" transform="translate(275.886 120.114)"/></g></g></g><g fill="#FFF"><g><g><path d="M 37.847656 -9.949219 L 18.285156 -9.949219 C 17.117188 -9.949219 16.171875 -10.113281 15.394531 -10.335938 C 14.671875 -10.613281 14.171875 -11.003906 13.726562 -11.558594 C 13.28125 -12.171875 12.949219 -13.003906 12.78125 -14.058594 C 12.726562 -14.339844 12.726562 -14.726562 12.671875 -15.003906 C 12.671875 -15.003906 12.726562 -19.007812 12.78125 -19.007812 L 37.625 -19.007812 C 38.070312 -19.007812 39.179688 -19.230469 39.179688 -20.953125 L 39.179688 -25.34375 C 39.179688 -27.066406 38.070312 -27.230469 37.625 -27.230469 L 8.949219 -27.175781 C 7.335938 -27.066406 5.945312 -26.230469 5.167969 -24.84375 C 4.890625 -24.398438 4.667969 -23.953125 4.558594 -23.453125 L 4.445312 -16.449219 L 4.445312 -16.171875 C 4.5 -13.558594 4.78125 -11.335938 5.167969 -9.503906 C 5.667969 -7.28125 6.503906 -5.445312 7.558594 -4.058594 C 8.667969 -2.613281 10.113281 -1.613281 11.894531 -1 C 13.617188 -0.332031 15.671875 -0.0546875 18.117188 -0.0546875 L 37.847656 -0.0546875 C 38.347656 -0.0546875 39.457031 -0.222656 39.457031 -1.945312 L 39.457031 -8.058594 C 39.457031 -9.78125 38.347656 -9.949219 37.847656 -9.949219 Z M 37.902344 -45.90625 L 5.945312 -45.90625 C 5.5 -45.90625 4.445312 -45.683594 4.445312 -43.902344 L 4.445312 -39.570312 C 4.445312 -37.847656 5.5 -37.679688 5.945312 -37.679688 L 37.902344 -37.625 C 38.347656 -37.625 39.457031 -37.847656 39.457031 -39.570312 L 39.457031 -43.960938 C 39.457031 -45.683594 38.347656 -45.90625 37.902344 -45.90625 Z M 37.902344 -45.90625" transform="translate(332.837 120.114)"/></g></g></g><g fill="#7ED957"><g><g><path d="M 50.851562 -45.792969 L 45.847656 -45.792969 C 45.070312 -45.792969 44.460938 -45.738281 43.902344 -45.570312 C 43.347656 -45.40625 42.847656 -45.125 42.402344 -44.738281 C 42.015625 -44.292969 41.625 -43.792969 41.292969 -43.125 C 40.957031 -42.460938 40.679688 -41.625 40.347656 -40.570312 L 30.511719 -16.003906 C 30.453125 -15.785156 30.398438 -15.785156 30.34375 -15.785156 L 29.789062 -15.785156 C 29.789062 -15.785156 29.675781 -15.785156 29.621094 -16.003906 L 19.839844 -40.570312 C 19.507812 -41.625 19.171875 -42.460938 18.894531 -43.125 C 18.5625 -43.792969 18.171875 -44.292969 17.785156 -44.738281 C 17.339844 -45.125 16.785156 -45.40625 16.226562 -45.570312 C 15.671875 -45.738281 15.003906 -45.792969 14.28125 -45.792969 L 9.167969 -45.792969 C 7.28125 -45.792969 6.003906 -45.183594 5.335938 -44.015625 C 4.722656 -42.960938 4.445312 -41.179688 4.445312 -38.625 L 4.445312 -1.890625 C 4.445312 -0.167969 5.558594 0.0546875 6.058594 0.0546875 L 10.835938 0.0546875 C 11.335938 0.0546875 12.394531 -0.167969 12.394531 -1.890625 L 12.394531 -35.289062 C 12.394531 -35.34375 12.394531 -35.402344 12.394531 -35.402344 L 12.671875 -35.402344 C 12.726562 -35.402344 12.78125 -35.402344 12.835938 -35.234375 L 22.339844 -11.726562 C 22.730469 -10.558594 23.117188 -9.558594 23.507812 -8.726562 C 23.953125 -7.890625 24.398438 -7.226562 24.84375 -6.667969 C 25.398438 -6.113281 25.953125 -5.667969 26.621094 -5.445312 C 27.289062 -5.222656 28.007812 -5.113281 28.84375 -5.113281 L 31.121094 -5.113281 C 31.957031 -5.113281 32.734375 -5.222656 33.34375 -5.445312 C 34.011719 -5.667969 34.625 -6.113281 35.125 -6.667969 C 35.566406 -7.226562 36.066406 -7.890625 36.457031 -8.726562 C 36.847656 -9.558594 37.234375 -10.558594 37.625 -11.726562 L 47.183594 -35.289062 C 47.183594 -35.402344 47.238281 -35.402344 47.292969 -35.402344 L 47.570312 -35.402344 C 47.570312 -35.402344 47.570312 -35.34375 47.570312 -35.289062 L 47.570312 -1.890625 C 47.570312 -0.167969 48.683594 0.0546875 49.128906 0.0546875 L 53.90625 0.0546875 C 54.40625 0.0546875 55.519531 -0.167969 55.519531 -1.890625 L 55.519531 -38.625 C 55.519531 -41.179688 55.242188 -42.960938 54.628906 -44.015625 C 53.964844 -45.183594 52.683594 -45.792969 50.851562 -45.792969 Z M 50.851562 -45.792969" transform="translate(373.723 120.114)"/></g></g></g><g fill="#7ED957"><g><g><path d="M 34.234375 -40.625 C 34.121094 -40.902344 34.011719 -41.238281 33.902344 -41.457031 C 33.011719 -44.347656 30.34375 -46.40625 27.289062 -46.40625 C 25.898438 -46.40625 24.5625 -46.015625 23.453125 -45.238281 C 23.117188 -45.070312 22.839844 -44.847656 22.617188 -44.683594 C 21.785156 -43.960938 20.953125 -42.625 20.171875 -40.625 L 4.667969 -2.113281 C 4.5 -1.613281 4.445312 -1.113281 4.558594 -0.777344 C 4.613281 -0.445312 4.890625 0.0546875 5.78125 0.0546875 L 11.894531 0.0546875 C 12.617188 0.0546875 13.171875 -0.390625 13.449219 -1.113281 L 16.617188 -9.058594 L 28.789062 -9.058594 C 29.398438 -9.058594 29.953125 -9.335938 30.234375 -9.835938 C 30.566406 -10.28125 30.621094 -10.894531 30.453125 -11.449219 L 28.453125 -16.394531 C 28.175781 -17.0625 27.566406 -17.507812 26.84375 -17.507812 L 19.953125 -17.507812 L 27.066406 -35.511719 C 27.121094 -35.625 27.175781 -35.679688 27.175781 -35.679688 L 27.398438 -35.679688 C 27.398438 -35.679688 27.398438 -35.679688 27.453125 -35.566406 L 41.238281 -1.167969 C 41.515625 -0.390625 42.070312 0.0546875 42.847656 0.0546875 L 48.792969 0.0546875 C 49.683594 0.0546875 49.90625 -0.5 50.015625 -0.777344 C 50.128906 -1.113281 50.074219 -1.613281 49.851562 -2.113281 Z M 34.234375 -40.625" transform="translate(430.673 120.114)"/></g></g></g><g fill="#7ED957"><g><g><path d="M 43.792969 -45.792969 L 38.847656 -45.792969 C 38.347656 -45.792969 37.289062 -45.625 37.289062 -43.847656 L 37.289062 -10.449219 C 37.289062 -10.390625 37.289062 -10.390625 37.289062 -10.335938 L 37.011719 -10.335938 C 36.957031 -10.335938 36.902344 -10.335938 36.847656 -10.503906 L 19.285156 -41.738281 C 18.839844 -42.570312 18.449219 -43.238281 18.0625 -43.738281 C 17.671875 -44.292969 17.285156 -44.738281 16.894531 -45.015625 C 16.449219 -45.347656 15.949219 -45.570312 15.339844 -45.683594 C 14.78125 -45.738281 14.117188 -45.792969 13.394531 -45.792969 L 9.226562 -45.792969 C 7.613281 -45.792969 6.390625 -45.238281 5.613281 -44.238281 C 4.835938 -43.179688 4.445312 -41.347656 4.445312 -38.625 L 4.445312 -1.890625 C 4.445312 -0.167969 5.558594 0.0546875 6.058594 0.0546875 L 11.003906 0.0546875 C 11.503906 0.0546875 12.558594 -0.167969 12.558594 -1.890625 L 12.558594 -35.289062 C 12.558594 -35.34375 12.558594 -35.402344 12.558594 -35.402344 L 12.835938 -35.402344 C 12.835938 -35.402344 12.894531 -35.402344 13.003906 -35.234375 L 30.621094 -4 C 31.066406 -3.113281 31.511719 -2.445312 31.898438 -1.945312 C 32.289062 -1.390625 32.679688 -1 33.121094 -0.722656 C 33.566406 -0.390625 34.066406 -0.222656 34.625 -0.109375 C 35.125 0 35.734375 0.0546875 36.511719 0.0546875 L 40.570312 0.0546875 C 42.179688 0.0546875 43.402344 -0.5 44.183594 -1.554688 C 44.960938 -2.554688 45.347656 -4.390625 45.347656 -7.113281 L 45.347656 -43.847656 C 45.347656 -45.625 44.238281 -45.792969 43.792969 -45.792969 Z M 43.792969 -45.792969" transform="translate(482.235 120.114)"/></g></g></g><g fill="#7ED957"><g><g><path d="M 11.113281 -45.792969 L 6.003906 -45.792969 C 5.558594 -45.792969 4.445312 -45.570312 4.445312 -43.847656 L 4.445312 -1.890625 C 4.445312 -0.167969 5.558594 0.0546875 6.003906 0.0546875 L 11.113281 0.0546875 C 11.558594 0.0546875 12.671875 -0.167969 12.671875 -1.890625 L 12.671875 -43.847656 C 12.671875 -45.570312 11.558594 -45.792969 11.113281 -45.792969 Z M 11.113281 -45.792969" transform="translate(529.017 120.114)"/></g></g></g><g fill="#7ED957"><g><g><path d="M 34.234375 -40.625 C 34.121094 -40.902344 34.011719 -41.238281 33.902344 -41.457031 C 33.011719 -44.347656 30.34375 -46.40625 27.289062 -46.40625 C 25.898438 -46.40625 24.5625 -46.015625 23.453125 -45.238281 C 23.117188 -45.070312 22.839844 -44.847656 22.617188 -44.683594 C 21.785156 -43.960938 20.953125 -42.625 20.171875 -40.625 L 4.667969 -2.113281 C 4.5 -1.613281 4.445312 -1.113281 4.558594 -0.777344 C 4.613281 -0.445312 4.890625 0.0546875 5.78125 0.0546875 L 11.894531 0.0546875 C 12.617188 0.0546875 13.171875 -0.390625 13.449219 -1.113281 L 16.617188 -9.058594 L 28.789062 -9.058594 C 29.398438 -9.058594 29.953125 -9.335938 30.234375 -9.835938 C 30.566406 -10.28125 30.621094 -10.894531 30.453125 -11.449219 L 28.453125 -16.394531 C 28.175781 -17.0625 27.566406 -17.507812 26.84375 -17.507812 L 19.953125 -17.507812 L 27.066406 -35.511719 C 27.121094 -35.625 27.175781 -35.679688 27.175781 -35.679688 L 27.398438 -35.679688 C 27.398438 -35.679688 27.398438 -35.679688 27.453125 -35.566406 L 41.238281 -1.167969 C 41.515625 -0.390625 42.070312 0.0546875 42.847656 0.0546875 L 48.792969 0.0546875 C 49.683594 0.0546875 49.90625 -0.5 50.015625 -0.777344 C 50.128906 -1.113281 50.074219 -1.613281 49.851562 -2.113281 Z M 34.234375 -40.625" transform="translate(543.129 120.114)"/></g></g></g></svg>