<svg xmlns="http://www.w3.org/2000/svg" width="30" viewBox="0 0 30 30" height="30" version="1.0"><defs><clipPath id="a"><path d="M 18 9 L 27.179688 9 L 27.179688 21 L 18 21 Z M 18 9"/></clipPath><clipPath id="b"><path d="M 2.503906 9 L 11 9 L 11 21 L 2.503906 21 Z M 2.503906 9"/></clipPath><clipPath id="c"><path d="M 2.503906 5.921875 L 27.179688 5.921875 L 27.179688 16 L 2.503906 16 Z M 2.503906 5.921875"/></clipPath><clipPath id="d"><path d="M 2.503906 15 L 27.179688 15 L 27.179688 23.34375 L 2.503906 23.34375 Z M 2.503906 15"/></clipPath></defs><g clip-path="url(#a)"><path d="M 27.175781 9.136719 L 27.175781 20.164062 L 18.859375 14.761719 Z M 27.175781 9.136719"/></g><g clip-path="url(#b)"><path d="M 10.820312 14.761719 L 2.503906 20.164062 L 2.503906 9.136719 Z M 10.820312 14.761719"/></g><g clip-path="url(#c)"><path d="M 27.132812 7.269531 C 27.015625 6.511719 26.40625 5.921875 25.636719 5.921875 L 4.046875 5.921875 C 3.277344 5.921875 2.664062 6.511719 2.550781 7.269531 L 14.839844 15.585938 Z M 27.132812 7.269531"/></g><g clip-path="url(#d)"><path d="M 15.265625 17.195312 C 15.136719 17.28125 14.988281 17.324219 14.839844 17.324219 C 14.691406 17.324219 14.546875 17.28125 14.417969 17.195312 L 12.234375 15.71875 L 2.554688 22.007812 C 2.671875 22.757812 3.28125 23.34375 4.046875 23.34375 L 25.636719 23.34375 C 26.402344 23.34375 27.007812 22.757812 27.128906 22.007812 L 17.445312 15.71875 Z M 15.265625 17.195312"/></g></svg>