<svg xmlns="http://www.w3.org/2000/svg" width="30" viewBox="0 0 30 30" height="30" version="1.0"><defs><clipPath id="a"><path d="M 2.671875 2.1875 L 28 2.1875 L 28 27.589844 L 2.671875 27.589844 Z M 2.671875 2.1875"/></clipPath></defs><g clip-path="url(#a)"><path d="M 12.964844 2.230469 C 7.253906 2.292969 2.675781 6.976562 2.738281 12.6875 C 2.800781 18.394531 7.480469 22.976562 13.191406 22.914062 C 15.300781 22.890625 17.351562 22.222656 19.074219 21 L 24.976562 26.902344 C 25.65625 27.570312 26.746094 27.566406 27.414062 26.886719 C 28.074219 26.21875 28.074219 25.140625 27.414062 24.46875 L 21.507812 18.566406 C 24.816406 13.910156 23.726562 7.453125 19.074219 4.144531 C 17.289062 2.878906 15.152344 2.207031 12.964844 2.230469 Z M 12.839844 4.023438 C 17.558594 3.890625 21.488281 7.605469 21.617188 12.324219 C 21.621094 12.40625 21.621094 12.488281 21.621094 12.570312 C 21.625 17.289062 17.800781 21.117188 13.082031 21.117188 C 8.367188 21.121094 4.539062 17.296875 4.535156 12.578125 C 4.535156 12.578125 4.535156 12.574219 4.535156 12.570312 C 4.53125 7.941406 8.214844 4.152344 12.839844 4.023438 Z M 12.839844 4.023438"/></g><path d="M 10.773438 6.234375 C 11.242188 6.070312 11.753906 6.3125 11.921875 6.78125 C 12.089844 7.242188 11.851562 7.753906 11.386719 7.925781 C 9.433594 8.636719 8.136719 10.492188 8.136719 12.570312 C 8.136719 13.070312 7.730469 13.472656 7.234375 13.472656 C 6.738281 13.472656 6.335938 13.070312 6.335938 12.570312 C 6.335938 9.738281 8.109375 7.207031 10.773438 6.234375 Z M 10.773438 6.234375"/></svg>